<svg width="313" height="53" viewBox="0 0 313 53" fill="none" xmlns="http://www.w3.org/2000/svg">
<g clip-path="url(#clip0_1_805)">
<path d="M5.78863 48.356C5.40684 48.6423 4.87189 48.7855 4.18138 48.7855H1.1435V45.4317H4.21626C4.89625 45.4317 5.42374 45.5786 5.79807 45.8724C6.17415 46.164 6.3611 46.5805 6.3611 47.1179C6.3611 47.6551 6.17064 48.0677 5.78885 48.356H5.78863ZM105.646 4.00317C113.973 4.00317 119.15 6.15043 121.09 10.382H125.826C124.337 5.32469 119.481 0.000488281 105.646 0.000488281C88.4751 0.000488281 84.8709 8.02633 84.8709 14.758C84.8709 21.4729 88.4749 29.4787 105.646 29.4787C119.483 29.4787 124.337 24.1745 125.826 19.1346H121.101C119.162 23.3435 113.976 25.4762 105.646 25.4762C94.8181 25.4762 89.3288 21.8693 89.3288 14.758C89.3288 7.62084 94.8183 4.00317 105.646 4.00317H105.646ZM77.1405 25.1899H48.5941V16.3471H71.0285V12.8118H44.0916V29.0124H77.1405V25.1899ZM44.0916 4.41571H77.1405V0.504871H44.0916V4.41571ZM140.913 16.3473H163.348V12.8098H136.411V29.0126H169.462V25.1901H140.913V16.3473ZM136.411 4.41571H169.46V0.504871H136.411V4.41571ZM20.9056 17.2682H0.00119598V29.0126H4.50371V20.9605H20.9056C21.8853 20.9605 22.8005 20.9304 23.6949 20.8652L31.0843 29.0124H36.3427L28.1748 20.0306C32.7703 18.5543 35.1001 15.4366 35.1001 10.7533C35.1001 3.95295 30.3236 0.505972 20.9056 0.505972H0.00119598V4.23686H20.9056C27.4566 4.23686 30.6402 6.36738 30.6402 10.7533C30.6402 15.1377 27.4566 17.2682 20.9056 17.2682ZM283.004 17.2682L291.486 4.95709L299.969 17.2682H283.004ZM313 29.0126L293.744 0.506192H289.188L269.93 29.0126H274.912L280.448 20.9605H302.482L308.018 29.0126H313H313ZM246.092 29.4789C259.43 29.4789 265.122 26.9838 265.122 21.137C265.122 16.0114 262.008 13.0274 246.093 12.9512C232.218 12.9105 232.218 10.3557 232.218 8.30363C232.218 5.90881 233.898 3.69305 246.092 3.69305C258.21 3.69305 259.88 6.0207 259.88 8.536V9.17738H264.338V8.536C264.338 2.58099 258.881 0.0399138 246.092 0.0399138C233.21 0.0399138 227.715 2.51029 227.715 8.30363C227.715 13.3792 230.721 16.333 246.09 16.411C259.568 16.4484 260.664 18.5756 260.664 21.137C260.664 23.5928 258.899 25.8643 246.092 25.8643C232.646 25.8643 231.519 23.2844 231.519 20.8652V20.224H227.062V20.8652C227.062 26.9019 232.753 29.4787 246.092 29.4787L246.092 29.4789ZM184.665 6.51847L214.276 29.0126H217.57V0.506192H213.111V22.9999L183.671 0.6346L183.5 0.506192H180.163V29.0126H184.665V6.51847ZM305.051 44.4112C305.182 43.4315 305.551 42.6505 306.159 42.0708C306.766 41.4907 307.529 41.2008 308.446 41.2008C309.374 41.2008 310.142 41.4907 310.75 42.0708C311.358 42.6505 311.715 43.4315 311.822 44.4112H305.051H305.051ZM308.446 40.1612C307.04 40.1612 305.927 40.6147 305.105 41.5241C304.296 42.4444 303.89 43.6454 303.89 45.1288C303.89 46.5977 304.296 47.7875 305.105 48.6965C305.927 49.5925 307.04 50.0405 308.446 50.0405C309.481 50.0405 310.374 49.7784 311.124 49.2526C311.876 48.7262 312.406 47.9789 312.715 47.0102L311.893 46.7946C311.715 46.7596 311.589 46.8316 311.519 47.0102C310.946 48.3379 309.922 49.0013 308.446 49.0013C307.457 49.0013 306.657 48.6813 306.044 48.0423C305.429 47.4025 305.094 46.544 305.035 45.4689H312.643C312.739 45.4689 312.822 45.4339 312.893 45.3616C312.965 45.2885 313 45.2055 313 45.1105V44.9841C313 43.5992 312.597 42.4446 311.786 41.5244C310.989 40.6149 309.874 40.1614 308.446 40.1614L308.446 40.1612ZM300.336 40.3768L300.319 40.3586L294.263 48.1575C294.204 48.1348 294.179 48.0981 294.191 48.0514C294.286 47.7393 294.333 47.5124 294.333 47.369V40.3586H293.19V49.8431H294.298V49.8249L294.317 49.8431L300.389 42.0613C300.462 42.0613 300.478 42.0913 300.443 42.1503C300.36 42.3069 300.319 42.5393 300.319 42.8512V49.8431H301.462V40.3586H300.335V40.3768H300.336ZM288.725 44.3198H283.133V40.3586H281.991V49.8431H283.133V45.3797H288.725V49.8431H289.832V40.3586H288.725V44.3198ZM277.399 45.4502C277.399 46.5755 277.097 47.447 276.497 48.0679C275.896 48.6908 275.012 49.0011 273.845 49.0011C273.201 49.0011 272.686 48.8427 272.299 48.5251C271.911 48.2091 271.719 47.7983 271.719 47.2961C271.719 46.6754 271.96 46.2167 272.441 45.9171C272.925 45.618 273.719 45.4149 274.827 45.3077C276.22 45.1643 277.077 44.8537 277.399 44.3745V45.4504V45.4502ZM279.418 48.8042H279.381C279.132 48.8042 278.929 48.7262 278.776 48.5701C278.62 48.4157 278.542 48.2 278.542 47.9249V43.532C278.542 42.4444 278.205 41.6074 277.533 41.022C276.861 40.4363 275.935 40.1425 274.755 40.1425C273.22 40.1425 271.964 40.7229 270.986 41.8825L271.486 42.3664C271.666 42.5706 271.849 42.5761 272.041 42.3845C272.792 41.5719 273.69 41.1651 274.738 41.1651C275.582 41.1651 276.238 41.3603 276.704 41.7468C277.168 42.1356 277.399 42.6113 277.399 43.173C277.399 43.3886 277.35 43.5503 277.248 43.6577C277.146 43.7659 276.894 43.8718 276.489 43.9798C276.107 44.0872 275.47 44.1897 274.577 44.2846C271.91 44.5597 270.577 45.5634 270.577 47.2961C270.577 48.1349 270.857 48.7967 271.416 49.2879C271.975 49.7784 272.749 50.022 273.738 50.022C275.524 50.022 276.757 49.4493 277.435 48.3025C277.531 48.7674 277.757 49.1449 278.115 49.4308C278.472 49.7189 278.894 49.8625 279.382 49.8625H279.757V49.1264C279.757 48.9123 279.644 48.8044 279.418 48.8044L279.418 48.8042ZM266.985 48.3562C266.604 48.6425 266.068 48.7857 265.377 48.7857H262.34V45.4319H265.413C266.092 45.4319 266.618 45.5788 266.994 45.8726C267.369 46.1642 267.558 46.5807 267.558 47.1182C267.558 47.6554 267.367 48.0679 266.985 48.3562ZM262.34 41.381H265.235C265.878 41.381 266.369 41.5149 266.709 41.784C267.048 42.0516 267.217 42.4336 267.217 42.9219C267.217 43.3998 267.048 43.7736 266.709 44.0432C266.369 44.3126 265.889 44.4465 265.271 44.4465H262.341V41.381H262.34ZM267.2 44.8945C267.985 44.4874 268.378 43.8126 268.378 42.8681C268.378 42.0671 268.107 41.4495 267.567 41.0127C267.024 40.5757 266.26 40.3586 265.27 40.3586H261.197V49.8431H265.413C266.461 49.8431 267.271 49.6132 267.843 49.1542C268.413 48.693 268.701 48.0327 268.701 47.1719C268.701 46.0713 268.201 45.3127 267.201 44.8945H267.2ZM256.786 47.9604C256.203 48.6553 255.391 49.0011 254.356 49.0011C253.318 49.0011 252.509 48.6553 251.926 47.9604C251.342 47.2668 251.052 46.3111 251.052 45.0914C251.052 43.885 251.342 42.9349 251.926 42.2415C252.509 41.5479 253.318 41.2006 254.356 41.2006C255.391 41.2006 256.203 41.5479 256.786 42.2415C257.369 42.9349 257.66 43.885 257.66 45.0914C257.66 46.3111 257.369 47.2666 256.786 47.9604ZM254.356 40.1612C252.998 40.1612 251.915 40.6035 251.104 41.4869C250.318 42.3717 249.925 43.5802 249.925 45.1103C249.925 46.6402 250.318 47.8415 251.104 48.713C251.915 49.5984 252.998 50.0405 254.356 50.0405C255.737 50.0405 256.821 49.5984 257.606 48.713C258.393 47.8415 258.786 46.6402 258.786 45.1103C258.786 43.5802 258.393 42.3715 257.606 41.4869C256.821 40.6035 255.737 40.1612 254.356 40.1612ZM246.388 47.9604C245.805 48.6553 244.995 49.0011 243.96 49.0011C242.923 49.0011 242.124 48.6833 241.565 48.0514C241.006 47.4177 240.726 46.5085 240.726 45.3259V44.7868C240.737 43.6397 241.03 42.7545 241.6 42.1338C242.173 41.5109 242.977 41.2006 244.013 41.2006C245.036 41.2006 245.834 41.5479 246.406 42.2415C246.978 42.9349 247.264 43.885 247.264 45.0914C247.264 46.3111 246.971 47.2666 246.388 47.9604H246.388ZM244.013 40.1777C242.632 40.1777 241.517 40.7638 240.672 41.9369V40.6984C240.672 40.6035 240.637 40.522 240.565 40.4572C240.493 40.3916 240.409 40.3586 240.315 40.3586H239.584V53.0005H240.726V48.4996C241.488 49.5145 242.565 50.022 243.96 50.022C245.34 50.022 246.425 49.5817 247.21 48.6965C247.996 47.8113 248.388 46.5977 248.388 45.0564C248.388 43.5375 248.005 42.3461 247.237 41.4796C246.469 40.6134 245.394 40.1779 244.013 40.1779V40.1777ZM235.116 40.3768L235.1 40.3586L229.043 48.1575C228.985 48.1348 228.96 48.0981 228.971 48.0514C229.067 47.7393 229.115 47.5124 229.115 47.369V40.3586H227.971V49.8431H229.078V49.8249L229.097 49.8431L235.17 42.0613C235.242 42.0613 235.261 42.0913 235.224 42.1503C235.14 42.3069 235.099 42.5393 235.099 42.8512V49.8431H236.242V40.3586H235.116V40.3768H235.116ZM223.505 44.3198H217.914V40.3586H216.771V49.8431H217.914V45.3797H223.505V49.8431H224.613V40.3586H223.505V44.3198ZM212.36 47.9604C211.776 48.6553 210.965 49.0011 209.93 49.0011C208.892 49.0011 208.083 48.6553 207.499 47.9604C206.916 47.2668 206.625 46.3111 206.625 45.0914C206.625 43.885 206.916 42.9349 207.499 42.2415C208.083 41.5479 208.892 41.2006 209.93 41.2006C210.965 41.2006 211.776 41.5479 212.36 42.2415C212.943 42.9349 213.234 43.885 213.234 45.0914C213.234 46.3111 212.943 47.2666 212.36 47.9604ZM209.93 40.1612C208.572 40.1612 207.489 40.6035 206.679 41.4869C205.892 42.3717 205.499 43.5802 205.499 45.1103C205.499 46.6402 205.892 47.8415 206.679 48.713C207.489 49.5984 208.572 50.0405 209.93 50.0405C211.311 50.0405 212.395 49.5984 213.18 48.713C213.967 47.8415 214.36 46.6402 214.36 45.1103C214.36 43.5802 213.967 42.3715 213.18 41.4869C212.395 40.6035 211.311 40.1612 209.93 40.1612ZM201.946 40.3768L201.927 40.3586L195.87 48.1575C195.812 48.1348 195.787 48.0981 195.8 48.0514C195.895 47.7393 195.943 47.5124 195.943 47.369V40.3586H194.8V49.8431H195.908V49.8249L195.924 49.8431L201.999 42.0613C202.07 42.0613 202.088 42.0913 202.052 42.1503C201.969 42.3069 201.926 42.5393 201.926 42.8512V49.8431H203.07V40.3586H201.946V40.3768H201.946ZM191.066 40.3586H189.94V48.7857H184.348V40.3586H183.206V49.8431H191.012V51.9408H192.139V48.7857H191.066V40.3586ZM178.74 40.3768L178.724 40.3586L172.667 48.1575C172.609 48.1348 172.585 48.0981 172.595 48.0514C172.692 47.7393 172.738 47.5124 172.738 47.369V40.3586H171.596V49.8431H172.703V49.8249L172.721 49.8431L178.794 42.0613C178.866 42.0613 178.883 42.0913 178.848 42.1503C178.765 42.3069 178.724 42.5393 178.724 42.8512V49.8431H179.867V40.3586H178.74V40.3768H178.74ZM166.862 48.7857H161.807C162.164 48.2487 162.426 47.434 162.592 46.3466C162.772 45.1158 162.937 43.4666 163.093 41.3979H166.862V48.7857ZM167.969 40.3586H162.057C162.009 41.2433 161.955 41.9906 161.896 42.6003C161.812 43.4967 161.753 44.0994 161.718 44.4112C161.598 45.618 161.466 46.4845 161.324 47.0102C161.192 47.5847 160.974 48.0384 160.662 48.3732C160.401 48.6483 160.038 48.7857 159.573 48.7857H158.823V53.0005H159.466C159.597 53.0005 159.707 52.9538 159.797 52.8646C159.886 52.7756 159.931 52.6657 159.931 52.5336V49.8431H168.184V52.5336C168.184 52.6659 168.23 52.7758 168.326 52.8646C168.421 52.9538 168.528 53.0005 168.649 53.0005H169.308V48.7857H167.969V40.3586ZM155.536 44.3198H149.944V40.3586H148.801V49.8431H149.944V45.3797H155.536V49.8431H156.644V40.3586H155.536V44.3198ZM144.39 47.9604C143.806 48.6553 142.997 49.0011 141.96 49.0011C140.925 49.0011 140.114 48.6553 139.53 47.9604C138.946 47.2668 138.655 46.3111 138.655 45.0914C138.655 43.885 138.946 42.9349 139.53 42.2415C140.114 41.5479 140.925 41.2006 141.96 41.2006C142.997 41.2006 143.806 41.5479 144.39 42.2415C144.974 42.9349 145.264 43.885 145.264 45.0914C145.264 46.3111 144.974 47.2666 144.39 47.9604ZM141.96 40.1612C140.602 40.1612 139.519 40.6035 138.71 41.4869C137.922 42.3717 137.53 43.5802 137.53 45.1103C137.53 46.6402 137.923 47.8415 138.71 48.713C139.519 49.5984 140.602 50.0405 141.96 50.0405C143.342 50.0405 144.425 49.5984 145.212 48.713C145.997 47.8415 146.39 46.6402 146.39 45.1103C146.39 43.5802 145.997 42.3715 145.212 41.4869C144.425 40.6035 143.342 40.1612 141.96 40.1612ZM135.959 40.3586H134.44L130.527 44.4282H129.973V40.3586H128.83V49.8431H129.973V45.4856H130.545L134.261 49.468C134.486 49.7187 134.803 49.8429 135.209 49.8429H136.298L131.492 44.913L135.959 40.3581L135.959 40.3586ZM118.809 40.3768L118.792 40.3586L112.736 48.1575C112.677 48.1348 112.652 48.0981 112.663 48.0514C112.76 47.7393 112.808 47.5124 112.808 47.369V40.3586H111.663V49.8431H112.771V49.8249L112.789 49.8431L118.862 42.0613C118.935 42.0613 118.953 42.0913 118.916 42.1503C118.832 42.3069 118.792 42.5393 118.792 42.8512V49.8431H119.934V40.3586H118.809V40.3768H118.809ZM101.625 45.0207H98.5522C97.945 45.0207 97.4781 44.861 97.1505 44.5449C96.8223 44.2286 96.6597 43.7769 96.6597 43.1912C96.6597 42.617 96.8223 42.1745 97.1505 41.864C97.4781 41.5537 97.945 41.3977 98.5522 41.3977H101.625V45.0205V45.0207ZM96.3189 41.1019C95.7835 41.5986 95.5152 42.2957 95.5152 43.1915C95.5152 44.0522 95.7504 44.7273 96.2206 45.218C96.6913 45.707 97.3616 45.9821 98.2299 46.0416L95.3188 49.8431H96.1761C96.5449 49.8431 96.8486 49.6894 97.0875 49.3769L99.5712 46.0598H101.625V49.8431H102.733V40.3586H98.5522C97.6003 40.3586 96.856 40.6072 96.3189 41.1019ZM91.3183 40.3768L91.2999 40.3586L85.2434 48.1575C85.1842 48.1348 85.1598 48.0981 85.173 48.0514C85.2678 47.7393 85.3152 47.5124 85.3152 47.369V40.3586H84.1729V49.8431H85.2801V49.8249L85.297 49.8431L91.3714 42.0613C91.4421 42.0613 91.4603 42.0913 91.4249 42.1503C91.342 42.3069 91.2997 42.5393 91.2997 42.8512V49.8431H92.4442V40.3586H91.3181V40.3768H91.3183ZM80.4392 40.3586H79.3132V48.7857H73.7212V40.3586H72.5789V49.8431H80.385V51.9408H81.5113V48.7857H80.4392V40.3586ZM68.0948 45.0207H65.0221C64.4147 45.0207 63.9482 44.861 63.6204 44.5449C63.2922 44.2286 63.1296 43.7769 63.1296 43.1912C63.1296 42.617 63.2922 42.1745 63.6204 41.864C63.9482 41.5537 64.4147 41.3977 65.0221 41.3977H68.0948V45.0205V45.0207ZM62.7904 41.1019C62.2532 41.5986 61.9864 42.2957 61.9864 43.1915C61.9864 44.0522 62.2218 44.7273 62.6923 45.218C63.1631 45.707 63.8313 45.9821 64.702 46.0416L61.7902 49.8431H62.6482C63.0168 49.8431 63.32 49.6894 63.5574 49.3769L66.0411 46.0598H68.0948V49.8431H69.2027V40.3586H65.0221C64.0702 40.3586 63.326 40.6072 62.7904 41.1019ZM52.8225 42.6003C52.7394 43.4967 52.6801 44.1009 52.6446 44.4112C52.5245 45.5473 52.3872 46.4136 52.2334 47.0102C52.1022 47.6089 51.8819 48.0628 51.5725 48.3732C51.3092 48.6483 50.9463 48.7857 50.4831 48.7857C50.2924 48.7857 50.1963 48.8991 50.1963 49.1262V49.8431H50.3924C51.6668 49.9271 52.5669 49.3359 53.0907 48.0679C53.2335 47.7576 53.3704 47.2206 53.5023 46.4543C53.6203 45.7253 53.7096 45.0081 53.7689 44.3035C53.8169 43.8126 53.8948 42.8437 54.0019 41.3979H57.7711V49.3954C57.7711 49.5145 57.8159 49.6205 57.9045 49.7097C57.9938 49.7989 58.097 49.8431 58.2172 49.8431H58.8954V40.3586H52.9651C52.8947 41.6131 52.8467 42.3607 52.8223 42.6003H52.8225ZM46.9458 40.3768L46.9273 40.3586L40.8731 48.1575C40.8117 48.1348 40.7897 48.0981 40.8005 48.0514C40.8953 47.7393 40.9433 47.5124 40.9433 47.369V40.3586H39.8004V49.8431H40.9082V49.8249L40.9264 49.8431L46.9995 42.0613C47.0702 42.0613 47.0884 42.0913 47.0531 42.1503C46.9695 42.3069 46.9271 42.5393 46.9271 42.8512V49.8431H48.0716V40.3586H46.9456V40.3768H46.9458ZM30.4752 41.3979H33.6928V49.8431H34.8351V41.3979H38.032V40.3586H30.4754V41.3979H30.4752ZM27.5821 44.3198H21.9906V40.3586H20.8479V49.8431H21.9906V45.3797H27.5821V49.8431H28.6898V40.3586H27.5821V44.3198ZM10.4875 44.4112C10.617 43.4315 10.9876 42.6505 11.5952 42.0708C12.2027 41.4907 12.9639 41.2008 13.8804 41.2008C14.8101 41.2008 15.5787 41.4907 16.1841 42.0708C16.7921 42.6505 17.1491 43.4315 17.2571 44.4112H10.4875ZM13.8804 40.1612C12.4746 40.1612 11.3617 40.6147 10.5408 41.5241C9.72986 42.4444 9.32591 43.6454 9.32591 45.1288C9.32591 46.5977 9.72986 47.7875 10.5408 48.6965C11.3615 49.5925 12.4746 50.0405 13.8804 50.0405C14.9174 50.0405 15.8104 49.7784 16.5606 49.2526C17.3102 48.7262 17.8401 47.9789 18.1492 47.0102L17.3293 46.7946C17.1489 46.7596 17.0252 46.8316 16.953 47.0102C16.3827 48.3379 15.3569 49.0013 13.8806 49.0013C12.8915 49.0013 12.0915 48.6813 11.4782 48.0423C10.8656 47.4025 10.5286 46.544 10.4689 45.4689H18.0788C18.1734 45.4689 18.257 45.4339 18.3292 45.3616C18.3998 45.2885 18.4365 45.2055 18.4365 45.1105V44.9841C18.4365 43.5992 18.0312 42.4446 17.2215 41.5244C16.4237 40.6149 15.3099 40.1614 13.8804 40.1614V40.1612ZM1.14328 41.381H4.03831C4.681 41.381 5.17382 41.5149 5.51238 41.784C5.85161 42.0516 6.02232 42.4336 6.02232 42.9219C6.02232 43.3998 5.85161 43.7736 5.51238 44.0432C5.17382 44.3126 4.69241 44.4465 4.07342 44.4465H1.1435V41.381H1.14328ZM6.00322 44.8945C6.78853 44.4874 7.18129 43.8126 7.18129 42.8681C7.18129 42.0671 6.91119 41.4495 6.37032 41.0127C5.82725 40.5757 5.06257 40.3586 4.0732 40.3586H0.000976562V49.8431H4.21626C5.26487 49.8431 6.07388 49.6132 6.64613 49.1542C7.21838 48.693 7.50384 48.0327 7.50384 47.1719C7.50384 46.0713 7.00378 45.3127 6.00366 44.8945H6.00322Z" fill="#483F3A"/>
</g>
<defs>
<clipPath id="clip0_1_805">
<rect width="313" height="53" fill="white"/>
</clipPath>
</defs>
</svg>
