<svg width="1086" height="536" viewBox="0 0 1086 536" fill="none" xmlns="http://www.w3.org/2000/svg">
<path d="M102.933 2.53328C103.2 3.06661 108.4 11.4666 114.533 21.0666L125.733 38.3999L160.533 37.7333L195.333 37.0666L213.733 47.0666C227.2 54.3999 231.733 56.3999 230.267 54.2666C229.333 52.6666 224 43.7333 218.667 34.2666L208.8 17.3333H172.533H136.133L119.333 9.33328C110 4.93328 102.667 1.86661 102.933 2.53328Z" fill="white"/>
<path d="M194.667 171.333V262.667H180.667H166.667V222V181.333H131.333H96V266V350.667H273.333H450.667V306.667V262.667H418H385.467L385.067 244.8L384.667 227.067L355.333 244.133C339.2 253.467 325.2 261.2 324.4 261.333C323.067 261.333 322.667 257.2 322.667 244.667C322.667 235.467 322.267 228 321.867 228C321.467 228 308.933 235.467 293.867 244.667C278.8 253.867 266.267 261.333 266 261.333C265.6 261.333 265.333 220.533 265.333 170.667V79.9999H230H194.667V171.333ZM246 133.333V148.667L230.4 149.067L214.667 149.467V133.333V117.2L230.4 117.6L246 118V133.333ZM246 197.333V212.667L230.4 213.067L214.667 213.467V197.333V181.2L230.4 181.6L246 182V197.333ZM147.333 225.333V240.667L131.733 241.067L116 241.467V226.267C116 217.867 116.4 210.667 116.933 210.133C117.467 209.733 124.533 209.467 132.533 209.6L147.333 210V225.333ZM148 290V305.333H132H116V290V274.667H132H148V290ZM302.4 298.267L302.8 308H286.667H270.667V298.933C270.667 293.867 271.067 289.333 271.6 288.8C272.133 288.4 279.2 288.133 287.2 288.267L302 288.667L302.4 298.267ZM358.4 298.4L358.8 308.133L343.067 307.733L327.333 307.333L326.933 299.467C326.267 287.467 325.733 287.867 342.933 288.267L358 288.667L358.4 298.4ZM415.333 298V307.333L399.733 307.733L384 308.133V298.933C384 293.867 384.4 289.333 384.933 288.8C385.467 288.4 392.533 288.133 400.533 288.267L415.333 288.667V298Z" fill="white"/>
<path d="M2.93331 101.067C3.19998 101.6 8.13331 109.733 14 119.067L24.6666 136H60.5333H96.4L106.533 141.467C112.133 144.533 119.867 148.8 123.733 151.067L130.933 155.067L128.933 151.2C127.867 149.067 122.667 140.133 117.6 131.333L108.267 115.333L69.7333 114.667L31.3333 114L17.7333 106.933C3.73331 99.8666 2.13331 99.2 2.93331 101.067Z" fill="white"/>
<path d="M738.933 258.8C717.067 262.667 701.467 279.6 697.333 303.867C696.267 310 696 338.4 696.4 396C696.8 485.6 696.8 484.4 704 499.333C708.4 508.267 718.533 516.8 728.933 520C739.867 523.333 761.467 523.6 772.133 520.533C796.267 513.6 807.867 492.4 808 454.933V444H790.933H773.733L772.933 458.267C771.867 475.733 770.267 482 765.467 486.8C758.267 493.867 744.8 493.2 738.133 485.2C731.467 477.333 731.333 475.867 731.333 388.667C731.333 308.133 731.333 307.333 734.267 301.067C737.6 293.733 742 290.533 749.867 289.733C758 288.8 764.667 292.267 768.267 299.2C770.533 303.467 771.2 307.867 771.733 319.6L772.4 334.667H789.467H806.667V322.133C806.667 288.933 796.667 269.467 775.6 261.467C767.067 258.4 748.933 256.933 738.933 258.8Z" fill="white"/>
<path d="M872.4 259.333C851.867 263.867 840.4 275.333 833.733 298C831.733 305.067 831.467 314.667 830.933 381.333C830.667 429.333 831.067 461.467 831.867 470C834.667 495.867 842 509.2 857.733 517.2C866 521.467 867.867 521.867 881.467 522.4C890.667 522.8 899.2 522.4 903.867 521.333C930.133 515.6 942.533 495.333 942.667 458.267V444H925.467H908.267L907.733 459.6C906.933 483.2 901.733 491.333 887.467 491.333C878.667 491.333 874 488.267 870.267 480.267C867.333 474 867.333 473.2 867.333 389.333V304.667L870.267 299.2C877.6 285.467 897.6 286.133 904 300.4C906 304.8 906.667 309.067 906.667 320.267V334.667H924.8H943.067L942.133 319.6C940.533 294.667 936.8 282.667 927.2 272C916.133 259.867 893.867 254.667 872.4 259.333Z" fill="white"/>
<path d="M973.733 258.667C972.133 259.333 970.267 261.067 969.467 262.533C968.4 264.267 968 304.8 968 391.867V518.667H985.333H1002.67V404V289.333H1026.67H1050.67V404V518.667H1067.33H1084V390.8V262.8L1080.53 260.133C1077.07 257.467 1075.6 257.333 1026.8 257.467C999.2 257.467 975.333 258 973.733 258.667Z" fill="white"/>
<path d="M502.667 390.667V520.133L518.4 519.733L534 519.333L533.733 435.333C533.733 389.067 533.333 338.133 532.933 322C532.4 301.733 532.667 294.667 533.467 299.333C534.133 302.933 541.333 352.8 549.333 410C557.467 467.2 564.267 515.333 564.667 516.933C565.333 519.867 565.867 520 581.467 520C592.933 520 597.6 519.6 598 518.267C598.933 516.133 614 419.6 624 353.333C628.4 323.6 632.267 298.8 632.4 298.267C632.533 297.6 632.533 347.333 632.267 408.533L631.733 520H648.533H665.333V390.667V261.333H640.267H615.2L605.467 314.267C600.133 343.467 592.8 384.667 589.333 405.733C585.733 426.933 582.667 444.533 582.267 444.8C582 445.067 581.067 438.533 580.133 430.267C578.4 414.667 567.867 345.733 559.2 292.267L554.133 261.333H528.4H502.667V390.667Z" fill="white"/>
<path d="M94.6666 371.2C94.6666 375.2 98.8 393.067 102.267 403.333C106.4 416 115.6 434.8 123.067 446C132.267 459.867 130.8 459.333 142 452.533C155.2 444.533 176.667 434.4 191.467 429.333L203.6 425.2L200.533 414.533C197.6 404.4 194.4 389.067 192.667 375.6L191.867 369.333H143.2C102 369.333 94.6666 369.6 94.6666 371.2Z" fill="white"/>
<path d="M202.667 373.467C202.667 378.267 208.4 407.067 211.2 416C213.333 422.933 212.4 422.8 231.333 419.2C241.733 417.333 250.933 416.8 273.333 416.8C300.133 416.667 313.6 418 330.133 422.133C332.667 422.8 333.333 421.867 336 411.733C338.667 401.867 343.867 375.467 344 370.933C344 369.733 329.067 369.333 273.333 369.333H202.667V373.467Z" fill="white"/>
<path d="M352.267 381.733C351.467 388.667 348.933 401.067 346.8 409.467C344.667 417.867 343.067 424.8 343.333 425.067C343.6 425.333 349.333 427.467 356.267 429.867C375.2 436.533 393.2 445.333 411.6 457.067C414.4 458.8 414.933 458.4 423.333 445.6C437.733 423.6 446.8 400.4 451.2 374.267L452.133 369.333H402.933H353.867L352.267 381.733Z" fill="white"/>
<path d="M257.333 426.133C236.533 428 217.333 431.6 217.333 433.733C217.333 437.067 233.333 467.867 240.933 479.333C248.4 490.667 266.533 513.333 270.933 516.933C272.667 518.4 274.133 517.333 280.8 510.267C298.8 491.467 317.2 462.8 326.667 438.667L329.2 432.133L322.267 430.8C303.333 426.933 272.8 424.8 257.333 426.133Z" fill="white"/>
<path d="M191.467 440C176.8 445.2 152.933 456.533 146.667 461.333L143.333 463.867L148.667 469.333C163.333 484.533 188 500.667 210 509.2C223.733 514.667 246.533 520 255.467 520H260.533L255.867 514.933C239.333 497.333 221.867 470.267 212 446.667C209.6 441.2 207.333 436.267 206.8 435.733C206.4 435.333 199.467 437.2 191.467 440Z" fill="white"/>
<path d="M333.467 448C324.133 469.6 308.933 493.6 291.2 514.267L286.267 520H291.067C311.2 520 346.933 507.2 370.533 491.467C380.933 484.533 400.667 467.733 401.733 464.8C402.533 462.667 398.267 459.867 380.667 450.933C371.6 446.4 350.933 438.133 342 435.467C339.6 434.8 338.533 436.4 333.467 448Z" fill="white"/>
</svg>
