<svg version="1.1" xmlns="http://www.w3.org/2000/svg" xmlns:xlink="http://www.w3.org/1999/xlink" width="337.48px" height="86.213px" viewBox="0,0,256,65.39063"><defs><clipPath id="clip-1"><path d="M0,450h1150v-450h-1150z" id="a" fill="none"></path></clipPath></defs><g fill="none" fill-rule="nonzero" stroke="none" stroke-width="1" stroke-linecap="butt" stroke-linejoin="miter" stroke-miterlimit="10" stroke-dasharray="" stroke-dashoffset="0" font-family="none" font-weight="none" font-size="none" text-anchor="none" style="mix-blend-mode: normal"><g transform="translate(-1.41821,0.11047) scale(0.75856,0.75856)"><g transform="translate(27.742,-156.62)"><g transform="translate(-59.972,120.2) scale(0.26458,0.26458)"><path d="M1171.2,277.63h-28.232l-33.727,34.107v-34.107h-23.875v93.98h23.875v-38.843l34.296,38.843h28.801l-44.34,-50.4z" fill="#ffffff"></path><g transform="translate(0,600) scale(1.3333,-1.3333)" clip-path="url(#clip-1)"><path d="M310.24,222.74h-25.864v31.264h25.864c13.073,0 19.042,-6.254 19.042,-15.63c0,-9.38 -5.969,-15.634 -19.042,-15.634M310.808,270.772h-45.19v-99.473h18.758v34.672h26.432c22.453,0 37.232,11.511 37.232,32.402c0,20.888 -14.779,32.4 -37.232,32.4M390.381,186.077c-10.515,0 -20.321,7.531 -20.321,20.464c0,12.931 9.806,20.462 20.321,20.462c10.517,0 20.322,-7.53 20.322,-20.462c0,-12.933 -9.805,-20.464 -20.322,-20.464M390.381,243.772c-19.326,0 -38.511,-12.506 -38.511,-37.23c0,-24.729 19.185,-37.234 38.511,-37.234c19.328,0 38.511,12.505 38.511,37.233c0,24.725 -19.183,37.231 -38.511,37.231M474.606,186.077c-10.8,0 -18.757,7.816 -18.757,20.464c0,12.505 8.241,20.462 18.757,20.462c6.394,0 11.937,-2.984 16.342,-9.662l15.348,8.81c-5.116,10.943 -16.2,17.621 -31.548,17.621c-20.038,0 -37.09,-14.779 -37.09,-37.23c0,-22.454 16.2,-37.234 37.09,-37.234c15.063,0 25.152,6.821 32.26,18.9l-14.78,8.1c-4.265,-5.968 -8.81,-10.23 -17.622,-10.23M665.256,201.85c-0.853,-10.8 -2.986,-13.216 -6.682,-13.216c-2.524,0 -3.712,0.279 -5.439,0.732l0.091,-18.24c0,0 2.225,-0.68 6.345,-0.68c15.206,0 20.891,9.804 22.312,30.695l1.705,24.584h20.178v-54.285h17.906v70.343h-53.433zM594.857,215.919c2.559,7.958 9.665,14.211 19.043,14.211c9.948,0 16.627,-5.4 18.333,-14.211zM614.467,243.772c-20.462,0 -37.088,-14.921 -37.088,-37.231c0,-22.312 16.626,-37.232 36.238,-37.232c15.489,0 25.294,5.826 32.399,17.904l-14.212,7.105c-4.404,-5.542 -8.383,-9.662 -17.904,-9.662c-10.515,0 -18.19,6.822 -19.326,17.621h54.285v6.252c0,20.605 -14.212,35.243 -34.391,35.243M749.178,215.919c2.559,7.958 9.663,14.211 19.042,14.211c9.947,0 16.626,-5.4 18.333,-14.211zM768.788,243.772c-20.464,0 -37.089,-14.921 -37.089,-37.231c0,-22.312 16.625,-37.232 36.236,-37.232c15.49,0 25.295,5.826 32.401,17.904l-14.211,7.105c-4.404,-5.542 -8.384,-9.662 -17.905,-9.662c-10.516,0 -18.19,6.822 -19.326,17.621h54.285v6.252c0,20.605 -14.212,35.243 -34.391,35.243M512.578,226.151h21.031v-54.853h17.905v54.853h21.033v15.631h-59.969zM914.838,186.076c-10.518,0 -20.322,7.532 -20.322,20.464c0,12.932 9.804,20.463 20.322,20.463c10.516,0 20.32,-7.53 20.32,-20.463c0,-12.932 -9.804,-20.464 -20.32,-20.464M914.838,243.772c-19.327,0 -38.512,-12.506 -38.512,-37.232c0,-24.727 19.185,-37.232 38.512,-37.232c19.326,0 38.51,12.505 38.51,37.232c0,24.726 -19.184,37.232 -38.51,37.232M1024.598,241.796l-19.434,-49.363l-19.433,49.363h-23.404v-70.356h17.02v44.539l18.866,-44.539h13.902l18.866,44.539v-44.539h17.02v70.356zM279.908,143.228h-14.287v6.579h35.819v-6.58h-14.354v-39.937h-7.178zM302.366,123.692h19.604c-0.531,5.183 -4.52,8.106 -9.57,8.106c-5.05,0 -8.904,-3.521 -10.034,-8.106M312.401,108.274c5.117,0 7.244,2.26 9.37,5.183l5.383,-2.857c-3.057,-5.183 -7.576,-8.24 -14.886,-8.24c-9.105,0 -16.68,7.042 -16.68,17.41c0,10.3 7.575,17.41 17.013,17.41c9.568,0 15.948,-6.844 15.948,-16.48v-2.392h-26.315c0.465,-5.848 4.385,-10.035 10.167,-10.035" fill="#ffffff"></path><path d="M349.67,136.25h7.84l-10.1,-15.284l11.563,-17.677h-7.908l-7.71,12.161l-7.773,-12.16h-7.975l12.028,17.478l-10.367,15.482h7.776l6.312,-10.034zM361.294,136.25h6.844v-12.826h15.35v12.826h6.846v-32.96h-6.845v14.154h-15.351v-14.155h-6.844zM423.222,119.771c0,6.777 -4.917,11.098 -10.632,11.098c-5.782,0 -10.7,-4.321 -10.7,-11.098c0,-6.78 4.918,-11.098 10.7,-11.098c5.715,0 10.632,4.318 10.632,11.098M412.59,102.36c-9.038,0 -17.677,6.046 -17.677,17.41c0,11.364 8.64,17.41 17.677,17.41c8.971,0 17.61,-6.046 17.61,-17.41c0,-11.364 -8.639,-17.41 -17.61,-17.41M430.994,103.289v6.05c0,0 0.864,-0.4 2.326,-0.4c2.127,0 3.123,1.33 3.522,7.707l1.063,19.604h24.522v-32.96h-6.845v26.78h-11.696l-0.731,-13.689c-0.466,-9.437 -2.858,-13.558 -9.437,-13.558c-1.395,0 -2.724,0.466 -2.724,0.466M495.315,119.771c0,6.777 -4.917,11.098 -10.632,11.098c-5.782,0 -10.7,-4.321 -10.7,-11.098c0,-6.78 4.918,-11.098 10.7,-11.098c5.715,0 10.632,4.318 10.632,11.098M484.683,102.36c-9.038,0 -17.677,6.046 -17.677,17.41c0,11.364 8.639,17.41 17.677,17.41c8.97,0 17.61,-6.046 17.61,-17.41c0,-11.364 -8.64,-17.41 -17.61,-17.41M506.872,136.25h21.465v-6.18h-14.62v-26.78h-6.845zM532.852,136.25h6.58v-23.79l15.748,23.79h7.243v-32.96h-6.579v23.79l-15.748,-23.79h-7.244zM568.6,136.25h6.578v-23.79l15.75,23.79h7.243v-32.96h-6.58v23.79l-15.748,-23.79h-7.243zM635.974,108.673c3.52,0 5.316,1.793 5.316,4.586c0,2.789 -1.795,4.518 -5.316,4.518h-8.174v-9.104zM635.508,123.092c3.058,0 4.917,1.197 4.917,3.92c0,2.659 -1.86,3.856 -4.85,3.856h-7.775v-7.776zM621.023,136.25h14.95c7.046,0 10.967,-3.655 10.967,-8.174c0,-3.787 -1.993,-6.047 -4.985,-7.376c3.456,-1.063 6.18,-3.655 6.18,-7.908c0,-5.582 -4.85,-9.503 -11.762,-9.503h-15.35zM678.7,119.771c0,6.777 -4.918,11.098 -10.634,11.098c-5.78,0 -10.698,-4.321 -10.698,-11.098c0,-6.78 4.918,-11.098 10.698,-11.098c5.716,0 10.634,4.318 10.634,11.098M668.066,102.36c-9.037,0 -17.677,6.046 -17.677,17.41c0,11.364 8.64,17.41 17.677,17.41c8.973,0 17.61,-6.046 17.61,-17.41c0,-11.364 -8.637,-17.41 -17.61,-17.41M715.644,112.859c0,-5.915 -4.851,-10.5 -13.89,-10.5c-8.241,0 -12.958,4.385 -12.958,10.3c0,1.53 0.464,2.99 0.797,3.721l5.782,-1.926c-0.2,-0.467 -0.332,-0.997 -0.332,-1.729c0,-3.257 3.256,-4.918 6.71,-4.918c4.654,0 7.178,2.193 7.178,5.25c0,2.924 -2.458,4.653 -6.777,4.653h-2.79v5.515h2.658c4.053,0 5.848,1.927 5.848,4.451c0,2.46 -1.927,4.055 -5.65,4.055c-3.921,0 -6.247,-1.662 -6.247,-3.655c0,-0.732 0.134,-1.129 0.199,-1.397l-5.847,-1.926c-0.266,0.664 -0.598,1.728 -0.598,3.191c0,5.183 4.652,9.235 12.56,9.235c8.305,0 12.028,-3.853 12.028,-8.839c0,-3.786 -2.061,-6.31 -5.582,-7.64c4.055,-1.13 6.91,-3.655 6.91,-7.84M720.026,136.25h9.304l9.702,-25.053l9.701,25.053h9.371v-32.96h-6.645v23.325l-9.503,-23.326h-5.782l-9.569,23.391v-23.39h-6.579zM790.99,119.771c0,6.777 -4.919,11.098 -10.633,11.098c-5.78,0 -10.698,-4.321 -10.698,-11.098c0,-6.78 4.918,-11.098 10.698,-11.098c5.714,0 10.632,4.318 10.632,11.098M780.357,102.36c-9.039,0 -17.677,6.046 -17.677,17.41c0,11.364 8.638,17.41 17.677,17.41c8.971,0 17.611,-6.046 17.611,-17.41c0,-11.364 -8.64,-17.41 -17.61,-17.41M837.304,103.289l-11.231,14.421v-14.42h-6.844v14.554l-11.232,-14.555h-8.305l13.756,17.48l-13.558,15.481h8.839l10.5,-12.826v12.826h6.844v-12.76l10.5,12.76h8.838l-13.557,-15.482l13.756,-17.479zM849.124,136.25h6.845v-12.826h15.35v12.826h6.845v-32.96h-6.845v14.154h-15.35v-14.155h-6.845zM911.053,119.771c0,6.777 -4.918,11.098 -10.632,11.098c-5.78,0 -10.698,-4.321 -10.698,-11.098c0,-6.78 4.918,-11.098 10.698,-11.098c5.714,0 10.632,4.318 10.632,11.098M900.421,102.36c-9.04,0 -17.677,6.046 -17.677,17.41c0,11.364 8.638,17.41 17.677,17.41c8.97,0 17.61,-6.046 17.61,-17.41c0,-11.364 -8.64,-17.41 -17.61,-17.41M937.83,102.359c-9.77,0 -17.146,7.043 -17.146,17.411c0,10.366 7.91,17.41 17.145,17.41c7.111,0 12.097,-3.123 14.487,-8.306l-5.714,-3.324c-2.194,3.59 -5.25,5.25 -8.773,5.25c-5.647,0 -10.1,-4.253 -10.1,-11.03c0,-6.78 4.252,-11.033 10.1,-11.033c4.585,0 7.045,2.195 9.17,5.317l5.518,-3.122c-3.125,-5.317 -7.777,-8.573 -14.688,-8.573M963.477,130.069h-10.367v6.181h27.512v-6.18h-10.302v-26.78h-6.844zM987.66,123.692h19.604c-0.53,5.183 -4.518,8.106 -9.57,8.106c-5.049,0 -8.903,-3.521 -10.034,-8.106M997.694,108.274c5.118,0 7.244,2.26 9.371,5.183l5.382,-2.857c-3.056,-5.183 -7.574,-8.24 -14.885,-8.24c-9.103,0 -16.679,7.042 -16.679,17.41c0,10.3 7.576,17.41 17.012,17.41c9.57,0 15.95,-6.844 15.95,-16.48v-2.392h-26.316c0.464,-5.848 4.385,-10.035 10.165,-10.035M1026,148.079h4.652c0,-1.662 0.93,-2.857 2.525,-2.857c1.662,0 2.592,1.195 2.592,2.857h4.652c0,-4.187 -2.924,-7.178 -7.244,-7.178c-4.32,0 -7.177,2.991 -7.177,7.178M1018.424,136.25h6.579v-23.79l15.75,23.79h7.244v-32.96h-6.579v23.79l-15.75,-23.79h-7.244z" fill="#ffffff"></path><path d="M103.37,104.42l0.006,-0.002c0.146,-0.06 0.29,-0.124 0.439,-0.179c0.119,-0.043 0.282,-0.088 0.478,-0.131c1.74565,-0.54827 3.56332,-0.83307 5.393,-0.845h95.106l-62.377,62.543l-0.032,-0.033c-11.536,-11.465 -19.16,-19.04 -24.776,-24.639c-3.8685,-3.84852 -7.72021,-7.71389 -11.555,-11.596c-3.978,-3.968 -6.63,-6.611 -6.64,-6.624l-0.011,-0.01v-0.002c-1.94,-2.054 -3.13,-5.024 -3.13,-8.074c0,-4.788 2.934,-8.697 7.099,-10.408" fill="#ffffff"></path><path d="M96.27,114.82c0,3.05 1.19,6.02 3.13,8.074v0.002l0.011,0.01c0.011,0.013 2.662,2.656 6.64,6.624c3.16,3.204 6.565,6.621 11.554,11.596c5.618,5.6 13.241,13.173 24.777,24.638l0.033,0.034l11.241,11.173l0.224,0.223c18.673,18.565 45.258,45.014 84.233,83.851l-85.645,85.694l-48.488,-48.546c-14.492,-14.493 -12.532,-23.977 -12.532,-43.445v-133.19c0,-7.876 4.957,-14.552 11.921,-17.144c-4.165,1.711 -7.099,5.62 -7.099,10.408" fill="#ffffff"></path></g></g></g></g></g></svg>