<?xml version="1.0" encoding="UTF-8"?>
<!DOCTYPE svg PUBLIC "-//W3C//DTD SVG 1.1//EN" "http://www.w3.org/Graphics/SVG/1.1/DTD/svg11.dtd">
<!-- Creator: CorelDRAW -->
<svg xmlns="http://www.w3.org/2000/svg" xml:space="preserve" width="112.97mm" height="113.052mm" version="1.1" style="shape-rendering:geometricPrecision; text-rendering:geometricPrecision; image-rendering:optimizeQuality; fill-rule:evenodd; clip-rule:evenodd"
viewBox="0 0 570.42 570.83"
 xmlns:xlink="http://www.w3.org/1999/xlink"
 xmlns:xodm="http://www.corel.com/coreldraw/odm/2003">
 <defs>
  <style type="text/css">
   <![CDATA[
    .fil0 {fill:#7A7776}
   ]]>
  </style>
 </defs>
 <g id="Слой_x0020_1">
  <metadata id="CorelCorpID_0Corel-Layer"/>
  <path class="fil0" d="M-0 206.16c2.82,-5.16 7.33,-6.71 12.7,-5.32 6.78,1.76 13.74,3.31 20.12,6.09 31.91,13.87 62.44,8.32 86.83,-16.28 31.78,-32.04 63.51,-64.13 95.32,-96.13 4.43,-4.46 7.35,-9.42 6.3,-15.85 -1.07,-6.57 -4.77,-11.24 -11.21,-13.31 -6.64,-2.15 -12.36,-0.28 -17.41,4.36 -18.29,16.88 -36.62,33.71 -54.93,50.54 -6.43,5.91 -12.79,11.87 -19.3,17.71 -4.86,4.36 -9.73,4.37 -13.17,0.28 -3.16,-3.73 -2.44,-8.56 2.05,-12.71 25.01,-23.01 50.02,-46.02 75.06,-68.99 6.42,-5.88 14.01,-8.83 22.79,-8.8 20.06,0.07 40.11,0 60.17,0.03 6.91,0.01 10.89,3.2 10.74,8.46 -0.14,5.05 -4.08,8.17 -10.57,8.23 -9.84,0.07 -19.69,0.05 -29.53,0.08 -0.36,0 -0.71,0.19 -1.4,0.4 0.87,2.59 1.94,5.13 2.56,7.76 2.9,12.37 -0.14,23.23 -9.04,32.22 -33.43,33.8 -66.57,67.9 -100.57,101.12 -23.23,22.68 -51.77,29.12 -83.96,22.57 -9.64,42.14 -8.63,83.99 3.47,125.36 14.94,51.08 43.84,92.87 86,126.28 9.16,-10.74 18.36,-21.08 27.04,-31.84 10.13,-12.56 22.99,-20.08 38.78,-23.07 14.55,-2.75 29.02,-5.95 44.06,-9.06 0,-12.15 0.07,-24.18 -0.1,-36.2 -0.01,-1.16 -1.29,-2.61 -2.37,-3.4 -13.34,-9.73 -23.81,-21.65 -29.91,-37.26 -0.55,-1.39 -3.8,-2.43 -5.8,-2.44 -14.23,-0.11 -26.31,-5.23 -33.42,-17.55 -8.79,-15.25 -10.9,-31.32 0.05,-47.04 0.84,-1.21 0.59,-3.43 0.35,-5.1 -6.7,-46.4 7.48,-84.58 44.89,-113.39 13.76,-10.59 29.7,-16.63 46.71,-19.79 5.33,-0.99 9.67,1.73 10.62,6.48 0.93,4.62 -2.01,8.8 -7.48,9.86 -23.26,4.51 -42.76,15.39 -57.9,33.77 -18.22,22.1 -26.34,54.91 -19.73,81.01 5.19,0 10.56,0.19 15.88,-0.15 1.35,-0.08 3.08,-1.66 3.77,-2.99 6.95,-13.57 17.98,-19.81 33.05,-18.6 7.22,0.57 14.44,1.06 21.68,1.38 13.32,0.59 25.76,-2.5 37.21,-9.4 7.63,-4.59 15.09,-9.5 22.9,-13.75 18.71,-10.22 40.58,2.49 41.12,23.76 0.16,6.29 0.02,12.59 0.02,19.31l17.69 0c4.61,-25.72 0.29,-49.78 -13.85,-71.81 -14.1,-21.97 -34.21,-35.64 -59.64,-41.5 -1.62,-0.38 -3.27,-0.65 -4.89,-1.05 -5.28,-1.32 -8.25,-5.57 -7.12,-10.16 1.15,-4.7 5.42,-7.23 10.84,-6.1 4.71,0.98 9.43,2.05 14.02,3.48 53.65,16.7 86.99,71.01 77.59,126.54 -0.79,4.67 0.09,8.01 2.8,12.08 14.86,22.32 -3.18,58.4 -30.27,60.03 -8.06,0.49 -12.18,2.74 -15.28,10.35 -4.94,12.11 -14.2,21.21 -24.79,28.74 -3.05,2.16 -4.15,4.59 -4.07,8.32 0.25,10.73 0.09,21.48 0.09,32.47 17.06,3.59 33.67,7.18 50.37,10.41 1.62,0.31 4.1,-1.26 5.49,-2.64 17.62,-17.57 35.45,-34.94 52.56,-53.01 24.59,-25.96 54.02,-36.13 90.21,-29.29 1.38,-7.75 3.57,-15.47 3.99,-23.28 0.98,-17.93 1.02,-35.92 1.68,-53.88 0.1,-2.79 0.7,-6.42 2.5,-8.02 1.96,-1.74 6.34,-2.95 8.36,-1.91 2.57,1.33 5.13,5.03 5.44,7.95 2.75,26.62 0.79,53.03 -5.12,79.1 -1.04,4.59 -0.19,7.05 4.31,8.17 4.66,1.14 9.27,2.57 13.99,3.39 5.96,1.04 9.46,4.34 9.06,9.23 -0.41,4.98 -4.5,8.44 -10.39,7.36 -7.41,-1.37 -14.99,-2.99 -21.86,-5.96 -32.94,-14.22 -62.85,-8.71 -88.11,16.8 -31.49,31.8 -62.97,63.61 -94.53,95.34 -4.44,4.47 -7.36,9.4 -6.36,15.83 1.01,6.33 4.5,10.94 10.65,13.15 6.57,2.36 12.44,0.87 17.51,-3.78 14.52,-13.29 28.99,-26.62 43.49,-39.94 10.25,-9.43 20.36,-19.01 30.85,-28.17 2.26,-1.99 5.91,-3.56 8.77,-3.32 2.25,0.19 5.07,3.08 6.14,5.44 1.71,3.75 -0.33,7.06 -3.33,9.79 -14.4,13.14 -28.73,26.38 -43.08,39.56 -9.85,9.05 -19.88,17.9 -29.51,27.18 -8.25,7.98 -17.77,11.27 -29.21,11.18 -38.8,-0.28 -77.62,-0.18 -116.43,-0.14 -15.27,0.01 -26.36,9.37 -28.38,23.68 -0.77,5.44 0.66,7.33 6.05,7.33 54.6,0.03 109.19,0.18 163.78,-0.25 5.51,-0.04 11.59,-2.76 16.4,-5.81 18.98,-11.99 37.56,-24.61 56.3,-36.98 1.54,-1.02 3.07,-2.11 4.75,-2.89 4.12,-1.92 7.74,-0.87 10.3,2.73 2.6,3.66 2.09,7.43 -1.04,10.62 -1.27,1.3 -2.93,2.25 -4.48,3.27 -18.89,12.48 -37.85,24.84 -56.65,37.46 -8.78,5.9 -18.18,8.69 -28.78,8.65 -52.37,-0.14 -104.74,-0.59 -157.1,0.23 -18.61,0.28 -30.87,-11.76 -24.96,-32.25 0.21,-0.7 0.28,-1.41 0.54,-2.66 -64.26,-22.75 -114.32,-62.94 -147.74,-122.58 -33.48,-59.74 -41.05,-123.46 -26.37,-191.19 -5.68,-1.6 -11.2,-3.73 -16.92,-4.59 -4.53,-0.69 -8.1,-2.11 -10.71,-5.83l0 -5.57zm366.12 236.68l-1.08 -1.77c-14.16,-2.89 -28.3,-5.87 -42.47,-8.57 -1.6,-0.31 -3.6,0.61 -5.18,1.39 -21.42,10.61 -42.79,10.48 -64.26,0.07 -2.14,-1.04 -5.01,-1.49 -7.34,-1.06 -14.4,2.7 -28.71,5.79 -43.08,8.64 -8.89,1.77 -17.58,4.52 -23.78,11.24 -11.02,11.96 -21.37,24.55 -32.27,37.19 19.33,13.19 39.61,22.98 61.2,30.04 1.35,0.45 3.72,-0.27 4.79,-1.3 9.69,-9.32 21.35,-12.79 34.54,-12.72 27.47,0.17 54.95,0.06 82.42,0.06l6.15 0c-0.15,-1.04 -0.12,-1.62 -0.32,-2.1 -6.48,-15.59 -3.12,-28.98 8.96,-40.46 7.25,-6.88 14.47,-13.78 21.71,-20.66zm-19.14 -160.56c0.26,0 0.52,0 0.78,0 0,-11.69 0.08,-23.38 -0.02,-35.06 -0.09,-10.71 -8.65,-15.42 -17.97,-9.98 -4.33,2.52 -8.58,5.15 -12.82,7.82 -10.69,6.79 -21.64,13.71 -34.44,14.75 -13.95,1.12 -28.07,0.71 -42.1,0.26 -11.17,-0.35 -17.59,5.03 -17.65,16.3 -0.06,12.25 -0.06,24.5 0,36.74 0.11,18.6 7.58,33.75 21.86,45.53 5.87,4.84 11.91,9.46 18,14.01 13.88,10.32 31.14,10.42 44.99,0.22 6.28,-4.61 12.41,-9.44 18.45,-14.36 11.37,-9.26 19.31,-21.05 20.65,-35.66 1.23,-13.42 0.26,-27.04 0.26,-40.57zm-61.76 65.76c-7.11,-2.25 -14.06,-3.96 -20.63,-6.66 -4.96,-2.04 -6.36,-6.77 -4.4,-11.04 2,-4.37 6.79,-6.14 11.7,-3.74 8.95,4.38 17.68,4.43 26.64,0.05 4.93,-2.42 9.76,-0.72 11.77,3.59 2.06,4.39 0.48,9.27 -4.77,11.39 -6.4,2.59 -13.21,4.21 -20.31,6.4zm-79.31 -66.05c-6.12,0 -11.64,-0.14 -17.16,0.04 -4.61,0.14 -7.15,2.69 -7.21,7.38 -0.06,3.7 -0.18,7.42 0.09,11.11 0.91,12.31 12.73,21.41 24.28,18.78l0 -37.31zm158.75 0.02l0 37.75c10.86,0.91 20.15,-4.17 22.81,-13.85 1.62,-5.89 1.47,-12.45 1.02,-18.63 -0.15,-1.89 -3.8,-4.72 -6.13,-5.03 -5.62,-0.73 -11.39,-0.24 -17.7,-0.24zm-104.99 109.55c0,8.2 -0.14,16.31 0.14,24.42 0.05,1.37 1.59,3.29 2.92,3.91 14.98,6.93 30.08,6.89 45.07,0.01 1.32,-0.6 2.84,-2.56 2.9,-3.92 0.26,-8.11 0.13,-16.22 0.13,-24.43 -24.59,6.57 -24.59,6.57 -51.15,0.02zm94.64 -391.56c14.43,6.57 18.17,13.69 15.53,29.59 -0.2,1.25 -0.45,2.49 -0.6,3.38 11.8,5.22 23.62,9.68 34.73,15.49 69.99,36.6 115.72,92.98 136.78,169.22 0.4,1.43 0.82,2.87 0.99,4.34 0.6,4.89 -1.95,8.86 -6.34,9.6 -4.66,0.79 -8,-1.16 -9.56,-5.65 -0.97,-2.8 -1.49,-5.74 -2.37,-8.57 -24.92,-81.15 -77.01,-136.78 -156.46,-166.81 -4.37,-1.66 -7.22,-1.22 -10.59,2.24 -5.97,6.11 -13.53,10.02 -22.09,10.76 -9.21,0.77 -18.51,0.88 -27.77,0.77 -5.15,-0.07 -8.3,-4.02 -8.04,-8.79 0.24,-4.52 3.42,-7.58 8.5,-7.72 6.68,-0.17 13.37,0.08 20.04,-0.1 14.1,-0.39 24.76,-9.9 26.75,-23.63 0.79,-5.49 -0.62,-7.36 -5.98,-7.37 -54.58,-0.02 -109.17,-0.18 -163.74,0.28 -5.67,0.05 -11.94,2.89 -16.85,6.08 -40.74,26.51 -81.04,53.68 -121.92,79.99 -9.51,6.13 -20.6,9.85 -31.09,14.38 -5.5,2.37 -10.45,1.11 -14.22,-3.8l0 -6.69c2.7,-1.74 5.25,-3.81 8.14,-5.16 9.5,-4.42 19.84,-7.44 28.55,-13.04 37.21,-23.93 73.85,-48.76 110.95,-72.86 9.35,-6.07 19.66,-10.66 29.52,-15.93l177.15 0zm207.24 451.99c4.69,0.07 7.72,2.27 8.64,6.59 0.92,4.37 -0.99,8.39 -5.18,9.23 -21.69,4.41 -37.87,18.82 -55.84,29.98 -1.88,1.18 -3.66,2.59 -5.67,3.46 -4.08,1.76 -7.73,0.81 -10.29,-2.84 -2.59,-3.7 -2.48,-8.11 1.13,-10.46 20.2,-13.18 38.65,-29.57 63.03,-35.29 1.44,-0.33 2.92,-0.47 4.18,-0.67zm-84.6 -272.64c2.59,-0.01 5.19,-0.14 7.78,0.02 4.74,0.31 7.59,2.87 7.94,7.64 0.37,4.82 -2.24,8.21 -6.79,8.66 -6.22,0.6 -12.6,0.56 -18.83,-0.05 -4.31,-0.42 -6.87,-3.82 -6.68,-8.26 0.21,-4.63 2.93,-7.55 7.69,-7.94 2.94,-0.25 5.92,-0.05 8.89,-0.06zm-337.57 171.93c0,2.59 0.14,5.19 -0.04,7.78 -0.31,4.87 -3.62,8.27 -8.09,8.16 -4.71,-0.14 -7.92,-2.77 -8.3,-7.38 -0.48,-5.89 -0.48,-11.88 0.01,-17.77 0.38,-4.61 3.64,-7.23 8.33,-7.35 4.44,-0.11 7.75,3.35 8.05,8.22 0.17,2.77 0.04,5.56 0.04,8.35zm-36.76 19.79c2.78,0 5.57,-0.16 8.33,0.03 4.76,0.33 8.3,3.86 8.09,8.22 -0.22,4.68 -2.83,7.88 -7.48,8.22 -5.9,0.45 -11.89,0.5 -17.77,-0.03 -4.57,-0.41 -7.29,-3.57 -7.13,-8.4 0.16,-4.78 2.93,-7.5 7.63,-7.97 2.75,-0.28 5.55,-0.06 8.33,-0.06 0,0 0,-0.01 0,-0.01zm56.77 0c2.77,0 5.57,-0.16 8.33,0.03 4.75,0.34 8.31,3.89 8.08,8.24 -0.25,4.64 -2.87,7.86 -7.52,8.21 -5.89,0.42 -11.88,0.49 -17.76,-0.05 -4.59,-0.42 -7.29,-3.63 -7.13,-8.43 0.17,-4.75 2.95,-7.5 7.66,-7.94 2.75,-0.26 5.55,-0.06 8.33,-0.06l0 -0.01zm260.88 -191.73c2.59,0.01 5.19,-0.13 7.77,0.03 4.75,0.31 7.57,2.95 7.9,7.68 0.34,4.79 -2.28,8.16 -6.84,8.63 -6.05,0.61 -12.25,0.57 -18.3,0.05 -4.59,-0.39 -7.19,-3.73 -7.23,-8.44 -0.05,-4.4 3.5,-7.67 8.34,-7.93 2.78,-0.15 5.56,-0.02 8.35,-0.02zm19.72 -20.42c0,-2.6 -0.08,-5.2 0.02,-7.78 0.17,-4.83 2.97,-7.69 7.54,-8.12 4.66,-0.44 8.26,2.19 8.72,6.77 0.63,6.22 0.63,12.62 -0.01,18.85 -0.46,4.57 -3.96,7.11 -8.72,6.69 -4.72,-0.41 -7.32,-3.3 -7.52,-8.07 -0.12,-2.77 -0.02,-5.56 -0.02,-8.33zm-0.01 56.97c0,-2.59 -0.12,-5.19 0.03,-7.79 0.26,-4.89 3.46,-8.41 7.85,-8.41 4.71,0 8.07,2.58 8.48,7.16 0.53,6.06 0.55,12.25 -0.04,18.3 -0.43,4.58 -3.76,7.21 -8.56,6.92 -4.75,-0.3 -7.42,-3.07 -7.72,-7.84 -0.18,-2.76 -0.03,-5.56 -0.03,-8.33l-0.02 0zm-300.61 191.66c0,2.78 0.13,5.57 -0.02,8.34 -0.26,4.77 -2.93,7.61 -7.64,7.96 -4.76,0.36 -8.21,-2.25 -8.64,-6.82 -0.6,-6.23 -0.56,-12.61 0.05,-18.85 0.42,-4.33 3.87,-6.88 8.27,-6.68 4.59,0.22 7.56,2.91 7.93,7.71 0.21,2.76 0.04,5.56 0.04,8.33l0.01 0z"/>
 </g>
</svg>
