<svg width="32" height="33" viewBox="0 0 32 33" fill="none" xmlns="http://www.w3.org/2000/svg">
<g clip-path="url(#clip0_1_787)">
<rect width="32" height="33" fill="#483F3A"/>
<rect x="1" y="1" width="30" height="30" rx="15" fill="white"/>
<path d="M16 0.515625C7.16129 0.515625 0 7.66992 0 16.5C0 25.3301 7.16129 32.4844 16 32.4844C24.8387 32.4844 32 25.3301 32 16.5C32 7.66992 24.8387 0.515625 16 0.515625ZM23.4194 11.3889C23.1806 13.9154 22.1355 20.0514 21.6065 22.8809C21.3806 24.0797 20.9419 24.4793 20.5161 24.518C19.5871 24.6018 18.8839 23.9057 17.9806 23.3127C16.5742 22.391 15.7742 21.8174 14.4129 20.915C12.8323 19.8773 13.8581 19.3037 14.7548 18.3691C14.9935 18.1242 19.0839 14.4053 19.1613 14.0701C19.1742 14.025 19.1806 13.8703 19.0839 13.7865C18.9871 13.7027 18.8516 13.735 18.7548 13.7543C18.6129 13.7844 16.3634 15.2689 12.0065 18.208C11.3699 18.6463 10.7914 18.859 10.271 18.8461C9.69677 18.8332 8.6 18.5238 7.78064 18.2596C6.78064 17.9373 5.98065 17.7633 6.05161 17.209C6.08602 16.9211 6.48387 16.6268 7.24516 16.326C11.9075 14.2979 15.0172 12.9594 16.5742 12.3105C21.0194 10.4672 21.9419 10.1449 22.5419 10.132C22.6774 10.132 22.9677 10.1643 23.1613 10.3189C23.2876 10.4299 23.3681 10.5838 23.3871 10.7508C23.422 10.9616 23.4328 11.1756 23.4194 11.3889Z" fill="#483F3A"/>
</g>
<defs>
<clipPath id="clip0_1_787">
<rect width="32" height="33" fill="white"/>
</clipPath>
</defs>
</svg>
