<svg width="92" height="91" viewBox="0 0 92 91" fill="none" xmlns="http://www.w3.org/2000/svg">
<path d="M46 0C20.5887 0 0 20.3649 0 45.5C0 70.6351 20.5887 91 46 91C71.4113 91 92 70.6351 92 45.5C92 20.3649 71.4113 0 46 0Z" fill="#483F3A"/>
<path d="M32.0467 28.1111C32.2 30.3856 32.5833 32.6089 33.1967 34.73L30.13 37.7967C29.0822 34.73 28.4178 31.4844 28.1878 28.1111H32.0467ZM57.2444 58.8289C59.4167 59.4422 61.64 59.8256 63.8889 59.9789V63.7867C60.5156 63.5567 57.27 62.8922 54.1778 61.87L57.2444 58.8289ZM34.5 23H25.5556C24.15 23 23 24.15 23 25.5556C23 49.5522 42.4478 69 66.4444 69C67.85 69 69 67.85 69 66.4444V57.5256C69 56.12 67.85 54.97 66.4444 54.97C63.2756 54.97 60.1833 54.4589 57.3211 53.5133C57.0681 53.4188 56.7988 53.3754 56.5289 53.3856C55.8644 53.3856 55.2256 53.6411 54.7144 54.1267L49.0922 59.7489C41.8484 56.0442 35.9558 50.1516 32.2511 42.9078L37.8733 37.2856C38.5889 36.57 38.7933 35.5733 38.5122 34.6789C37.5445 31.7346 37.0527 28.6548 37.0556 25.5556C37.0556 24.15 35.9056 23 34.5 23Z" fill="white"/>
</svg>
