<?xml version="1.0" encoding="UTF-8"?>
<!DOCTYPE svg PUBLIC "-//W3C//DTD SVG 1.1//EN" "http://www.w3.org/Graphics/SVG/1.1/DTD/svg11.dtd">
<!-- Creator: CorelDRAW -->
<svg xmlns="http://www.w3.org/2000/svg" xml:space="preserve" width="116.159mm" height="116.139mm" version="1.1" style="shape-rendering:geometricPrecision; text-rendering:geometricPrecision; image-rendering:optimizeQuality; fill-rule:evenodd; clip-rule:evenodd"
viewBox="0 0 751.17 751.04"
 xmlns:xlink="http://www.w3.org/1999/xlink"
 xmlns:xodm="http://www.corel.com/coreldraw/odm/2003">
 <defs>
  <style type="text/css">
   <![CDATA[
    .fil0 {fill:#7A7776}
   ]]>
  </style>
 </defs>
 <g id="Слой_x0020_1">
  <metadata id="CorelCorpID_0Corel-Layer"/>
  <path class="fil0" d="M16.01 229.41c-6.55,0.12 -11.84,-1.42 -16.01,-6.48l0 -203.87c3.96,-8.73 10.32,-15.09 19.06,-19.06l203.86 0c5.37,4.36 6.64,10.03 6.52,16.75 -0.32,18.8 -0.19,37.61 -0.02,56.42 0.03,2.66 1.31,5.29 2.02,7.94 2.3,-1.14 4.85,-1.95 6.81,-3.51 16.94,-13.55 40.32,-14.53 57.96,-2.27 17.4,12.1 24.81,34.41 18.08,54.43 -6.88,20.5 -26.21,33.92 -47.71,32.91 -11.08,-0.53 -20.82,-4.62 -29.4,-11.69 -1.67,-1.38 -4.18,-1.72 -6.3,-2.53 -0.53,2.03 -1.48,4.08 -1.49,6.12 -0.12,19.54 -0.05,39.08 -0.08,58.62 -0.01,13.26 -2.78,16.08 -15.73,16.1 -20.03,0.03 -40.05,-0.2 -60.08,0.09 -11.31,0.16 -20.39,-3.51 -25.17,-14.03 -4.75,-10.51 -2.75,-20.3 4.94,-29.18 10.48,-12.1 9.84,-27.29 -1.14,-37.32 -9.99,-9.11 -25.45,-8.98 -35.29,0.29 -10.56,9.96 -10.85,25.38 -0.43,37.44 7.48,8.66 9.21,18.29 4.69,28.56 -4.55,10.31 -13.21,14.31 -24.28,14.21 -20.28,-0.17 -40.55,-0.26 -60.83,0.07zm14.11 -207.53c-6.63,-0.03 -8.24,2.44 -8.23,8.61 0.19,56.68 0.1,113.36 0.13,170.04 0,2.12 0.23,4.22 0.35,5.95l60.43 0c-2.42,-3.68 -3.78,-6.1 -5.45,-8.24 -9.78,-12.59 -12.91,-26.71 -9.03,-42.09 4.84,-19.28 21.04,-33.43 40.19,-35.74 19.62,-2.37 38.46,7.12 48.1,24.22 9.62,17.08 7.8,37.86 -4.58,53.61 -1.78,2.25 -3.1,4.88 -5.32,8.46l60.64 0c0,-3.25 -0.02,-5.91 0,-8.55 0,-15.64 -0.27,-31.29 0.09,-46.91 0.36,-16.7 12.94,-27.76 29.06,-24.73 5.82,1.1 11.23,5.35 16.37,8.83 9.17,6.18 18.58,7.44 28.27,2.12 9.66,-5.29 14.38,-13.92 13.49,-24.9 -0.86,-10.62 -6.61,-18.3 -16.7,-22.04 -10.03,-3.73 -19.24,-1.8 -27.16,5.45 -8.66,7.92 -18.55,9.78 -29.15,5.13 -10.66,-4.68 -14.4,-13.84 -14.31,-25.04 0.1,-13.19 0.03,-26.39 0.03,-39.57l0 -14.06c-2.65,-0.17 -4.55,-0.41 -6.45,-0.41 -56.92,-0.01 -113.85,0.08 -170.78,-0.13zm535.09 111.74c11.08,9.62 25.16,9.46 35.21,0.17 9.82,-9.09 11.24,-23.84 3.32,-34.6 -9,-12.22 -26.31,-14.16 -38.19,-3.76 -7.12,6.26 -14.82,9.17 -24.18,7.49 -10.55,-1.9 -19.14,-10.25 -19.38,-20.92 -0.56,-23.69 -0.53,-47.42 -0.03,-71.11 0.07,-3.68 3.93,-7.26 6.04,-10.9l98.26 0c5.25,3.46 9.19,7.76 6.8,14.53 -2.35,6.68 -8.03,7.58 -14.34,7.53 -24.65,-0.14 -49.31,-0.06 -75.12,-0.06l0 24.27c0,9.53 -0.09,19.06 0.07,28.59 0.03,2.03 0.95,4.04 1.46,6.05 2.12,-0.83 4.62,-1.21 6.3,-2.57 13.3,-10.8 28.23,-14.38 44.63,-9.58 19.77,5.79 31.24,19.53 34.34,39.68 2.98,19.41 -7,38.5 -24.06,48.14 -16.88,9.51 -37.53,7.89 -53.04,-4.08 -2.48,-1.9 -5.23,-3.45 -9.21,-6.07l0 60.86 24.08 0c9.53,0 19.06,0.13 28.59,-0.03 11.43,-0.2 20.96,3.39 25.85,14.3 4.86,10.87 2.5,20.82 -5.51,29.75 -7.36,8.17 -9.1,17.74 -4.58,27.91 4.37,9.81 12.28,15.12 22.97,15.48 10.42,0.36 18.36,-4.41 23.47,-13.48 5.53,-9.79 4.08,-21.23 -4.09,-30.48 -7.98,-9.05 -9.78,-19.09 -4.72,-29.85 4.66,-9.91 13.48,-13.6 24.06,-13.6 17.84,0 35.67,0 54.72,0l0 -7.99c0,-55.98 0.02,-111.93 0,-167.91 0,-9.36 -0.03,-9.37 -9.43,-9.39 -13.7,-0.02 -27.38,-0.09 -41.07,0.04 -6.2,0.06 -11.84,-0.53 -14.46,-7.31 -2.64,-6.93 1.61,-10.92 6.29,-14.74l61.6 0c14.82,6.61 19.47,18.13 19.31,34.05 -0.61,59.88 -0.23,119.77 -0.25,179.66 0,12.44 -3.11,15.56 -15.58,15.57 -19.31,0.03 -38.62,-0.06 -57.94,0.09 -2.49,0.02 -4.97,1.11 -7.45,1.71 1.01,2.3 1.6,4.94 3.11,6.84 16.1,20.23 14.49,48.39 -3.92,65.78 -18.23,17.26 -46.82,17.47 -65.24,0.49 -19.12,-17.65 -20.99,-45.42 -4.59,-66.18 1.53,-1.94 2.22,-4.56 3.3,-6.87 -2.47,-0.61 -4.94,-1.74 -7.41,-1.77 -19.81,-0.15 -39.6,-0.03 -59.41,-0.1 -10.75,-0.03 -14.12,-3.32 -14.18,-13.93 -0.09,-20.54 0.17,-41.08 -0.1,-61.6 -0.14,-11.27 3.35,-20.44 13.9,-25.29 10.83,-4.99 20.74,-2.68 29.79,5.19zm-409.03 479.6c-10.06,5.23 -14.86,13.99 -13.9,25.35 0.91,10.73 6.77,18.25 16.84,21.92 10.37,3.78 19.5,1.16 27.75,-6.12 9.62,-8.5 22.72,-9.28 32.38,-2.29 6.32,4.58 9.9,10.83 9.96,18.68 0.13,22.73 0.2,45.46 0.03,68.19 -0.06,8.08 -4.24,11.93 -12.52,11.94 -37.89,0.08 -75.77,0.08 -113.66,0 -7.54,-0.02 -12.12,-4.27 -12.25,-10.72 -0.14,-6.77 4.55,-11.18 12.49,-11.2 32.76,-0.08 65.51,-0.03 98.27,-0.05 1.65,-0 3.31,-0.2 5.17,-0.32l0 -60.57c-3.84,2.51 -6.41,3.93 -8.71,5.73 -16.72,13.14 -40,13.92 -57.41,1.84 -17.34,-12.03 -24.82,-34.51 -18.11,-54.5 6.75,-20.14 25.8,-33.53 47.07,-32.86 10.83,0.35 20.48,4.06 28.96,10.89 2.09,1.68 4.57,2.86 8.82,5.47l0 -60.56c-2.98,-0.13 -5.54,-0.36 -8.11,-0.38 -15.16,-0.03 -30.32,-0.1 -45.47,0.02 -11.49,0.1 -20.92,-3.73 -25.63,-14.68 -4.58,-10.6 -2.35,-20.41 5.48,-29.12 7.54,-8.39 9.39,-18.11 4.6,-28.53 -4.37,-9.49 -12.1,-14.63 -22.47,-15.1 -10.76,-0.48 -18.86,4.43 -24.01,13.83 -5.27,9.63 -3.05,20.35 3.82,30.07 3.86,5.48 7.18,12.53 7.54,19.05 0.8,14.21 -10.06,24.06 -25.36,24.37 -15.63,0.32 -31.29,0.09 -46.93,0.09l-8.83 0 0 7.7c0,55.98 0,111.94 0.01,167.91 0,9.66 0.02,9.66 9.88,9.68 5.86,0.01 11.74,-0.14 17.59,0.05 6.92,0.23 11.57,4.57 11.78,10.6 0.24,6.26 -4.63,11.11 -11.83,11.29 -8.3,0.2 -16.62,0.27 -24.92,-0.05 -12.54,-0.48 -19.37,-8.71 -24.5,-18.96l0 -203.87c4.15,-5.09 9.47,-6.59 16.02,-6.48 19.05,0.35 38.13,0.2 57.19,0.03 2.65,-0.03 5.28,-1.38 7.91,-2.11 -1.16,-2.28 -1.96,-4.84 -3.53,-6.8 -12.2,-15.23 -14.62,-36.05 -5.23,-52.93 10.1,-18.22 26.06,-26.67 46.75,-25.37 18.83,1.19 35.72,15.01 41.36,33.48 5.11,16.68 1.62,31.78 -9.15,45.4 -1.4,1.78 -2.08,4.15 -3.07,6.24 2.38,0.72 4.77,2.05 7.15,2.08 19.8,0.16 39.6,0.06 59.4,0.12 11.21,0.03 14.47,3.22 14.52,14.34 0.07,20.29 -0.19,40.58 0.1,60.86 0.16,11.57 -3.39,20.95 -14.28,25.8 -10.89,4.84 -20.8,2.32 -29.74,-5.66 -8.7,-7.77 -18.83,-9.19 -29.22,-3.78zm304.68 -132.02c-2.72,-1.23 -7.06,-0.99 -9.82,0.34 -7.43,3.58 -14.27,8.42 -21.64,12.16 -4.14,2.1 -5.63,4.78 -5.48,9.21 0.25,7.33 0.14,14.67 0.04,21.99 -0.2,15.8 -10.54,27.12 -26.21,27.67 -14.88,0.51 -29.81,0.53 -44.69,-0.01 -15.67,-0.56 -25.92,-11.89 -26.11,-27.75 -0.07,-7.34 -0.19,-14.67 0.06,-21.99 0.14,-4.49 -1.48,-7.07 -5.57,-9.17 -7.37,-3.74 -14.2,-8.58 -21.64,-12.16 -2.75,-1.33 -7.08,-1.48 -9.83,-0.25 -6.65,2.98 -12.75,7.17 -19.15,10.72 -14.91,8.3 -29.75,4.49 -38.41,-10.07 -7.12,-11.94 -14.11,-23.97 -20.87,-36.13 -8.01,-14.36 -3.8,-29.34 10.4,-37.79 6.29,-3.74 12.6,-7.45 19.07,-10.89 4.3,-2.28 5.44,-5.38 5.13,-10.16 -0.51,-7.76 -0.44,-15.6 0.03,-23.36 0.26,-4.52 -0.95,-7.41 -4.91,-9.56 -6.65,-3.61 -13.23,-7.36 -19.7,-11.27 -13.79,-8.32 -17.94,-23.26 -10.13,-37.31 6.87,-12.38 13.99,-24.62 21.26,-36.76 8.45,-14.15 23.35,-17.94 37.9,-9.84 6.39,3.56 12.78,7.15 18.99,11.02 3.85,2.38 6.96,2.12 10.76,-0.35 6.73,-4.37 13.65,-8.54 20.85,-12.09 4.43,-2.19 5.99,-5.01 5.82,-9.73 -0.28,-7.33 -0.16,-14.67 -0.05,-21.99 0.24,-15.39 10.51,-26.71 25.8,-27.28 15.13,-0.56 30.3,-0.57 45.43,0 15.26,0.58 25.53,11.93 25.76,27.32 0.12,7.58 -0.45,15.2 0.27,22.7 0.29,2.98 2.57,6.67 5.07,8.38 7.03,4.79 14.47,9.08 22.1,12.83 2.56,1.27 6.66,1.45 9.21,0.26 6.83,-3.17 13.16,-7.43 19.77,-11.11 14.52,-8.07 29.43,-4.24 37.89,9.91 7.15,11.94 14.19,23.95 20.83,36.17 2.38,4.38 3.44,9.49 4.3,11.97 -0.41,12.34 -4.53,20 -12.88,25.13 -6.85,4.21 -13.79,8.35 -20.88,12.13 -4.08,2.2 -5.11,5.08 -4.89,9.54 0.42,8.01 -0.32,16.1 0.29,24.09 0.24,3.06 2.1,6.96 4.52,8.67 6.33,4.52 13.43,7.92 20.1,12 13.41,8.2 17.54,22.99 9.98,36.78 -6.93,12.63 -14.16,25.09 -21.59,37.43 -8.29,13.75 -23.2,17.52 -37.41,9.71 -6.63,-3.64 -12.92,-7.98 -19.78,-11.1zm-42.29 -6.66c7.37,-3.74 14.53,-7.98 21.49,-12.44 10.04,-6.45 20.09,-6.86 30.41,-1.05 6.81,3.83 13.58,7.72 20.3,11.69 3.98,2.34 6.86,1.5 9.11,-2.44 6.54,-11.45 13.08,-22.9 19.73,-34.27 2.47,-4.23 1.82,-7.19 -2.59,-9.61 -6.86,-3.74 -13.6,-7.69 -20.31,-11.69 -10.23,-6.1 -14.56,-15.19 -14.01,-27.03 0.36,-8.03 0.44,-16.08 0.02,-24.09 -0.64,-12.15 3.73,-21.42 14.3,-27.6 6.52,-3.82 13.16,-7.47 19.6,-11.42 1.91,-1.17 3.39,-3.04 4.93,-4.47 -0.63,-1.97 -0.8,-3.23 -1.39,-4.26 -6.93,-12.06 -13.7,-24.24 -21.15,-35.96 -1.05,-1.65 -6.17,-2.31 -8.44,-1.29 -6.84,3.13 -13.2,7.34 -19.78,11.08 -10.55,6.05 -20.79,5.6 -31.05,-1.04 -6.74,-4.36 -13.68,-8.47 -20.84,-12.08 -11.17,-5.63 -16.9,-14.35 -16.92,-26.84 0,-7.57 -0.1,-15.15 0.03,-22.72 0.08,-4.63 -2.09,-6.81 -6.58,-6.81 -13.19,-0.03 -26.38,0 -39.57,-0.03 -4.87,-0.02 -7.09,2.21 -6.97,7.19 0.17,7.57 0.09,15.14 0.03,22.72 -0.12,12.16 -5.69,20.76 -16.58,26.28 -7.15,3.64 -14.15,7.69 -20.86,12.08 -10.48,6.84 -20.86,7.38 -31.66,1.04 -6.52,-3.85 -13.16,-7.47 -19.68,-11.3 -3.98,-2.34 -6.83,-1.52 -9.09,2.46 -6.54,11.46 -13.1,22.88 -19.75,34.27 -2.47,4.22 -1.82,7.16 2.61,9.58 6.87,3.73 13.6,7.7 20.31,11.71 10.23,6.1 14.53,15.2 13.99,27.05 -0.36,8.01 -0.42,16.08 -0.01,24.09 0.61,12.13 -3.76,21.4 -14.31,27.6 -6.52,3.83 -13,7.76 -19.66,11.33 -4.77,2.54 -5.41,5.56 -2.74,10.09 6.58,11.14 13,22.37 19.37,33.62 2.42,4.3 5.36,5.15 9.62,2.59 6.7,-4.01 13.51,-7.85 20.3,-11.67 10.1,-5.67 19.94,-5.16 29.75,0.99 7.22,4.53 14.56,8.93 22.13,12.82 10.63,5.47 16.04,13.92 16.24,25.75 0.13,7.82 0.13,15.64 0,23.45 -0.07,4.63 2.09,6.81 6.58,6.81 13.19,0.03 26.39,0 39.57,0.03 4.86,0.02 7.07,-2.24 6.97,-7.21 -0.17,-7.56 -0.09,-15.15 -0.03,-22.72 0.1,-12.16 5.67,-20.74 16.56,-26.28zm-43.22 -184.14c46.95,-0.05 85.27,38.34 85.18,85.3 -0.09,46.58 -38.36,84.78 -84.95,84.83 -46.9,0.05 -85.26,-38.37 -85.17,-85.31 0.07,-46.54 38.36,-84.78 84.94,-84.82zm-0.13 148.11c34.94,0.1 63.43,-28.42 63.3,-63.36 -0.13,-34.59 -28.52,-62.79 -63.17,-62.74 -34.61,0.04 -62.9,28.37 -62.93,62.97 -0.03,34.59 28.26,63.02 62.8,63.12zm0.67 -102.64c21.77,0.17 39.35,18.14 39.18,40 -0.19,21.75 -18.19,39.37 -40.03,39.18 -21.76,-0.19 -39.34,-18.15 -39.16,-40.01 0.17,-21.78 18.13,-39.35 40.01,-39.16zm-0.32 57.14c9.65,-0.06 17.62,-8.2 17.47,-17.85 -0.16,-9.65 -8.39,-17.52 -18.04,-17.26 -9.36,0.25 -17.04,8.11 -17.09,17.47 -0.03,9.65 8.03,17.7 17.66,17.64zm364.43 128.78c7.31,0.07 10.87,4.55 10.9,12.72 0.09,22.98 0.03,45.95 0.03,68.93 0,39.35 0.02,78.69 0,118.04 -0.01,19.24 -10.16,29.43 -29.34,29.43 -61.59,0.02 -123.18,0.02 -184.76,0 -11.86,-0 -15.19,-3.32 -15.22,-15.23 -0.04,-19.31 -0.01,-38.61 -0.01,-57.92l0 -10.09c-4.33,2.72 -6.96,4.06 -9.22,5.85 -16.99,13.46 -40.47,14.23 -57.99,1.81 -17.09,-12.12 -24.38,-34.1 -17.89,-53.91 6.74,-20.51 25.98,-34.02 47.56,-33.18 11.11,0.43 20.86,4.49 29.47,11.55 1.72,1.41 4.18,1.9 6.3,2.82 0.6,-2.25 1.69,-4.49 1.71,-6.73 0.13,-19.79 0.05,-39.6 0.09,-59.39 0.05,-11.71 3.15,-14.82 14.75,-14.85 20.29,-0.05 40.58,0.22 60.86,-0.09 11.3,-0.18 20.41,3.33 25.27,13.87 5,10.84 2.65,20.73 -5.21,29.78 -9.78,11.28 -9.43,25.74 0.34,35.74 9.34,9.56 24.1,10.55 34.67,2.34 11.96,-9.31 13.35,-26.22 2.74,-38.3 -6.11,-6.93 -8.67,-14.55 -7.04,-23.6 1.96,-10.85 10.58,-19.3 21.62,-19.5 23.46,-0.43 46.93,-0.32 70.39,-0.1zm-11.07 29.77l0 -7.31 -60.67 0c2.19,3.55 3.41,5.99 5.06,8.1 10,12.79 13.26,27.08 9.17,42.74 -5.06,19.36 -21.24,33.3 -40.43,35.45 -19.69,2.19 -38.43,-7.43 -47.94,-24.62 -9.47,-17.15 -7.5,-37.76 5.04,-53.58 1.67,-2.09 2.85,-4.57 5.01,-8.11l-60.58 0c0,3.01 0,5.64 0,8.26 0,15.64 0.25,31.3 -0.08,46.93 -0.36,17.04 -13.4,28.39 -29.59,24.94 -5.82,-1.23 -11.17,-5.54 -16.29,-9.09 -11.08,-7.72 -25.57,-6.49 -34.63,3.39 -9.03,9.84 -9.2,24.75 -0.38,34.75 8.71,9.88 24.56,12.53 34.34,3.73 9.98,-8.99 21.03,-10.32 33.26,-9.73 9.56,0.47 13.24,3.89 13.31,13.63 0.15,19.8 0.05,39.6 0.05,59.39l0 8.49 8.06 0c55.96,0 111.93,0 167.91,-0 9.34,0 9.37,-0.03 9.37,-9.45 0.02,-55.97 0,-111.94 0,-167.91zm-322.44 -424.78c-6.01,-0.54 -9.44,-4.99 -9,-11.27 0.44,-6.21 4.14,-9.69 10.36,-10.07 3.89,-0.23 7.78,-0.04 11.68,-0.04 3.64,0 7.29,-0.13 10.93,0.03 6.35,0.28 10.03,4.04 10.5,10.03 0.49,6.11 -3.01,10.77 -9.03,11.33 -8.42,0.79 -17.02,0.77 -25.44,0zm-279.41 193.2c0.46,4.08 0.09,8.25 0.09,12.37l-0.09 0c0,3.89 0.44,7.83 -0.09,11.65 -0.87,6.27 -5.83,10.16 -11.75,9.46 -6.17,-0.73 -9.63,-4.43 -9.81,-10.67 -0.21,-7.28 -0.25,-14.57 0,-21.87 0.22,-6.43 4.52,-10.82 10.29,-11.1 5.62,-0.26 10.67,3.96 11.36,10.16zm518.41 87.8c0.26,3.86 0.06,7.76 0.06,11.66 0,3.64 0.12,7.29 -0.03,10.94 -0.27,6.34 -4.01,10.04 -9.99,10.55 -6.1,0.53 -10.8,-2.94 -11.39,-8.96 -0.79,-8.4 -0.77,-17.01 -0.03,-25.44 0.54,-6.01 4.94,-9.47 11.24,-9.06 6.21,0.39 9.71,4.09 10.13,10.31zm-300.17 216.6c5.69,0.57 8.62,5.32 8.13,11.2 -0.48,5.82 -3.93,9.34 -9.82,9.84 -3.86,0.32 -7.76,0.06 -11.66,0.06l0 0.03c-3.89,0 -7.77,0.17 -11.67,-0.03 -6.34,-0.35 -9.91,-4.21 -10.32,-10.21 -0.4,-5.74 2.79,-10.48 8.51,-10.97 8.89,-0.77 17.96,-0.8 26.84,0.07zm285.02 -255.43c-7.17,-3.32 -6.78,-9.9 -6.74,-16.31 0.05,-5.82 1.71,-10.58 7.72,-12.7 8.41,-2.95 14.27,3 14.08,14.42 0,2.18 0.31,4.42 -0.06,6.55 -1.15,7.02 -8.57,11.01 -15,8.04zm-277.7 -241.62c-5.79,-0.06 -10.58,-1.72 -12.69,-7.72 -2.95,-8.4 2.97,-14.27 14.41,-14.09 2.2,0 4.43,-0.29 6.55,0.06 7.03,1.14 11.02,8.57 8.04,15 -3.3,7.15 -9.88,6.83 -16.31,6.75zm128.21 -0.05c-5.91,-0.13 -10.43,-2.44 -12.06,-8.55 -2.19,-8.2 3.61,-13.41 14.87,-13.28 1.94,0 3.92,-0.22 5.83,0.05 7.16,0.95 11.52,7.98 8.8,14.57 -3.33,8.03 -10.58,7.38 -17.44,7.21zm-359.5 126.32c3.61,3.01 5.23,8.37 8.38,13.79 -3.22,5.29 -4.97,10.58 -8.62,13.55 -4.43,3.61 -9.81,1.74 -13.53,-2.71 -3.46,-4.14 -3.3,-18.21 0.18,-22.26 3.85,-4.47 9.31,-5.93 13.6,-2.37zm-8.69 156.96c-7.5,-1.52 -7.63,-8.36 -7.28,-14.87 -0.54,-5.79 0.29,-11.97 6.68,-13.55 3.72,-0.92 9.18,0.63 12.31,3.05 4.59,3.58 4.81,17.75 0.31,21.71 -2.93,2.59 -8.32,4.4 -12.02,3.66zm519.46 58.23c8.25,-2.24 13.48,3.55 13.33,14.79 0,1.94 0.22,3.92 -0.03,5.82 -0.95,7.18 -7.95,11.58 -14.54,8.89 -8.04,-3.29 -7.38,-10.55 -7.25,-17.41 0.12,-5.92 2.38,-10.42 8.49,-12.09zm-362.18 154.81c5.56,0.09 9.99,2.06 11.93,7.72 2.91,8.45 -2.98,14.24 -14.46,14.05 -2.19,0 -4.43,0.31 -6.55,-0.05 -7,-1.17 -10.99,-8.62 -7.98,-15.04 3.51,-7.5 10.46,-6.78 17.06,-6.68zm127.71 -0.05c5.73,0.02 10.69,1.27 13.12,7.15 3.52,8.52 -2.62,14.86 -14.33,14.66 -2.18,0 -4.43,0.31 -6.55,-0.06 -6.97,-1.2 -10.91,-8.7 -7.88,-15.09 3.19,-6.78 9.41,-6.7 15.64,-6.67z"/>
 </g>
</svg>
