<svg width="32" height="33" viewBox="0 0 32 33" fill="none" xmlns="http://www.w3.org/2000/svg">
<g clip-path="url(#clip0_1_791)">
<rect width="32" height="33" fill="#483F3A"/>
<rect x="1" y="1" width="30" height="30" rx="15" fill="white"/>
<path d="M16 0.515625C7.16129 0.515625 0 7.66992 0 16.5C0 25.3301 7.16129 32.4844 16 32.4844C24.8387 32.4844 32 25.3301 32 16.5C32 7.66992 24.8387 0.515625 16 0.515625Z" fill="#483F3A"/>
<path fill-rule="evenodd" clip-rule="evenodd" d="M8.91685 16C8.91685 12.088 12.0882 8.91667 16.0002 8.91667C19.9122 8.91667 23.0835 12.088 23.0835 16C23.0835 19.912 19.9122 23.0833 16.0002 23.0833C14.6067 23.0833 13.3096 22.6818 12.2151 21.9884C12.0115 21.8594 11.7619 21.8249 11.5309 21.8938L9.13157 22.6099L10.0349 20.4961C10.1417 20.2462 10.12 19.9601 9.97672 19.7292C9.30491 18.6467 8.91685 17.3699 8.91685 16ZM16.0002 7.25C11.1677 7.25 7.25018 11.1675 7.25018 16C7.25018 17.5317 7.64446 18.9736 8.33737 20.2273L6.90056 23.5892C6.77354 23.8864 6.82984 24.2302 7.04501 24.4714C7.26019 24.7127 7.59543 24.8077 7.90516 24.7152L11.6547 23.5962C12.9355 24.3304 14.4199 24.75 16.0002 24.75C20.8327 24.75 24.7502 20.8325 24.7502 16C24.7502 11.1675 20.8327 7.25 16.0002 7.25ZM17.9106 17.8187L16.8154 18.5901C16.3025 18.2979 15.7354 17.8901 15.1666 17.3212C14.5752 16.7299 14.1368 16.1194 13.8136 15.5594L14.5096 14.9687C14.8082 14.7152 14.89 14.2878 14.706 13.9419L13.8192 12.2752C13.6998 12.0508 13.4845 11.8932 13.2345 11.8471C12.9844 11.8011 12.7271 11.8717 12.5356 12.0388L12.2726 12.2683C11.6404 12.8201 11.2664 13.7269 11.5763 14.6451C11.8976 15.5969 12.5834 17.095 13.9881 18.4997C15.4994 20.0111 17.0346 20.6062 17.9323 20.8374C18.6557 21.0236 19.3402 20.774 19.8225 20.381L20.3154 19.9793C20.5262 19.8076 20.64 19.5437 20.6202 19.2724C20.6002 19.0012 20.4492 18.7567 20.2156 18.6174L18.817 17.7841C18.5345 17.6158 18.1795 17.6293 17.9106 17.8187Z" fill="white"/>
</g>
<defs>
<clipPath id="clip0_1_791">
<rect width="32" height="33" fill="white"/>
</clipPath>
</defs>
</svg>
