<svg version="1.1" xmlns="http://www.w3.org/2000/svg" xmlns:xlink="http://www.w3.org/1999/xlink" width="796.57501pt" height="161.15331pt" viewBox="0,0,256,51.78125"><g fill="#ffffff" fill-rule="nonzero" stroke="none" stroke-width="1" stroke-linecap="butt" stroke-linejoin="miter" stroke-miterlimit="10" stroke-dasharray="" stroke-dashoffset="0" font-family="none" font-weight="none" font-size="none" text-anchor="none" style="mix-blend-mode: normal"><g transform="translate(0,-0.00477) scale(0.32138,0.32138)"><g transform="translate(-25.425,180.2) scale(0.1,-0.1)" id="g144"><path d="M2160,1615v-185h47h46l-6,110c-4,61 -5,110 -3,110c2,0 21,-49 42,-110c38,-107 40,-110 69,-110c30,0 32,3 64,98c19,53 38,102 43,107c6,6 7,-32 2,-97l-7,-108h47h46v185v185h-54h-54l-42,-120c-23,-66 -44,-120 -45,-120c-2,0 -9,17 -16,38c-6,20 -25,74 -41,120l-30,82h-54h-54z" id="path2"></path><path d="M2610,1615v-185h43h42l59,100c32,55 62,103 67,106c5,3 9,-41 9,-100v-106h40h40v185v185h-42h-43l-60,-105c-33,-57 -63,-104 -67,-105c-5,0 -8,47 -8,105v105h-40h-40z" id="path4"></path><path d="M2980,1615v-185h45h45v75v75h65h65v-75v-75h40h40v185v185h-40h-40v-75v-75h-65h-65v75v75h-45h-45z" id="path6"></path><path d="M3340,1615v-185h43h42l59,100c32,55 62,103 67,106c5,3 9,-41 9,-100v-106h40h40v185v185h-42h-43l-60,-105c-33,-57 -63,-104 -67,-105c-5,0 -8,47 -8,105v105h-40h-40z" id="path8"></path><path d="M3785,1781c-60,-27 -80,-69 -79,-166c0,-118 33,-167 121,-181c82,-13 156,28 169,94c6,32 6,32 -32,32c-33,0 -42,-5 -56,-30c-13,-22 -24,-30 -46,-30c-52,0 -66,20 -70,102c-3,63 -1,77 18,101c30,38 75,37 98,-3c14,-25 23,-30 56,-30c38,0 38,0 32,32c-17,83 -119,122 -211,79z" id="path10"></path><path d="M4020,1765v-35h55h55v-150v-150h40h40v150v150h55h55v35v35h-150h-150z" id="path12"></path><path d="M4360,1615v-185h125h125v35v35h-80h-80v40v40h70h70v35v35h-70h-70v40v40h80h80v35v35h-125h-125z" id="path14"></path><path d="M4660,1615v-185h45h45v65v65h45c59,0 119,25 136,57c18,34 16,96 -5,129c-26,39 -74,54 -176,54h-90zM4844,1714c19,-18 21,-55 4,-72c-7,-7 -31,-12 -55,-12h-43v50v50h39c23,0 46,-7 55,-16z" id="path16"></path><path d="M5065,1781c-60,-27 -80,-69 -79,-166c0,-118 33,-167 121,-181c82,-13 156,28 169,94c6,32 6,32 -32,32c-33,0 -42,-5 -56,-30c-13,-22 -24,-30 -46,-30c-52,0 -66,20 -70,102c-3,63 -1,77 18,101c30,38 75,37 98,-3c14,-25 23,-30 56,-30c38,0 38,0 32,32c-17,83 -119,122 -211,79z" id="path18"></path><path d="M5300,1765v-35h55h55v-150v-150h40h40v150v150h55h55v35v35h-150h-150z" id="path20"></path><path d="M5650,1616v-186h93c103,0 152,17 175,60c15,30 9,86 -14,111c-15,16 -15,20 0,41c29,41 16,110 -27,138c-14,9 -60,16 -124,18l-103,4zM5824,1714c9,-8 16,-19 16,-24c0,-20 -34,-40 -66,-40c-33,0 -34,1 -34,40c0,39 1,40 34,40c19,0 42,-7 50,-16zM5834,1558c18,-29 -4,-53 -53,-56l-41,-3v41v41l41,-3c27,-2 46,-9 53,-20z" id="path22"></path><path d="M6060,1783c-119,-62 -119,-274 0,-336c44,-23 121,-18 158,10c48,36 65,78 65,158c0,80 -17,122 -65,158c-37,28 -114,33 -158,10zM6176,1709c15,-17 19,-36 19,-94c0,-83 -18,-115 -66,-115c-45,0 -69,40 -69,115c0,48 5,68 21,89c25,32 68,35 95,5z" id="path24"></path><path d="M865,1736c-231,-44 -429,-196 -538,-413c-97,-191 -97,-465 0,-656c140,-277 420,-443 718,-424c118,8 190,27 305,84c80,39 109,61 186,137c76,77 98,106 137,186c66,133 81,200 81,345c0,145 -15,212 -81,345c-39,80 -61,109 -137,186c-77,76 -106,98 -186,137c-52,26 -122,54 -155,62c-85,22 -245,27 -330,11zM893,1645c-37,-26 -38,-71 -4,-155c26,-65 30,-71 30,-42c1,52 26,102 52,102c21,0 22,-1 4,-20c-15,-16 -17,-30 -12,-77c4,-32 13,-76 20,-98l14,-40l8,53c5,37 13,55 27,63c26,14 35,4 14,-16c-20,-20 -20,-64 -2,-130c10,-36 14,-43 15,-23c1,29 24,58 46,58c12,0 11,-5 -2,-27c-13,-24 -14,-36 -3,-87c9,-46 14,-56 22,-43c15,29 24,19 20,-23c-5,-44 4,-49 39,-21c81,62 143,66 249,15c61,-29 78,-33 97,-25c31,14 30,51 -3,90c-14,17 -71,56 -127,88c-121,67 -174,113 -188,165c-13,48 3,111 33,133c33,22 44,4 29,-45c-18,-61 4,-91 114,-155c50,-29 109,-65 132,-78c95,-57 129,-174 69,-236l-30,-31l-2,-147c-2,-115 1,-154 13,-176c14,-28 13,-32 -32,-104c-25,-42 -44,-82 -41,-89c3,-8 0,-14 -7,-14c-7,0 -18,-9 -24,-19c-16,-26 -121,-51 -133,-31c-4,7 -12,10 -17,7c-5,-3 -9,6 -8,19c0,31 26,47 80,48c38,1 41,3 68,55c37,74 35,111 -10,188c-34,57 -39,62 -50,47c-7,-10 -13,-35 -13,-55c0,-33 -6,-41 -50,-74c-27,-20 -58,-47 -69,-61c-10,-13 -22,-24 -27,-24c-4,0 -17,-8 -28,-19c-12,-10 -38,-21 -59,-24c-31,-5 -42,-2 -63,20c-23,23 -24,27 -10,41c10,11 31,15 64,13c49,-2 51,-1 101,56c59,66 63,91 31,173c-11,28 -17,56 -14,62c17,27 -48,-28 -86,-73c-29,-35 -47,-48 -58,-44c-9,3 -13,3 -10,-1c12,-11 -61,-63 -97,-70c-18,-3 -43,-3 -55,1c-17,5 -20,4 -15,-5c6,-9 0,-11 -24,-8c-22,3 -31,1 -31,-9c0,-8 -21,-55 -46,-104c-25,-49 -43,-96 -40,-104c3,-8 1,-15 -5,-15c-6,0 -20,-11 -30,-24c-13,-17 -37,-28 -75,-36c-52,-11 -57,-10 -80,11c-30,28 -30,35 1,55c20,13 31,14 57,5c46,-16 60,3 92,125c30,114 31,124 14,124c-7,0 -28,15 -48,33l-35,32l29,-32l30,-33h-30c-16,0 -62,19 -103,41c-41,22 -83,38 -93,36c-10,-3 -18,-1 -18,5c0,5 -10,8 -22,6c-17,-2 -24,-11 -26,-31c-4,-35 -49,-68 -63,-46c-14,23 -11,44 14,80c32,47 74,56 180,38l83,-14l-4,95c-4,108 -14,150 -42,175c-17,15 -24,16 -46,6c-27,-12 -64,-7 -64,10c0,5 9,9 21,9c14,0 19,5 17,17c-2,11 -13,17 -32,18c-22,0 -30,5 -32,22c-3,17 8,30 50,58c31,20 66,35 83,35c16,0 34,5 40,11c15,15 43,4 43,-16c0,-9 16,-30 36,-47c21,-19 51,-63 71,-105c31,-66 65,-104 81,-89c3,3 0,6 -6,6c-8,0 -9,25 -5,84c7,106 -9,192 -50,270c-33,62 -94,113 -123,102c-10,-4 -14,-1 -12,6c3,7 21,14 42,16c31,3 42,-2 69,-30l33,-33l-4,60c-3,51 0,63 18,83c11,12 31,22 43,22h21z" id="path26"></path><path d="M570,1275c-10,-12 -10,-15 2,-15c8,0 15,7 15,15c0,8 -1,15 -2,15c-2,0 -8,-7 -15,-15z" id="path28"></path><path d="M691,1187c-13,-21 -12,-21 5,-5c10,10 16,20 13,22c-3,3 -11,-5 -18,-17z" id="path30"></path><path d="M1140,1050c0,-11 2,-20 4,-20c2,0 6,9 9,20c3,11 1,20 -4,20c-5,0 -9,-9 -9,-20z" id="path32"></path><path d="M940,1018c-26,-10 -90,-66 -90,-80c0,-4 15,8 33,28c19,21 46,38 67,43c19,4 30,9 25,13c-6,3 -21,1 -35,-4z" id="path34"></path><path d="M1012,1010c14,-4 32,-11 40,-15c7,-3 4,1 -6,9c-11,9 -29,16 -40,15c-17,-1 -16,-2 6,-9z" id="path36"></path><path d="M929,975c-1,-3 -2,-9 -3,-14c-2,-13 -16,-26 -28,-26c-6,0 -13,-7 -15,-15c-4,-13 -3,-13 6,0c6,8 11,11 11,6c0,-5 9,-1 20,9c11,10 17,21 15,25c-3,5 1,11 7,13c10,4 10,6 1,6c-7,1 -14,-1 -14,-4z" id="path38"></path><path d="M1020,973c5,-2 8,-8 5,-13c-3,-4 2,-14 11,-21c19,-16 47,-21 38,-8c-3,5 -9,7 -14,4c-8,-5 -37,24 -32,34c2,3 -1,6 -7,8c-7,1 -8,0 -1,-4z" id="path40"></path><path d="M968,963c6,-2 18,-2 25,0c6,3 1,5 -13,5c-14,0 -19,-2 -12,-5z" id="path42"></path><path d="M1098,945c5,-11 11,-26 13,-33c3,-10 10,-7 24,10c11,13 13,17 5,10c-12,-10 -18,-9 -33,10c-15,19 -17,20 -9,3z" id="path44"></path><path d="M1298,953c6,-2 18,-2 25,0c6,3 1,5 -13,5c-14,0 -19,-2 -12,-5z" id="path46"></path><path d="M1340,946c0,-2 8,-10 18,-17c15,-13 16,-12 3,4c-13,16 -21,21 -21,13z" id="path48"></path><path d="M841,904c0,-11 3,-14 6,-6c3,7 2,16 -1,19c-3,4 -6,-2 -5,-13z" id="path50"></path><path d="M892,880c0,-14 2,-19 5,-12c2,6 2,18 0,25c-3,6 -5,1 -5,-13z" id="path52"></path><path d="M1062,880c0,-14 2,-19 5,-12c2,6 2,18 0,25c-3,6 -5,1 -5,-13z" id="path54"></path><path d="M1082,875c0,-16 2,-22 5,-12c2,9 2,23 0,30c-3,6 -5,-1 -5,-18z" id="path56"></path><path d="M841,854c0,-11 3,-14 6,-6c3,7 2,16 -1,19c-3,4 -6,-2 -5,-13z" id="path58"></path><path d="M1043,850c2,-8 -3,-23 -11,-33c-15,-16 -14,-17 3,-11c14,6 16,4 10,-7c-8,-12 -6,-12 8,0c19,15 23,26 5,15c-7,-5 -9,-2 -6,8c4,8 2,21 -4,29c-8,12 -9,12 -5,-1z" id="path60"></path><path d="M1111,844c0,-11 3,-14 6,-6c3,7 2,16 -1,19c-3,4 -6,-2 -5,-13z" id="path62"></path><path d="M907,823c4,-11 3,-14 -5,-9c-18,11 -14,0 5,-15c14,-12 16,-12 8,0c-6,11 -4,13 10,7c18,-7 18,-6 0,14c-22,24 -26,25 -18,3z" id="path64"></path><path d="M850,824c0,-6 9,-23 20,-36c10,-14 17,-27 15,-30c-2,-2 5,-4 15,-4c18,0 18,2 -4,21c-13,11 -29,29 -35,40c-6,11 -11,15 -11,9z" id="path66"></path><path d="M410,806c0,-8 4,-17 9,-20c5,-4 7,3 4,14c-6,23 -13,26 -13,6z" id="path68"></path><path d="M968,793c6,-2 18,-2 25,0c6,3 1,5 -13,5c-14,0 -19,-2 -12,-5z" id="path70"></path><path d="M973,773c9,-2 23,-2 30,0c6,3 -1,5 -18,5c-16,0 -22,-2 -12,-5z" id="path72"></path><path d="M615,470c-3,-6 1,-7 9,-4c18,7 21,14 7,14c-6,0 -13,-4 -16,-10z" id="path74"></path><path d="M2240,1193c-42,-13 -64,-31 -77,-60c-18,-44 -18,-43 30,-43c31,0 45,5 55,20c15,24 54,26 76,4c19,-18 19,-20 6,-45c-8,-14 -21,-19 -50,-19c-39,0 -40,-1 -40,-34c0,-34 1,-35 41,-38c27,-2 46,-9 53,-21c27,-43 -52,-78 -89,-37c-12,13 -30,20 -57,20c-32,0 -38,-3 -38,-21c0,-11 13,-33 28,-49c49,-49 166,-52 220,-5c36,31 39,107 6,134c-21,17 -21,18 -3,40c28,34 25,92 -6,123c-33,33 -106,48 -155,31z" id="path76"></path><path d="M2537,1090c-7,-119 -25,-179 -57,-187c-18,-5 -20,-14 -20,-84v-79h40h40v45v45h105h105v-45c0,-44 0,-45 34,-45c31,0 34,3 40,38c3,20 6,56 6,80c0,35 -3,42 -20,42c-19,0 -20,7 -20,150v150h-123h-124zM2700,1015v-115h-56c-48,0 -55,2 -50,18c16,51 26,113 26,160v52h40h40z" id="path78"></path><path d="M2870,1015v-185h45h45v65v65h45c59,0 119,25 136,57c18,34 16,96 -5,129c-26,39 -74,54 -176,54h-90zM3054,1114c19,-18 21,-55 4,-72c-7,-7 -31,-12 -55,-12h-43v50v50h39c23,0 46,-7 55,-16z" id="path80"></path><path d="M3234,1112c-18,-48 -48,-131 -68,-185l-36,-98l47,3c44,3 48,5 57,36c9,32 9,32 71,32c62,0 62,0 71,-32c9,-31 13,-33 58,-36c26,-2 46,1 45,6c-2,5 -33,88 -69,185l-65,177h-40h-40zM3334,993c7,-21 4,-23 -28,-23c-20,0 -36,1 -36,3c0,2 8,26 17,53l17,49l12,-30c6,-17 15,-40 18,-52z" id="path82"></path><path d="M3510,1016v-186h93c103,0 152,17 175,60c15,30 9,86 -14,111c-15,16 -15,20 0,41c29,41 16,110 -27,138c-14,9 -60,16 -124,18l-103,4zM3684,1114c9,-8 16,-19 16,-24c0,-20 -34,-40 -66,-40c-33,0 -34,1 -34,40c0,39 1,40 34,40c19,0 42,-7 50,-16zM3694,958c18,-29 -4,-53 -53,-56l-41,-3v41v41l41,-3c27,-2 46,-9 53,-20z" id="path84"></path><path d="M3930,1183c-119,-62 -119,-274 0,-336c44,-23 121,-18 158,10c48,36 65,78 65,158c0,80 -17,122 -65,158c-37,28 -114,33 -158,10zM4046,1109c15,-17 19,-36 19,-94c0,-83 -18,-115 -66,-115c-45,0 -69,40 -69,115c0,48 5,68 21,89c25,32 68,35 95,5z" id="path86"></path><path d="M4290,1183c-119,-62 -119,-274 0,-336c44,-23 121,-18 158,10c48,36 65,78 65,158c0,80 -17,122 -65,158c-37,28 -114,33 -158,10zM4406,1109c15,-17 19,-36 19,-94c0,-83 -18,-115 -66,-115c-45,0 -69,40 -69,115c0,48 5,68 21,89c25,32 68,35 95,5z" id="path88"></path><path d="M4530,1194c0,-3 23,-44 50,-90l51,-86l-51,-87c-27,-49 -50,-91 -50,-95c0,-3 22,-6 48,-6c49,0 49,0 72,51c13,28 27,52 31,55c4,2 21,-21 38,-51c31,-54 32,-55 76,-55c25,0 45,5 45,10c0,6 -10,27 -23,48c-13,20 -35,58 -50,83l-26,46l49,84c27,46 50,87 50,92c0,4 -22,7 -48,7h-48l-28,-57l-27,-56l-20,29c-10,16 -24,41 -30,56c-10,25 -16,28 -60,28c-27,0 -49,-3 -49,-6z" id="path90"></path><path d="M4880,1015v-185h45h45v65v65h45c59,0 119,25 136,57c18,34 16,96 -5,129c-26,39 -74,54 -176,54h-90zM5064,1114c19,-18 21,-55 4,-72c-7,-7 -31,-12 -55,-12h-43v50v50h39c23,0 46,-7 55,-16z" id="path92"></path><path d="M5254,1112c-18,-48 -48,-131 -68,-185l-36,-98l47,3c44,3 48,5 57,36c9,32 9,32 71,32c62,0 62,0 71,-32c9,-31 13,-33 58,-36c26,-2 46,1 45,6c-2,5 -33,88 -69,185l-65,177h-40h-40zM5354,993c7,-21 4,-23 -28,-23c-20,0 -36,1 -36,3c0,2 8,26 17,53l17,49l12,-30c6,-17 15,-40 18,-52z" id="path94"></path><path d="M5530,1015v-185h45h45v75v75h65h65v-75v-75h40h40v185v185h-40h-40v-75v-75h-65h-65v75v75h-45h-45z" id="path96"></path><path d="M5900,1015v-185h125h125v35v35h-80h-80v40v40h70h70v35v35h-70h-70v40v40h80h80v35v35h-125h-125z" id="path98"></path><path d="M6190,1015v-185h45h45v75v75h65h65v-75v-75h40h40v185v185h-40h-40v-75v-75h-65h-65v75v75h-45h-45z" id="path100"></path><path d="M6560,1015v-185h43h42l59,100c32,55 62,103 67,106c5,3 9,-41 9,-100v-106h40h40v185v185h-42h-43l-60,-105c-33,-57 -63,-104 -67,-105c-5,0 -8,47 -8,105v105h-40h-40z" id="path102"></path><path d="M6971,1184c-48,-20 -60,-41 -61,-100c0,-42 5,-56 24,-75l24,-23l-39,-78l-39,-78h48h48l32,65c26,54 36,65 57,65c24,0 25,-2 25,-65v-65h40h40v185v185h-82c-50,-1 -96,-7 -117,-16zM7090,1080v-50h-40c-33,0 -42,4 -52,25c-8,19 -8,31 0,50c10,21 19,25 52,25h40z" id="path104"></path><path d="M2150,380v-180h25c24,0 25,2 25,70v70h55c64,0 119,20 134,48c6,12 11,41 11,65c0,34 -6,50 -25,69c-30,30 -63,38 -156,38h-69zM2340,500c11,-11 20,-33 20,-50c0,-49 -30,-70 -100,-70h-60v70v70h60c47,0 64,-4 80,-20z" id="path106"></path><path d="M2470,380v-180h115c108,0 115,1 115,20c0,19 -7,20 -90,20h-90v65v65h75c68,0 75,2 75,20c0,18 -7,20 -75,20h-75v55v55h85c78,0 85,2 85,20c0,19 -7,20 -110,20h-110z" id="path108"></path><path d="M2820,543c-92,-47 -110,-239 -29,-307c74,-62 193,-31 214,57c10,40 -28,38 -45,-3c-25,-59 -101,-70 -143,-20c-70,83 -30,250 60,250c46,0 68,-13 83,-50c17,-41 55,-43 45,-2c-17,73 -113,112 -185,75z" id="path110"></path><path d="M3090,380c0,-173 1,-180 20,-180c19,0 20,7 20,160v160h90h90v-160c0,-153 1,-160 20,-160c19,0 20,7 20,180v180h-130h-130z" id="path112"></path><path d="M3461,448c78,-171 75,-162 56,-192c-10,-14 -26,-26 -36,-26c-11,0 -21,-9 -24,-21c-5,-20 -3,-21 30,-16c20,4 42,12 49,19c7,7 44,89 83,181l69,168l-26,-3c-24,-3 -31,-14 -66,-106c-21,-56 -42,-100 -45,-97c-3,3 -24,49 -47,103c-37,83 -47,97 -68,100l-26,3z" id="path114"></path><path d="M3750,379v-181l93,4c120,5 157,30 157,104c0,71 -50,104 -157,104h-53v55v55h90c83,0 90,1 90,20c0,19 -7,20 -110,20h-110zM3940,350c11,-11 20,-31 20,-45c0,-45 -32,-65 -105,-65h-65v65v65h65c52,0 69,-4 85,-20z" id="path116"></path><path d="M4107,430c-6,-140 -19,-183 -55,-188c-25,-4 -32,-42 -8,-42c71,0 97,52 104,208l5,112h63h64v-160v-160h25h25v180v180h-108h-109z" id="path118"></path><path d="M4420,380c0,-232 4,-234 120,-50c45,71 86,132 91,135c5,4 9,-49 9,-129c0,-129 1,-136 20,-136c19,0 20,7 20,180v180h-22c-18,-1 -40,-28 -108,-137l-85,-137l-3,137c-2,129 -4,137 -22,137c-19,0 -20,-8 -20,-180z" id="path120"></path><path d="M4780,380c0,-173 1,-180 20,-180c18,0 20,7 20,85c0,82 1,85 23,85c18,0 39,-21 88,-85c47,-63 70,-85 86,-85c13,0 23,2 23,5c0,3 -31,47 -69,97l-69,92l57,70c76,94 77,96 48,96c-18,0 -40,-19 -86,-75c-38,-46 -70,-75 -82,-75c-17,0 -19,8 -19,75c0,68 -2,75 -20,75c-19,0 -20,-7 -20,-180z" id="path122"></path><path d="M5100,380c0,-232 4,-234 120,-50c45,71 86,132 91,135c5,4 9,-49 9,-129c0,-129 1,-136 20,-136c19,0 20,7 20,180v180h-22c-18,-1 -40,-28 -108,-137l-85,-137l-3,137c-2,129 -4,137 -22,137c-19,0 -20,-8 -20,-180z" id="path124"></path><path d="M5530,540c0,-18 7,-20 60,-20h60v-160c0,-153 1,-160 20,-160c19,0 20,7 20,160v160h60c53,0 60,2 60,20c0,19 -7,20 -140,20c-133,0 -140,-1 -140,-20z" id="path126"></path><path d="M5870,389c-36,-94 -67,-176 -69,-181c-2,-5 7,-8 20,-6c18,2 28,14 39,46l15,43l79,-3l79,-3l15,-42c11,-34 18,-43 37,-43c23,0 21,4 -45,178c-52,136 -72,178 -86,180c-16,2 -29,-24 -84,-169zM6006,355c6,-25 5,-25 -54,-25h-61l24,68c40,115 36,112 61,44c13,-34 26,-73 30,-87z" id="path128"></path><path d="M6100,540c0,-18 7,-20 60,-20h60v-160c0,-153 1,-160 20,-160c19,0 20,7 20,160v160h60c53,0 60,2 60,20c0,19 -7,20 -140,20c-133,0 -140,-1 -140,-20z" id="path130"></path><path d="M6440,389c-36,-94 -67,-176 -69,-181c-2,-5 7,-8 20,-6c18,2 28,14 39,46l15,43l79,-3l79,-3l15,-42c11,-34 18,-43 37,-43c23,0 21,4 -45,178c-52,136 -72,178 -86,180c-16,2 -29,-24 -84,-169zM6576,355c6,-25 5,-25 -54,-25h-61l24,68c40,115 36,112 61,44c13,-34 26,-73 30,-87z" id="path132"></path><path d="M6720,380v-180h25c24,0 25,2 25,70v70h55c64,0 119,20 134,48c6,12 11,41 11,65c0,34 -6,50 -25,69c-30,30 -63,38 -156,38h-69zM6910,500c11,-11 20,-33 20,-50c0,-49 -30,-70 -100,-70h-60v70v70h60c47,0 64,-4 80,-20z" id="path134"></path><path d="M7110,543c-92,-47 -110,-239 -29,-307c74,-62 193,-31 214,57c10,40 -28,38 -45,-3c-25,-59 -101,-70 -143,-20c-70,83 -30,250 60,250c46,0 68,-13 83,-50c17,-41 55,-43 45,-2c-17,73 -113,112 -185,75z" id="path136"></path><path d="M7330,540c0,-18 7,-20 60,-20h60v-160c0,-153 1,-160 20,-160c19,0 20,7 20,160v160h60c53,0 60,2 60,20c0,19 -7,20 -140,20c-133,0 -140,-1 -140,-20z" id="path138"></path><path d="M7670,389c-36,-94 -67,-176 -69,-181c-2,-5 7,-8 20,-6c18,2 28,14 39,46l15,43l79,-3l79,-3l15,-42c11,-34 18,-43 37,-43c23,0 21,4 -45,178c-52,136 -72,178 -86,180c-16,2 -29,-24 -84,-169zM7806,355c6,-25 5,-25 -54,-25h-61l24,68c40,115 36,112 61,44c13,-34 26,-73 30,-87z" id="path140"></path><path d="M7950,380v-180h25c25,0 25,1 25,85v85h90h90v-85c0,-78 2,-85 20,-85c19,0 20,7 20,180c0,173 -1,180 -20,180c-18,0 -20,-7 -20,-75v-75h-90h-90v75c0,73 -1,75 -25,75h-25z" id="path142"></path></g></g></g></svg>