<svg width="1729" height="493" viewBox="0 0 1729 493" fill="none" xmlns="http://www.w3.org/2000/svg">
<path d="M600.98 4.96545C606.65 5.67481 612.32 6.14771 617.989 6.85706C642.322 10.4038 664.291 18.6796 681.773 36.6499C696.655 52.2556 704.451 71.1717 706.814 92.4523C707.05 94.1074 707.05 95.5261 707.286 97.1813C707.286 97.4177 707.286 97.6542 707.286 98.3635C687.915 98.3635 668.307 98.3635 648.7 98.3635C648.227 95.7626 647.755 93.1616 647.046 90.5607C641.849 69.2801 626.73 56.5117 604.996 54.6201C593.893 53.6743 582.79 53.9108 572.16 58.4033C557.277 64.5511 548.064 76.1372 542.158 90.7971C537.67 101.674 535.544 113.26 534.599 124.846C533.181 140.215 533.417 155.348 536.961 170.481C540.032 183.959 544.993 196.491 554.679 206.658C567.671 220.845 583.972 225.811 602.634 224.392C608.776 223.919 614.918 222.5 620.588 220.136C636.652 213.515 645.393 200.51 649.409 184.195C649.881 182.067 650.353 179.703 650.826 177.338C670.67 177.338 690.277 177.338 710.121 177.338C707.05 211.151 690.041 251.82 641.849 267.189C622.005 273.574 601.925 274.756 581.373 273.574C566.018 272.628 550.899 269.79 536.725 264.116C505.778 251.82 486.171 229.121 476.485 197.673C476.249 196.491 475.776 195.545 474.831 194.363C474.359 198.146 474.123 201.693 473.65 205.476C469.162 231.722 453.806 248.983 429.238 258.441C413.883 264.352 397.583 266.717 381.282 266.717C320.806 266.953 260.567 266.717 200.091 266.953C197.728 266.953 196.783 266.007 196.075 263.879C191.35 249.929 186.389 236.214 181.901 222.264C181.192 220.136 180.247 219.19 177.648 219.19C148.591 219.19 119.771 219.19 90.714 219.19C88.3517 219.19 87.1705 219.899 86.4618 222.264C81.9734 235.978 77.2487 249.692 72.7602 263.406C72.2878 264.588 71.8153 265.534 71.3428 266.953C50.0817 266.953 29.0568 266.953 8.03198 266.953C8.03198 266.717 8.03198 266.48 8.03198 266.244C8.50445 265.298 8.97692 264.588 9.44939 263.643C15.3553 246.855 21.7336 229.83 28.3481 212.806C53.1528 146.836 77.9574 81.1026 102.526 15.1328C103.234 13.0048 104.416 12.2954 106.542 12.2954C113.156 12.5319 119.535 12.2954 126.149 12.2954C138.906 12.2954 151.663 12.2954 164.419 12.2954C194.421 91.9794 224.423 171.663 254.661 251.347C254.897 251.347 255.369 251.111 255.606 251.111C255.606 171.663 255.606 92.2158 255.606 12.5319C321.751 12.5319 387.661 12.5319 453.806 12.5319C453.806 28.847 453.806 45.1621 453.806 61.4772C452.389 61.4772 450.972 61.4772 449.79 61.4772C406.56 61.4772 363.329 61.4772 319.861 61.4772C314.664 61.4772 315.373 61.2408 315.373 65.9698C315.373 78.5017 315.373 91.0336 315.373 103.565C315.373 106.403 316.318 107.112 318.917 107.112C338.996 107.112 359.076 107.112 378.92 107.112C392.858 107.112 406.56 108.531 419.789 112.551C440.577 118.935 456.877 130.521 466.563 150.619C467.272 152.038 467.744 153.457 468.453 154.875C468.689 154.639 468.925 154.639 468.925 154.639C468.925 153.693 468.925 152.747 468.925 152.038C468.453 130.521 469.87 109.004 476.012 88.1962C489.95 41.3789 521.369 14.4235 569.561 6.85706C574.286 6.14771 578.774 5.67481 583.499 4.96545C589.169 4.96545 595.075 4.96545 600.98 4.96545ZM315.609 156.294C315.373 157.003 315.373 157.24 315.373 157.476C315.373 176.865 315.373 196.018 315.373 215.407C315.373 217.771 316.79 217.535 318.208 217.535C334.744 217.535 351.517 217.535 368.053 217.298C376.558 217.298 384.826 216.353 392.858 213.279C399.236 210.678 404.433 206.894 407.268 200.51C414.591 184.432 406.796 165.752 390.259 159.604C382.936 156.767 375.377 156.058 367.581 156.058C355.06 156.058 342.54 156.058 330.02 156.058C325.295 156.294 320.57 156.294 315.609 156.294ZM100.4 176.156C122.842 176.156 144.812 176.156 167.254 176.156C156.151 143.762 145.52 111.605 134.654 79.4475C134.417 79.4475 134.181 79.4475 133.945 79.4475C122.842 111.605 111.739 143.762 100.4 176.156Z" fill="white"/>
<path d="M1426.15 4.96545C1431.34 5.67481 1436.54 6.14771 1441.5 6.85706C1468.43 10.4038 1492.29 20.3348 1511.66 40.1966C1511.9 40.4331 1512.14 40.4331 1512.85 41.1424C1512.85 31.4479 1512.85 22.2264 1512.85 12.7683C1584.66 12.7683 1656 12.7683 1727.58 12.7683C1727.58 29.0834 1727.58 45.1621 1727.58 61.7137C1726.17 61.7137 1724.98 61.7137 1723.57 61.7137C1700.42 61.7137 1677.5 61.7137 1654.35 61.7137C1650.57 61.7137 1650.57 61.7137 1650.57 65.7333C1650.57 131.467 1650.57 197.2 1650.57 262.933C1650.57 264.352 1650.33 265.771 1650.33 267.189C1630.25 267.189 1610.65 267.189 1590.57 267.189C1590.57 198.855 1590.57 130.521 1590.57 62.1866C1569.54 62.1866 1548.99 62.1866 1528.2 62.1866C1528.44 62.8959 1528.44 63.3688 1528.67 63.8417C1539.07 83.2307 1544.26 104.038 1545.68 125.792C1547.34 149.2 1545.45 172.136 1537.89 194.599C1523 238.815 1492.29 264.588 1446.46 272.155C1418.12 276.884 1390.24 275.702 1362.84 266.007C1324.57 252.293 1301.89 224.628 1292.2 185.85C1290.08 177.811 1289.6 169.299 1288.42 161.023C1288.19 159.604 1288.42 158.186 1286.3 158.186C1276.37 158.186 1266.45 158.186 1256.53 158.186C1256.06 158.186 1255.82 158.422 1255.11 158.422C1255.11 194.363 1255.11 230.54 1255.11 266.717C1235.03 266.717 1215.19 266.717 1195.35 266.717C1195.35 182.067 1195.35 97.4177 1195.35 12.5319C1215.19 12.5319 1234.8 12.5319 1254.88 12.5319C1254.88 13.7141 1255.11 15.1328 1255.11 16.5515C1255.11 46.1079 1255.11 75.6643 1255.11 105.221C1255.11 108.294 1255.82 109.24 1258.89 109.004C1268.11 108.767 1277.08 109.004 1286.3 109.004C1287.48 109.004 1288.42 109.004 1289.37 109.004C1291.02 101.91 1292.2 95.2897 1294.09 88.9055C1307.32 43.7434 1337.56 17.2609 1383.63 8.27577C1390.48 6.85706 1397.8 6.62061 1404.65 5.67481C1405.6 5.43836 1406.54 5.20191 1407.48 5.20191C1413.63 4.96545 1419.77 4.96545 1426.15 4.96545ZM1481.43 138.56C1481.66 124.373 1480.25 109.477 1475.28 95.0532C1468.91 76.6101 1457.57 63.1324 1438.43 57.2211C1428.51 54.1472 1418.12 53.4379 1407.72 54.6201C1390 56.7482 1375.36 64.5511 1366.14 80.1568C1363.07 85.3587 1360.24 91.0336 1358.58 96.7084C1350.79 123.191 1350.79 149.91 1357.17 176.629C1358.58 182.776 1360.95 188.924 1364.02 194.599C1373.7 213.515 1389.77 222.973 1410.79 224.628C1438.43 226.756 1463 216.589 1474.34 186.323C1480.01 171.19 1481.66 155.585 1481.43 138.56Z" fill="white"/>
<path d="M844.774 4.96545C849.972 5.67481 855.169 6.14771 860.13 6.85706C910.92 13.4777 945.883 43.5069 958.876 92.4523C968.798 129.811 967.38 166.934 953.442 203.348C951.789 207.84 949.426 212.096 947.3 216.353C947.064 216.825 946.828 217.535 946.592 218.244C959.584 217.298 970.215 213.042 977.774 202.402C983.917 193.89 986.751 184.195 988.405 174.028C991.004 158.422 991.004 142.58 991.476 126.738C992.185 89.6149 992.657 52.7285 993.13 15.6057C993.13 14.6599 993.13 13.7141 993.366 12.5319C1056.2 12.5319 1119.04 12.5319 1182.12 12.5319C1182.12 97.1813 1182.12 181.831 1182.12 266.717C1162.27 266.717 1142.43 266.717 1122.35 266.717C1122.35 265.298 1122.11 263.879 1122.11 262.697C1122.11 197.2 1122.11 131.467 1122.11 65.9698C1122.11 61.7137 1122.11 61.7137 1117.86 61.7137C1096.36 61.7137 1075.1 61.7137 1053.61 61.7137C1050.53 61.7137 1049.59 62.423 1049.59 65.4969C1049.12 96.9448 1048.64 128.156 1047.7 159.604C1046.99 181.121 1044.39 202.402 1035.18 222.5C1022.9 249.456 1001.63 264.116 972.813 267.899C960.293 269.554 947.773 269.081 935.488 267.662C934.307 267.662 933.362 267.189 931.945 266.953C931.945 257.731 931.945 248.51 931.945 238.579C931 239.052 930.528 239.288 930.291 239.525C913.046 257.259 891.549 267.426 867.453 271.682C841.231 276.411 815.245 275.938 789.496 268.135C751.698 256.549 727.602 231.012 715.082 193.89C707.522 171.9 705.396 148.964 707.286 125.792C708.94 103.802 714.137 82.9942 725.004 63.6053C741.776 33.8125 767.29 16.0786 800.599 8.98512C808.394 7.32996 816.19 6.85706 823.986 5.67481C824.931 5.43836 825.876 5.20191 826.821 5.20191C832.963 4.96545 838.869 4.96545 844.774 4.96545ZM900.29 137.851C900.526 126.028 899.345 112.787 895.329 99.7822C889.895 81.812 880.446 66.9156 862.492 59.3491C849.027 53.6743 835.089 53.2014 820.915 55.8024C798.945 59.822 785.007 73.5362 778.156 94.3439C769.179 121.299 769.416 148.728 775.558 176.156C777.448 184.905 780.755 192.944 785.716 200.274C796.346 216.116 811.702 223.682 830.128 224.865C856.822 226.756 880.21 217.062 892.021 188.451C898.636 172.846 900.526 156.294 900.29 137.851Z" fill="white"/>
<path d="M7.79578 378.321C8.26825 374.302 8.74071 370.282 9.21318 366.262C10.8668 350.184 15.119 334.814 23.151 320.864C34.254 301.948 50.5542 289.889 71.8153 284.45C94.4938 278.776 117.172 278.776 139.615 285.396C167.726 293.908 183.554 313.534 189.224 341.908C189.696 344.509 189.933 347.11 190.405 349.711C190.405 349.947 190.169 350.184 190.169 350.893C189.224 350.893 188.279 351.13 187.334 351.13C174.577 351.13 161.584 351.13 148.828 351.13C146.465 351.13 145.52 350.42 145.048 347.819C142.213 334.105 132.764 319.682 113.393 318.026C106.306 317.317 99.4547 317.317 92.6039 318.972C81.9734 321.81 73.9414 328.194 68.0356 337.415C61.8935 347.11 59.0587 357.514 58.1137 368.863C56.9325 382.814 57.1688 396.765 60.7123 410.242C63.3109 419.937 67.5631 428.922 74.4139 436.252C84.572 446.892 97.0924 450.202 111.266 449.02C114.574 448.784 118.117 448.074 121.188 447.129C133.709 443.582 139.851 433.887 144.339 422.538C145.757 419.227 146.229 415.444 147.41 411.661C162.057 411.661 176.94 411.661 192.531 411.661C191.822 416.626 191.114 421.355 190.169 426.084C183.318 453.986 165.837 471.956 138.67 480.468C115.755 487.562 92.3677 488.271 69.2167 481.887C38.7425 473.375 20.08 453.04 12.5205 422.538C10.3944 414.262 9.92189 405.513 8.74071 397.001C8.50448 395.819 8.26825 394.4 8.03201 393.218C7.79578 388.252 7.79578 383.287 7.79578 378.321Z" fill="#C0C0C0"/>
<path d="M1353.62 390.38C1354.57 390.853 1355.28 391.326 1355.99 391.563C1369.69 395.109 1377.25 404.331 1379.61 417.809C1380.79 424.666 1381.5 431.759 1381.97 438.616C1382.92 448.784 1383.39 458.951 1384.57 469.118C1385.04 472.665 1386.93 475.975 1388.11 479.759C1387.17 479.759 1386.22 479.995 1385.52 479.995C1372.29 479.995 1359.06 479.995 1345.83 479.995C1343.47 479.995 1342.28 479.049 1341.34 477.158C1337.09 469.355 1336.14 460.606 1335.67 451.858C1335.2 443.582 1335.43 435.07 1333.78 427.03C1331.65 414.971 1325.04 409.533 1312.75 408.823C1298.34 408.114 1283.93 408.351 1269.52 408.114C1266.93 408.114 1267.16 409.769 1267.16 411.424C1267.16 426.084 1267.16 440.744 1267.16 455.404C1267.16 463.444 1267.16 471.483 1267.16 479.759C1265.74 479.759 1264.56 479.995 1263.38 479.995C1236.21 479.995 1209.05 479.995 1181.88 479.995C1179.28 479.995 1178.1 479.049 1177.16 476.685C1173.85 466.517 1170.31 456.587 1166.76 446.656C1166.05 444.528 1165.11 443.818 1162.75 443.818C1141.01 443.818 1119.04 443.818 1097.31 443.818C1094.71 443.818 1093.77 444.764 1093.06 446.892C1089.51 457.296 1085.97 467.463 1082.43 477.867C1081.95 479.286 1081.25 480.232 1079.59 480.232C1064.95 480.232 1050.3 480.232 1035.65 480.232C1035.18 480.232 1034.94 480.232 1034.23 479.995C1034.71 478.813 1034.94 477.631 1035.18 476.685C1058.57 414.025 1081.95 351.366 1105.34 288.706C1106.29 286.578 1107.23 285.633 1109.59 285.633C1122.82 285.869 1136.05 285.869 1149.28 285.633C1151.88 285.633 1153.06 286.342 1154.01 288.943C1175.74 345.928 1197.47 403.149 1219.21 460.133C1219.44 461.079 1219.91 462.025 1221.1 462.734C1221.1 461.788 1221.33 460.606 1221.33 459.66C1221.1 426.084 1221.1 392.508 1220.86 358.932C1220.62 335.524 1220.62 312.351 1220.39 288.943C1220.39 286.342 1221.1 285.633 1223.46 285.633C1255.82 285.633 1288.19 285.633 1320.55 285.633C1330.71 285.633 1340.87 287.051 1350.79 289.652C1360.71 292.253 1368.51 297.692 1374.18 305.967C1386.22 323.938 1389.53 343.09 1381.74 363.661C1377.01 375.72 1368.27 384.469 1355.99 388.962C1355.28 389.198 1354.8 389.434 1354.1 389.907C1354.1 389.434 1354.1 389.907 1353.62 390.38ZM1267.4 372.41C1268.34 372.646 1269.05 372.646 1270 372.646C1285.35 372.646 1300.71 372.646 1315.83 372.174C1329.76 371.701 1338.74 363.188 1339.92 349.474C1340.87 337.888 1336.38 328.667 1324.09 325.12C1319.37 323.701 1314.41 322.992 1309.45 322.755C1296.45 322.519 1283.46 322.755 1270.47 322.519C1267.87 322.519 1267.16 323.228 1267.16 325.829C1267.16 340.253 1267.16 354.913 1267.16 369.336C1267.16 370.518 1267.4 371.228 1267.4 372.41ZM1156.13 410.715C1147.39 385.888 1138.89 361.297 1130.38 336.942C1130.15 336.942 1129.91 336.942 1129.44 336.942C1121.17 361.533 1112.9 385.888 1104.63 410.715C1122.11 410.715 1138.65 410.715 1156.13 410.715Z" fill="#C0C0C0"/>
<path d="M1559.86 479.759C1546.15 479.759 1533.16 479.522 1520.17 479.995C1514.97 480.232 1512.61 478.34 1510.96 473.847C1507.88 466.517 1507.18 458.715 1506.7 450.912C1506.23 443.582 1506.23 436.015 1505.29 428.685C1503.63 416.153 1496.31 409.296 1483.79 408.823C1469.61 408.114 1455.2 408.351 1440.79 408.114C1437.96 408.114 1438.43 409.769 1438.43 411.424C1438.43 432.705 1438.43 453.986 1438.43 475.03C1438.43 476.212 1438.43 477.631 1438.43 479.286C1423.31 479.286 1408.43 479.286 1393.07 479.286C1393.07 478.104 1392.84 476.921 1392.84 475.739C1392.6 418.281 1392.37 361.06 1392.13 303.603C1392.13 298.401 1392.13 293.199 1391.89 287.997C1391.89 285.869 1392.37 285.16 1394.73 285.16C1427.56 285.16 1460.17 285.16 1493 285.16C1502.92 285.16 1512.85 286.578 1522.53 289.179C1531.27 291.544 1538.36 296.036 1543.79 303.13C1557.49 321.573 1561.27 341.671 1553.01 363.425C1548.28 375.484 1539.54 383.996 1527.49 388.489C1526.78 388.725 1526.07 388.962 1525.6 389.198C1525.37 389.435 1525.13 389.671 1524.89 390.144C1525.37 390.617 1526.07 391.09 1526.55 391.326C1541.9 395.109 1549.23 405.75 1551.35 420.646C1552.77 430.577 1553.01 440.508 1553.71 450.439C1554.19 458.715 1554.19 466.754 1557.49 474.557C1558.2 476.212 1558.91 477.631 1559.86 479.759ZM1464.42 372.646V372.41C1471.74 372.41 1479.3 372.646 1486.62 372.41C1500.56 371.937 1509.77 363.898 1511.19 350.657C1512.61 338.598 1507.88 328.903 1495.36 325.356C1490.4 323.938 1485.44 323.228 1480.25 323.228C1467.49 322.992 1454.73 323.228 1441.74 322.992C1439.38 322.992 1438.43 323.701 1438.43 326.066C1438.43 340.489 1438.43 355.149 1438.43 369.573C1438.43 372.174 1439.38 372.883 1441.74 372.883C1449.3 372.646 1456.86 372.646 1464.42 372.646Z" fill="#C0C0C0"/>
<path d="M687.679 479.522C686.497 479.522 685.552 479.759 684.608 479.759C671.615 479.759 658.858 479.759 645.865 479.759C643.03 479.759 642.322 478.813 642.322 476.212C642.322 450.912 642.322 425.611 642.322 400.311C642.322 396.055 642.322 396.055 638.069 396.055C616.572 396.055 595.311 396.055 573.814 396.055C570.979 396.055 570.27 396.764 570.27 399.602C570.27 425.139 570.27 450.439 570.27 475.976C570.27 479.995 570.27 479.995 566.254 479.995C553.497 479.995 540.505 479.995 527.748 479.995C526.567 479.995 525.622 479.995 524.204 479.995C524.204 415.208 524.204 350.657 524.204 285.633C525.149 285.633 526.094 285.396 527.039 285.396C540.268 285.396 553.734 285.396 566.963 285.396C569.561 285.396 570.27 286.105 570.27 288.706C570.27 310.933 570.27 332.923 570.27 355.149C570.27 359.405 570.27 359.405 574.286 359.405C595.547 359.405 617.045 359.405 638.306 359.405C642.322 359.405 642.322 359.405 642.322 355.386C642.322 333.396 642.322 311.406 642.322 289.179C642.322 286.342 643.03 285.396 646.101 285.396C658.858 285.633 671.851 285.396 684.608 285.396C685.552 285.396 686.497 285.396 687.915 285.396C687.679 350.184 687.679 414.735 687.679 479.522Z" fill="#C0C0C0"/>
<path d="M398.055 418.282C398.055 424.666 399.945 430.341 403.016 435.779C406.796 442.163 412.465 446.419 419.552 448.311C431.6 451.385 443.885 451.621 455.933 448.311C471.288 444.055 474.123 430.104 470.343 417.572C468.925 412.843 465.146 409.769 460.421 408.351C449.554 405.04 438.687 401.494 427.584 398.656C414.828 395.346 401.835 393.218 389.551 387.779C386.007 386.124 382.464 384.469 379.156 382.577C368.053 376.666 361.675 367.208 359.549 354.913C357.187 341.908 357.423 328.903 361.911 316.135C365.691 305.022 373.014 296.982 383.409 292.017C396.401 285.633 410.103 282.086 424.513 281.14C440.341 279.958 456.169 280.194 471.524 284.687C493.966 291.071 505.069 307.623 510.739 328.903C511.211 331.031 511.211 333.396 511.684 335.76C511.92 337.888 511.448 338.598 509.085 338.598C496.329 338.598 483.572 338.598 470.815 338.598C470.107 338.598 468.689 337.652 468.453 337.179C466.799 325.12 459.24 319.209 448.137 316.844C438.924 314.953 429.71 314.953 420.497 317.081C412.229 319.209 406.323 324.174 403.725 332.686C400.89 341.435 404.433 349.711 412.938 352.785C420.497 355.622 428.057 357.75 435.853 359.405C452.625 362.952 469.634 366.026 485.462 372.647C488.297 373.829 490.895 375.011 493.73 376.43C508.14 383.523 515.936 395.109 518.062 410.952C519.716 423.956 518.298 436.725 512.865 448.784C504.833 466.281 491.604 477.158 472.705 481.414C455.46 485.197 437.742 486.143 420.261 484.488C413.41 483.778 406.323 483.069 399.709 481.177C374.432 474.32 358.84 458.242 353.171 432.705C352.226 428.212 351.753 423.72 351.044 418.991C367.108 418.282 382.464 418.282 398.055 418.282Z" fill="#C0C0C0"/>
<path d="M738.233 367.208C737.288 366.262 736.815 365.317 736.107 364.371C728.783 355.149 722.877 345.218 721.696 333.159C720.279 318.736 725.004 306.677 735.398 296.746C743.194 289.416 752.643 285.633 763.037 284.214C774.613 282.559 786.188 283.268 797.291 287.524C817.371 295.327 827.293 313.297 824.931 334.578C823.277 349.001 815.718 359.642 804.615 368.154C800.599 371.228 796.11 373.829 791.385 377.139C800.362 387.543 809.575 398.183 819.261 409.296C820.915 405.75 822.332 402.912 823.277 400.075C824.458 397.237 825.167 394.164 826.112 391.09C838.16 391.09 849.972 391.09 862.492 391.09C859.421 408.351 851.861 423.247 841.231 436.961C853.279 451.148 865.327 465.099 877.611 479.522C876.43 479.759 875.721 479.759 875.012 479.759C860.366 479.759 845.719 479.759 831.073 479.759C828.947 479.759 827.766 479.049 826.584 477.394C822.568 472.429 818.552 467.463 814.3 462.261C813.355 462.971 812.883 463.444 812.174 463.917C800.126 475.503 785.716 481.177 769.416 483.069C755.95 484.724 742.721 484.724 729.964 479.995C708.94 472.192 696.419 457.296 693.348 434.833C689.096 403.622 705.396 383.523 728.311 371.701C731.618 370.282 734.925 368.863 738.233 367.208ZM794.693 438.38C793.748 437.198 793.275 436.488 792.567 435.542C781.7 422.301 770.833 408.824 759.966 395.582C759.494 394.873 757.604 394.636 756.895 395.109C753.115 397.237 749.099 399.129 745.792 401.966C736.579 409.296 734.217 419.227 737.052 430.341C739.886 441.454 746.973 449.02 758.785 450.675C763.51 451.385 768.471 451.148 773.432 450.675C781.936 449.257 789.023 445.473 794.693 438.38ZM756.895 327.248C757.368 328.903 757.84 332.213 759.494 334.814C762.801 340.726 766.345 346.4 769.888 351.839C770.124 352.312 771.542 352.785 772.25 352.312C778.393 349.947 784.298 346.637 788.551 341.435C792.567 336.706 794.929 331.268 793.984 325.12C792.567 315.189 786.188 309.278 776.266 309.041C765.872 308.805 757.368 314.716 756.895 327.248Z" fill="#C0C0C0"/>
<path d="M1048.88 350.657C1047.7 350.657 1046.75 350.893 1045.57 350.893C1033.05 350.893 1020.3 350.893 1007.78 350.893C1005.18 350.893 1004.23 350.184 1003.76 347.583C1001.16 334.341 991.712 319.682 972.105 317.79C960.766 316.608 949.662 317.317 939.741 323.938C928.638 331.268 922.732 342.144 919.425 354.44C915.881 366.972 915.881 379.74 916.826 392.508C917.535 401.966 919.188 411.424 922.968 420.173C928.874 433.651 938.087 443.818 952.97 447.601C962.183 449.966 971.16 449.493 980.137 446.892C991.712 443.582 998.091 434.597 1002.34 424.193C1003.76 420.646 1004.47 416.863 1005.41 413.316C1005.65 412.607 1006.6 411.424 1007.3 411.424C1020.77 411.424 1034.23 411.424 1047.94 411.424C1048.64 411.424 1049.59 411.424 1051.24 411.661C1050.3 416.626 1049.83 421.592 1048.64 426.321C1040.61 457.532 1020.06 475.266 989.586 482.596C969.034 487.562 948.245 487.562 927.929 481.887C898.4 473.611 879.737 453.986 871.705 424.666C867.217 408.587 866.508 392.035 867.453 375.247C868.162 361.06 870.524 347.346 875.721 334.105C887.297 304.549 909.03 287.524 940.449 282.322C961.238 279.012 981.79 279.485 1001.87 286.342C1028.09 295.327 1042.74 314.716 1048.17 341.435C1048.64 344.036 1048.88 346.873 1049.35 349.474C1049.12 349.711 1048.88 349.947 1048.88 350.657Z" fill="#C0C0C0"/>
<path d="M368.289 479.759C365.927 479.759 363.801 479.759 361.911 479.759C348.918 479.759 336.162 479.759 323.169 479.759C320.57 479.759 319.625 478.813 318.68 476.448C315.373 466.281 311.829 456.35 308.286 446.183C307.577 444.055 306.632 443.345 304.506 443.345C282.536 443.345 260.567 443.345 238.833 443.345C236.471 443.345 235.526 444.291 234.817 446.419C231.274 456.823 227.73 466.99 224.186 477.394C223.714 478.813 223.242 479.759 221.352 479.759C206.705 479.759 191.822 479.759 177.176 479.759C176.703 479.759 176.467 479.522 175.758 479.522C176.467 477.867 176.94 476.212 177.412 474.793C200.563 412.843 223.714 350.893 246.629 288.943C247.574 286.342 248.991 285.396 251.826 285.396C265.055 285.633 278.284 285.633 291.513 285.396C293.639 285.396 294.584 286.105 295.529 287.997C319.625 351.129 343.721 414.262 367.817 477.394C367.581 477.867 367.817 478.576 368.289 479.759ZM297.183 410.715C288.442 385.888 279.938 361.533 271.433 337.179C271.197 337.179 270.961 337.179 270.488 337.179C262.22 361.533 253.952 386.124 245.684 410.715C262.929 410.715 279.702 410.715 297.183 410.715Z" fill="#C0C0C0"/>
<path d="M1541.19 285.396C1543.56 285.396 1545.45 285.396 1547.34 285.396C1561.51 285.396 1575.68 285.396 1590.09 285.396C1592.22 285.396 1593.4 286.105 1594.35 287.997C1607.1 314.243 1620.1 340.253 1633.09 366.499C1633.56 367.445 1634.03 368.39 1634.98 369.809C1635.69 368.39 1636.4 367.445 1636.87 366.262C1649.63 340.253 1662.38 314.48 1674.9 288.47C1676.08 285.869 1677.5 285.16 1680.34 285.16C1694.75 285.396 1708.92 285.16 1723.33 285.16C1724.51 285.16 1725.46 285.16 1727.11 285.16C1726.4 286.578 1725.93 287.524 1725.22 288.706C1703.25 326.775 1681.28 364.844 1659.07 402.912C1657.66 405.513 1656.95 407.878 1656.95 410.715C1656.95 432.232 1656.95 453.749 1656.95 475.266C1656.95 476.448 1656.95 477.631 1656.95 479.286C1655.77 479.286 1654.82 479.522 1653.64 479.522C1640.41 479.522 1627.42 479.522 1614.19 479.522C1611.36 479.522 1610.65 478.813 1610.65 475.976C1610.65 454.222 1610.65 432.232 1610.65 410.479C1610.65 408.114 1609.94 405.513 1608.76 403.385C1586.79 364.844 1564.58 326.539 1542.61 288.234C1542.37 287.524 1541.9 286.815 1541.19 285.396Z" fill="#C0C0C0"/>
</svg>
