<svg width="1505" height="378" viewBox="0 0 1505 378" fill="none" xmlns="http://www.w3.org/2000/svg">
<g clip-path="url(#clip0_831_5856)">
<path d="M218.47 215.605C203.773 231.88 178.677 233.161 162.4 218.476C146.117 203.791 144.813 178.681 159.481 162.403C174.171 146.124 199.285 144.857 215.562 159.539C231.839 174.225 233.138 199.327 218.47 215.605Z" fill="white"/>
<path d="M75.3128 38.0025C49.3387 57.5936 28.5818 83.734 15.4961 113.969C31.1992 117.84 78.2152 133.141 99.7858 191.38C106.274 189.266 120.259 181.115 129.963 149.646C142.975 107.515 167.659 66.9914 199.67 53.3843C167.748 21.8031 125.69 14.3667 75.3128 38.0025Z" fill="white"/>
<path d="M334.512 68.4666C334.515 68.4631 334.518 68.4594 334.521 68.4558C299.864 26.6374 247.531 0 188.977 0C146.308 0 106.942 14.1456 75.3125 38.0029C145.249 5.1898 199.15 32.2587 232.158 100.679C284.734 110.109 320.441 83.9479 334.512 68.4666Z" fill="white"/>
<path d="M115.086 362.884C145.038 375.584 178.053 380.492 210.778 376.708C206.278 361.172 196.02 312.801 235.667 264.999C230.593 260.437 216.541 252.4 184.439 259.73C141.449 269.526 94.0156 268.409 66.2271 247.488C54.8397 290.926 69.4292 331.07 115.086 362.884Z" fill="white"/>
<path d="M11.8666 123.161C11.862 123.16 11.8575 123.16 11.8529 123.159C-7.03128 174.085 -3.93188 232.728 25.3451 283.441C46.6798 320.397 78.6121 347.419 115.086 362.884C51.7032 318.719 48.1935 258.502 90.9387 195.704C72.8161 145.453 32.3082 127.607 11.8666 123.161Z" fill="white"/>
<path d="M376.533 165.996C372.555 133.705 360.297 102.657 340.657 76.2062C329.454 87.8713 292.696 120.941 231.478 110.503C230.065 117.18 230.13 133.368 252.529 157.507C282.507 189.842 305.257 231.482 301.034 266.01C344.343 254.154 371.811 221.446 376.533 165.996Z" fill="white"/>
<path d="M220.552 375.255C220.554 375.26 220.556 375.264 220.557 375.268C274.099 366.161 323.332 334.155 352.609 283.441C373.944 246.486 381.377 205.319 376.533 165.996C369.979 242.974 319.588 276.122 243.835 270.5C209.381 311.322 214.182 355.328 220.552 375.255Z" fill="white"/>
<path d="M442.349 22.6767H432.65V355.276H442.349V22.6767Z" fill="white"/>
<path d="M527.36 189.006H497.045V47.5424H545.748C554.641 47.5424 562.655 48.4875 569.799 50.372C576.939 52.2598 583.034 55.1212 588.087 58.962C593.139 62.8 597.011 67.7204 599.706 73.7151C602.402 79.7099 603.751 86.75 603.751 94.8325C603.751 102.784 602.367 109.855 599.606 116.053C596.845 122.251 592.838 127.47 587.582 131.714C582.326 135.956 575.928 139.19 568.384 141.415C560.837 143.638 552.35 144.749 542.921 144.749H527.36V189.006ZM526.753 118.072H543.325C552.485 118.072 559.625 116.288 564.747 112.716C569.864 109.15 572.425 103.591 572.425 96.0444C572.425 88.0962 569.93 82.4738 564.947 79.1713C559.963 75.8719 552.822 74.2194 543.525 74.2194H526.753V118.072Z" fill="white"/>
<path d="M695.497 191.432C685.257 191.432 675.926 189.846 667.508 186.684C659.087 183.519 651.847 178.836 645.783 172.638C639.72 166.442 635.037 158.795 631.737 149.698C628.435 140.605 626.788 130.131 626.788 118.276C626.788 106.421 628.503 95.9443 631.94 86.8505C635.375 77.7567 640.124 70.1123 646.187 63.9138C652.25 57.7162 659.425 53.033 667.711 49.8682C675.994 46.7031 684.988 45.1193 694.689 45.1193C705.602 45.1193 715.334 46.8035 723.892 50.1716C732.445 53.5404 739.654 58.355 745.514 64.6183C751.377 70.8855 755.854 78.5643 758.956 87.6581C762.052 96.7519 763.601 106.957 763.601 118.276C763.601 130.803 761.886 141.684 758.449 150.913C755.015 160.141 750.229 167.754 744.102 173.749C737.97 179.744 730.764 184.192 722.477 187.087C714.191 189.983 705.198 191.432 695.497 191.432ZM696.508 164.755C701.626 164.755 706.34 163.813 710.654 161.926C714.964 160.041 718.668 157.177 721.77 153.336C724.866 149.498 727.258 144.683 728.944 138.889C730.626 133.098 731.471 126.227 731.471 118.276C731.471 102.242 728.1 90.4879 721.366 83.0095C714.626 75.5342 705.736 71.7936 694.689 71.7936C689.702 71.7936 685.02 72.7385 680.643 74.6231C676.264 76.5107 672.46 79.372 669.226 83.213C665.993 87.0511 663.466 91.9025 661.648 97.7625C659.829 103.622 658.919 110.463 658.919 118.276C658.919 126.227 659.895 133.098 661.849 138.889C663.802 144.683 666.462 149.498 669.831 153.336C673.199 157.177 677.175 160.041 681.754 161.926C686.334 163.813 691.255 164.755 696.508 164.755Z" fill="white"/>
<path d="M899.407 183.404C897.516 184.344 895.465 185.28 893.243 186.214C891.02 187.153 888.391 188.021 885.361 188.823C882.331 189.625 878.825 190.261 874.855 190.73C870.879 191.194 866.331 191.432 861.21 191.432C850.429 191.432 840.628 189.88 831.806 186.784C822.985 183.685 815.44 179.139 809.173 173.142C802.906 167.15 798.06 159.703 794.623 150.813C791.186 141.92 789.468 131.683 789.468 120.095C789.468 107.968 791.186 97.2269 794.623 87.8611C798.06 78.4981 803.009 70.6507 809.477 64.3181C815.944 57.9855 823.792 53.2019 833.02 49.9687C842.249 46.7349 852.657 45.1194 864.246 45.1194C871.922 45.1194 878.825 45.7955 884.96 47.1388C891.089 48.4875 896.038 50.0373 899.813 51.7869L893.14 77.25C888.827 75.7687 884.45 74.6918 880.005 74.0161C875.56 73.3455 871.722 73.0076 868.485 73.0076C861.479 73.0076 855.115 73.8842 849.392 75.6397C843.664 77.3959 838.743 80.1311 834.636 83.8429C830.523 87.558 827.326 92.2834 825.035 98.0206C822.744 103.763 821.604 110.545 821.604 118.376C821.604 133.364 825.808 144.64 834.235 152.202C842.65 159.763 854.004 163.544 868.284 163.544C871.521 163.544 875.422 163.109 880.005 162.23C884.587 161.356 889.032 159.975 893.346 158.088L899.407 183.404Z" fill="white"/>
<path d="M1014.59 158.088H960.231L950.126 189.006H920.218L968.519 47.5424H1007.93L1055.62 189.006H1024.7L1014.59 158.088ZM968.519 131.411H1006.31L987.515 71.9963L968.519 131.411Z" fill="white"/>
<path d="M1124.54 189.006H1094.22V75.4308H1054V47.5424H1164.55V75.4308H1124.54V189.006Z" fill="white"/>
<path d="M1247.41 191.432C1237.17 191.432 1227.84 189.846 1219.42 186.684C1211 183.519 1203.76 178.836 1197.7 172.638C1191.63 166.442 1186.95 158.795 1183.65 149.698C1180.34 140.605 1178.69 130.131 1178.69 118.276C1178.69 106.421 1180.41 95.9443 1183.85 86.8505C1187.29 77.7567 1192.04 70.1123 1198.1 63.9138C1204.16 57.7162 1211.33 53.033 1219.62 49.8682C1227.91 46.7031 1236.9 45.1193 1246.6 45.1193C1257.51 45.1193 1267.24 46.8035 1275.8 50.1716C1284.35 53.5404 1291.57 58.355 1297.43 64.6183C1303.29 70.8855 1307.76 78.5643 1310.86 87.6581C1313.96 96.7519 1315.51 106.957 1315.51 118.276C1315.51 130.803 1313.79 141.684 1310.36 150.913C1306.92 160.141 1302.14 167.754 1296.01 173.749C1289.88 179.744 1282.67 184.192 1274.39 187.087C1266.1 189.983 1257.11 191.432 1247.41 191.432ZM1248.42 164.755C1253.54 164.755 1258.25 163.813 1262.56 161.926C1266.88 160.041 1270.58 157.177 1273.68 153.336C1276.78 149.498 1279.16 144.683 1280.85 138.889C1282.54 133.098 1283.38 126.227 1283.38 118.276C1283.38 102.242 1280.01 90.4879 1273.28 83.0095C1266.54 75.5342 1257.64 71.7936 1246.6 71.7936C1241.61 71.7936 1236.93 72.7385 1232.55 74.6231C1228.18 76.5107 1224.37 79.372 1221.14 83.213C1217.9 87.0511 1215.37 91.9025 1213.56 97.7625C1211.74 103.622 1210.83 110.463 1210.83 118.276C1210.83 126.227 1211.8 133.098 1213.76 138.889C1215.71 144.683 1218.37 149.498 1221.74 153.336C1225.11 157.177 1229.08 160.041 1233.66 161.926C1238.24 163.813 1243.16 164.755 1248.42 164.755Z" fill="white"/>
<path d="M1504.67 189.006H1474.16L1466.48 95.0331L1437.38 189.006H1408.48L1379.78 95.4398L1372.1 189.006H1341.59L1355.73 47.5424H1391.9L1423.83 154.247L1455.36 47.5424H1490.32L1504.67 189.006Z" fill="white"/>
<path d="M558.726 327.295C554.644 329.449 548.862 331.83 537.297 331.83C513.032 331.83 497.045 317.884 497.045 291.806C497.045 264.48 513.032 249.741 538.997 249.741C547.614 249.741 554.758 251.555 558.953 253.482L555.212 267.769C550.449 266.181 545.006 265.388 541.379 265.388C525.732 265.388 515.074 273.211 515.074 290.786C515.074 307.566 525.278 316.07 541.265 316.07C544.893 316.07 550.449 315.049 555.325 313.009L558.726 327.295Z" fill="white"/>
<path d="M630.491 330.47H579.582V251.101H630.491V266.068H596.59V282.962H626.41V296.908H596.59V315.503H630.491V330.47Z" fill="white"/>
<path d="M668.47 330.47H651.462V251.101H678.787C698.743 251.101 711.329 259.379 711.329 277.633C711.329 295.547 698.403 305.639 677.2 305.639H668.47V330.47ZM668.13 290.672H677.427C687.631 290.672 693.754 286.704 693.754 278.314C693.754 269.47 687.971 266.068 677.54 266.068H668.13V290.672Z" fill="white"/>
<path d="M730.372 330.47V251.101H761.213C778.561 251.101 788.198 258.358 788.198 271.284C788.198 281.488 781.622 287.044 772.664 289.084V289.312C783.096 289.879 790.239 298.042 790.239 306.999C790.239 319.925 781.622 330.47 760.192 330.47H730.372ZM747.38 283.983H756.791C766.996 283.983 771.304 280.241 771.304 274.232C771.304 267.315 766.202 265.161 757.131 265.161H747.38V283.983ZM747.38 316.41H756.677C766.541 316.41 772.55 314.142 772.55 306.545C772.55 298.836 767.222 296.114 757.584 296.114H747.38V316.41Z" fill="white"/>
<path d="M877.312 330.47H860.304V275.139L828.33 330.47H810.075V251.101H827.083V306.319L859.17 251.101H877.312V330.47Z" fill="white"/>
<path d="M959.621 327.295C955.539 329.449 949.756 331.83 938.191 331.83C913.927 331.83 897.94 317.884 897.94 291.806C897.94 264.48 913.927 249.741 939.892 249.741C948.509 249.741 955.652 251.555 959.847 253.482L956.107 267.769C951.344 266.181 945.901 265.388 942.273 265.388C926.626 265.388 915.969 273.211 915.969 290.786C915.969 307.566 926.173 316.07 942.16 316.07C945.788 316.07 951.344 315.049 956.22 313.009L959.621 327.295Z" fill="white"/>
</g>
<defs>
<clipPath id="clip0_831_5856">
<rect width="1504.67" height="377.953" fill="white"/>
</clipPath>
</defs>
</svg>
