<svg width="1387" height="606" viewBox="0 0 1387 606" fill="none" xmlns="http://www.w3.org/2000/svg">
<g clip-path="url(#clip0_1_6)">
<mask id="mask0_1_6" style="mask-type:luminance" maskUnits="userSpaceOnUse" x="0" y="0" width="1387" height="606">
<path d="M1387 0H0V606H1387V0Z" fill="white"/>
</mask>
<g mask="url(#mask0_1_6)">
<path d="M908.995 274.693V181.146H940.553V224.411C940.493 226.76 940.299 229.102 939.972 231.428H941.143L975.627 181.146H1006.02V274.693H974.463V230.838C974.489 228.877 974.684 226.921 975.045 224.993H973.873L939.39 275.276H908.995V274.693Z" fill="#F0F0F0"/>
<path d="M842.953 248.372C845.553 248.433 848.137 247.956 850.544 246.971C852.95 245.986 855.127 244.514 856.939 242.647C858.75 240.781 860.156 238.56 861.069 236.125C861.982 233.689 862.382 231.091 862.244 228.494C862.131 224.702 860.904 221.027 858.715 217.929C856.527 214.831 853.475 212.446 849.94 211.073C846.404 209.7 842.543 209.399 838.838 210.208C835.133 211.017 831.748 212.9 829.106 215.622C826.465 218.344 824.684 221.784 823.985 225.513C823.287 229.242 823.702 233.094 825.18 236.587C826.657 240.081 829.131 243.062 832.292 245.158C835.453 247.254 839.161 248.372 842.953 248.372ZM842.953 178.802C873.348 178.802 895.564 199.852 895.564 227.912C895.564 255.971 872.766 277.022 842.953 277.022C813.141 277.022 790.343 255.971 790.343 227.912C790.343 199.852 813.141 178.802 842.953 178.802Z" fill="#F0F0F0"/>
<path d="M212.291 372.331C216.594 372.524 220.891 371.842 224.923 370.328C228.956 368.814 232.64 366.498 235.753 363.52C238.866 360.542 241.343 356.965 243.036 353.003C244.729 349.041 245.601 344.777 245.601 340.468C245.601 336.16 244.729 331.896 243.036 327.934C241.343 323.972 238.866 320.394 235.753 317.417C232.64 314.439 228.956 312.123 224.923 310.609C220.891 309.094 216.594 308.413 212.291 308.606C208.069 308.507 203.872 309.276 199.96 310.865C196.047 312.454 192.502 314.829 189.544 317.843C186.586 320.857 184.278 324.447 182.762 328.389C181.247 332.332 180.556 336.543 180.732 340.763C180.568 344.953 181.271 349.132 182.799 353.036C184.326 356.941 186.645 360.487 189.609 363.452C192.573 366.417 196.118 368.736 200.022 370.264C203.925 371.792 208.102 372.496 212.291 372.331ZM212.291 291.063C218.926 290.825 225.541 291.926 231.742 294.302C237.942 296.677 243.6 300.278 248.379 304.889C253.157 309.5 256.958 315.027 259.554 321.14C262.15 327.253 263.488 333.827 263.488 340.468C263.488 347.11 262.15 353.683 259.554 359.796C256.958 365.909 253.157 371.436 248.379 376.048C243.6 380.659 237.942 384.26 231.742 386.635C225.541 389.011 218.926 390.112 212.291 389.873C205.655 390.112 199.04 389.011 192.84 386.635C186.639 384.26 180.981 380.659 176.202 376.048C171.424 371.436 167.623 365.909 165.028 359.796C162.432 353.683 161.094 347.11 161.094 340.468C161.094 333.827 162.432 327.253 165.028 321.14C167.623 315.027 171.424 309.5 176.202 304.889C180.981 300.278 186.639 296.677 192.84 294.302C199.04 291.926 205.655 290.825 212.291 291.063Z" fill="#F0F0F0"/>
<path d="M640.132 306.851C643.587 306.695 647.038 307.222 650.289 308.401C653.54 309.58 656.527 311.389 659.078 313.724C661.63 316.059 663.696 318.875 665.158 322.009C666.621 325.144 667.451 328.536 667.601 331.992H612.663C613.403 325.177 616.6 318.865 621.656 314.237C626.712 309.61 633.281 306.984 640.132 306.851ZM685.138 346.608C685.138 344.854 685.72 342.518 685.72 340.763C685.72 312.114 671.109 291.071 639.543 291.071C612.655 291.071 593.365 312.122 593.365 340.763C593.269 342.73 593.465 344.699 593.947 346.608C596.282 371.167 612.066 389.873 644.796 389.873C658.965 390.39 672.853 385.829 683.958 377.012L676.362 363.568C667.233 370.352 656.176 374.04 644.804 374.093C624.349 374.093 613.827 362.986 612.074 346.616H685.13L685.138 346.608Z" fill="#F0F0F0"/>
<path d="M768.127 293.4V331.984H717.278V293.4H698.578V386.947H717.278V346.6H768.127V386.939H786.827V293.4H768.127Z" fill="#F0F0F0"/>
<path d="M886.197 293.4H799.693V310.352H833.595V386.939H852.304V310.352H886.205L886.197 293.4Z" fill="#F0F0F0"/>
<path d="M1006.6 293.4H987.903V386.947H1006.6V293.4Z" fill="#F0F0F0"/>
<path d="M317.503 337.837V337.255C318.825 336.733 320.02 335.937 321.011 334.919C322.764 333.164 357.248 293.99 357.248 293.99H336.204L302.892 332.574H295.295V293.4H276.587V386.947H295.288V346.026H304.056L339.711 386.955H363.091C363.091 386.955 322.764 341.935 321.011 340.181C320.02 339.163 318.825 338.359 317.503 337.837Z" fill="#F0F0F0"/>
<path d="M929.449 372.913C923.606 372.913 918.345 372.331 918.345 372.331V338.419C922.176 337.54 926.102 337.146 930.031 337.247C945.814 337.247 952.829 343.092 952.829 354.789C952.247 365.896 946.396 372.913 929.449 372.913ZM932.957 322.049C928.061 322.004 923.171 322.396 918.345 323.221V293.4H899.645V386.947C899.645 386.947 915.428 388.701 931.203 388.701C961.016 388.701 970.366 371.159 970.366 354.207C970.366 337.837 961.598 322.049 932.957 322.049Z" fill="#F0F0F0"/>
<path d="M103.579 372.331C84.2882 372.331 74.356 358.297 74.9379 340.763C75.5277 322.631 86.0418 308.605 105.332 308.605C112.131 308.977 118.513 312.003 123.104 317.033C127.696 322.063 130.13 328.694 129.884 335.501V361.232C126.508 364.805 122.426 367.638 117.898 369.55C113.369 371.462 108.493 372.404 103.579 372.331ZM131.048 293.4L130.466 305.097H129.294C126.066 300.841 121.92 297.368 117.164 294.938C112.407 292.508 107.164 291.184 101.825 291.063C74.3639 291.063 57.991 312.114 56.8271 340.755C56.2452 368.823 72.6103 389.865 100.669 389.865C106.054 390.292 111.459 389.334 116.37 387.083C121.281 384.832 125.535 381.362 128.728 377.004H129.9V385.193C129.9 403.317 117.042 410.334 103.013 410.334C92.4389 410.355 82.0859 407.308 73.2081 401.563L66.7753 416.761C77.7389 423.279 90.2588 426.714 103.013 426.704C129.318 426.704 149.19 410.916 149.19 381.102V293.392L131.048 293.4Z" fill="#F0F0F0"/>
<path d="M437.87 293.4V361.224C434.937 364.874 431.186 367.782 426.92 369.711C422.655 371.641 417.995 372.539 413.318 372.331C395.781 372.331 388.185 358.297 388.185 340.763V293.982H370.114V340.755C369.532 368.823 380.636 389.865 408.687 389.865C414.078 390.351 419.503 389.42 424.425 387.164C429.346 384.908 433.593 381.406 436.746 377.004H437.87V385.193C437.87 403.317 425.012 410.334 410.983 410.334C400.409 410.355 390.056 407.308 381.178 401.563L374.745 416.761C385.71 423.276 398.229 426.708 410.983 426.696C437.288 426.696 457.16 410.908 457.16 381.094V293.4H437.87Z" fill="#F0F0F0"/>
<path d="M562.397 293.4C562.397 293.4 531.42 336.665 530.248 337.837C529.581 338.443 529.163 339.276 529.077 340.173H528.495L527.323 337.837C526.159 336.665 492.847 293.4 492.847 293.4H475.311V386.947H494.011V327.312C494.082 325.108 493.683 322.914 492.839 320.877H494.011L528.495 367.069H529.077L561.225 320.877H562.397C561.553 322.914 561.154 325.108 561.225 327.312V386.947H579.925V293.4H562.397Z" fill="#F0F0F0"/>
<path d="M752.36 181.146C752.36 181.146 726.055 215.058 724.891 216.23C723.719 217.985 723.719 218.567 723.719 218.567H722.547C722.547 218.567 722.547 217.395 720.794 216.23C719.04 213.894 691.571 181.146 691.571 181.146H666.438V274.693H696.832V235.519C696.847 233.167 696.652 230.819 696.25 228.502H697.422L721.973 256.569H723.145L745.943 228.502H747.115C746.665 230.812 746.47 233.166 746.533 235.519V274.693H776.927V181.146H752.36Z" fill="#F0F0F0"/>
<path d="M1152.72 272.349V178.22H1078.5V272.349C1078.48 288.729 1082.8 304.822 1091.01 318.993C1099.22 333.164 1111.04 344.909 1125.26 353.035L1208.83 401.563V315.614L1162.66 288.719C1159.63 287.196 1157.1 284.854 1155.34 281.959C1153.58 279.065 1152.67 275.735 1152.72 272.349" fill="#B8B8B8"/>
<path d="M1208.83 364.142L1292.41 315.614C1306.6 307.448 1318.38 295.695 1326.59 281.533C1334.8 267.371 1339.14 251.298 1339.17 234.929V47.8421H1208.83V122.093H1264.36V234.937C1264.33 238.236 1263.45 241.471 1261.81 244.336C1260.18 247.201 1257.83 249.6 1255.01 251.307L1208.83 278.194V364.142Z" fill="#DDDDDD"/>
<path d="M1208.83 47.8421L1078.5 178.22H1208.83V47.8421Z" fill="#F0F0F0"/>
<path d="M1003.92 459.795L1009.71 460.511C1008.79 463.896 1007.1 466.523 1004.63 468.392C1002.16 470.26 999.007 471.195 995.166 471.195C990.33 471.195 986.489 469.71 983.645 466.741C980.822 463.751 979.411 459.567 979.411 454.188C979.411 448.624 980.843 444.304 983.708 441.231C986.572 438.158 990.288 436.621 994.855 436.621C999.277 436.621 1002.89 438.127 1005.69 441.138C1008.49 444.149 1009.89 448.385 1009.89 453.846C1009.89 454.178 1009.88 454.676 1009.86 455.341H985.202C985.41 458.975 986.437 461.757 988.285 463.688C990.132 465.62 992.437 466.585 995.197 466.585C997.253 466.585 999.007 466.045 1000.46 464.965C1001.91 463.886 1003.06 462.162 1003.92 459.795ZM985.514 450.731H1003.98C1003.73 447.949 1003.02 445.862 1001.86 444.471C1000.08 442.311 997.761 441.231 994.917 441.231C992.343 441.231 990.174 442.093 988.409 443.816C986.666 445.54 985.7 447.845 985.514 450.731Z" fill="#DDDDDD"/>
<path d="M966.924 437.369H972.529V470.447H966.924V437.369ZM935.569 437.369H941.174V450.295H948.273C952.902 450.295 956.462 451.198 958.953 453.005C961.465 454.791 962.721 457.262 962.721 460.418C962.721 463.18 961.673 465.547 959.576 467.52C957.5 469.471 954.168 470.447 949.581 470.447H935.569V437.369ZM941.174 465.838H947.059C950.608 465.838 953.141 465.402 954.656 464.529C956.172 463.657 956.929 462.297 956.929 460.449C956.929 459.016 956.369 457.739 955.248 456.618C954.127 455.497 951.646 454.936 947.806 454.936H941.174V465.838Z" fill="#DDDDDD"/>
<path d="M900.227 437.369H905.832V451.136H921.37V437.369H926.975V470.447H921.37V455.777H905.832V470.447H900.227V437.369Z" fill="#DDDDDD"/>
<path d="M864.979 437.369H870.584V451.136H886.122V437.369H891.727V470.447H886.122V455.777H870.584V470.447H864.979V437.369Z" fill="#DDDDDD"/>
<path d="M852.088 459.795L857.88 460.511C856.967 463.896 855.275 466.523 852.804 468.392C850.334 470.26 847.179 471.195 843.339 471.195C838.502 471.195 834.662 469.71 831.818 466.741C828.994 463.751 827.583 459.567 827.583 454.188C827.583 448.624 829.015 444.304 831.88 441.231C834.745 438.158 838.46 436.621 843.027 436.621C847.449 436.621 851.061 438.127 853.863 441.138C856.666 444.149 858.067 448.385 858.067 453.846C858.067 454.178 858.056 454.676 858.036 455.341H833.375C833.582 458.975 834.61 461.757 836.457 463.688C838.305 465.62 840.609 466.585 843.37 466.585C845.425 466.585 847.179 466.045 848.632 464.965C850.085 463.886 851.237 462.162 852.088 459.795ZM833.686 450.731H852.151C851.901 447.949 851.196 445.862 850.033 444.471C848.248 442.311 845.933 441.231 843.089 441.231C840.515 441.231 838.346 442.093 836.582 443.816C834.838 445.54 833.873 447.845 833.686 450.731Z" fill="#DDDDDD"/>
<path d="M796.352 437.369H809.274C812.45 437.369 814.806 437.639 816.342 438.179C817.899 438.698 819.228 439.664 820.328 441.076C821.449 442.488 822.009 444.18 822.009 446.153C822.009 447.731 821.677 449.112 821.013 450.295C820.369 451.458 819.394 452.434 818.086 453.223C819.643 453.742 820.93 454.718 821.947 456.151C822.985 457.563 823.504 459.245 823.504 461.197C823.296 464.332 822.175 466.658 820.141 468.174C818.107 469.689 815.149 470.447 811.267 470.447H796.352V437.369ZM801.957 451.292H807.935C810.322 451.292 811.962 451.167 812.855 450.918C813.747 450.669 814.547 450.171 815.252 449.423C815.958 448.655 816.311 447.741 816.311 446.682C816.311 444.938 815.688 443.723 814.443 443.038C813.218 442.353 811.111 442.01 808.122 442.01H801.957V451.292ZM801.957 465.838H809.336C812.512 465.838 814.692 465.474 815.875 464.747C817.058 464 817.681 462.723 817.743 460.916C817.743 459.857 817.401 458.881 816.716 457.988C816.031 457.075 815.138 456.504 814.038 456.275C812.938 456.026 811.173 455.902 808.745 455.902H801.957V465.838Z" fill="#DDDDDD"/>
<path d="M764.093 437.369H790.965V442.01H780.316V470.447H774.742V442.01H764.093V437.369Z" fill="#DDDDDD"/>
<path d="M756.807 458.331L762.318 459.047C761.716 462.847 760.17 465.827 757.679 467.987C755.209 470.125 752.167 471.195 748.555 471.195C744.03 471.195 740.387 469.721 737.626 466.772C734.886 463.803 733.516 459.556 733.516 454.033C733.516 450.461 734.107 447.336 735.291 444.657C736.474 441.979 738.27 439.975 740.678 438.646C743.106 437.296 745.743 436.621 748.587 436.621C752.178 436.621 755.115 437.535 757.399 439.362C759.682 441.169 761.145 443.744 761.789 447.087L756.34 447.928C755.821 445.706 754.897 444.034 753.569 442.913C752.261 441.792 750.673 441.231 748.805 441.231C745.981 441.231 743.688 442.249 741.923 444.284C740.159 446.298 739.276 449.496 739.276 453.877C739.276 458.321 740.127 461.55 741.83 463.564C743.532 465.578 745.753 466.585 748.493 466.585C750.694 466.585 752.531 465.91 754.005 464.561C755.478 463.211 756.412 461.134 756.807 458.331Z" fill="#DDDDDD"/>
<path d="M699.731 483.124V437.369H704.838V441.667C706.042 439.985 707.402 438.729 708.917 437.898C710.432 437.047 712.269 436.621 714.428 436.621C717.251 436.621 719.743 437.348 721.901 438.802C724.06 440.255 725.69 442.311 726.79 444.969C727.89 447.606 728.44 450.503 728.44 453.659C728.44 457.044 727.828 460.096 726.603 462.816C725.399 465.516 723.635 467.592 721.31 469.046C719.006 470.478 716.577 471.195 714.024 471.195C712.155 471.195 710.474 470.8 708.979 470.011C707.505 469.222 706.291 468.225 705.336 467.021V483.124H699.731ZM704.807 454.095C704.807 458.352 705.668 461.498 707.391 463.533C709.114 465.568 711.2 466.585 713.65 466.585C716.141 466.585 718.269 465.536 720.033 463.439C721.818 461.321 722.711 458.051 722.711 453.628C722.711 449.413 721.839 446.256 720.095 444.159C718.372 442.062 716.307 441.013 713.899 441.013C711.512 441.013 709.394 442.135 707.547 444.377C705.72 446.599 704.807 449.838 704.807 454.095Z" fill="#DDDDDD"/>
<path d="M685.813 466.367C683.737 468.132 681.734 469.378 679.803 470.105C677.893 470.831 675.838 471.195 673.638 471.195C670.005 471.195 667.213 470.312 665.262 468.547C663.311 466.762 662.335 464.488 662.335 461.726C662.335 460.106 662.698 458.632 663.425 457.303C664.172 455.953 665.137 454.874 666.321 454.064C667.525 453.254 668.874 452.642 670.369 452.226C671.469 451.936 673.129 451.655 675.351 451.385C679.876 450.845 683.208 450.202 685.346 449.454C685.367 448.686 685.377 448.198 685.377 447.99C685.377 445.706 684.848 444.097 683.789 443.162C682.357 441.896 680.229 441.262 677.406 441.262C674.769 441.262 672.818 441.73 671.552 442.664C670.306 443.578 669.382 445.208 668.78 447.554L663.3 446.807C663.798 444.46 664.618 442.571 665.76 441.138C666.902 439.684 668.552 438.573 670.711 437.805C672.87 437.016 675.371 436.621 678.215 436.621C681.038 436.621 683.332 436.954 685.097 437.618C686.861 438.283 688.159 439.124 688.989 440.141C689.819 441.138 690.4 442.404 690.733 443.941C690.919 444.896 691.013 446.62 691.013 449.111V456.587C691.013 461.799 691.127 465.1 691.355 466.492C691.604 467.862 692.082 469.181 692.788 470.447H686.934C686.353 469.284 685.979 467.924 685.813 466.367ZM685.346 453.846C683.311 454.676 680.26 455.382 676.191 455.964C673.887 456.296 672.258 456.67 671.303 457.085C670.348 457.5 669.611 458.113 669.092 458.923C668.573 459.712 668.313 460.594 668.313 461.57C668.313 463.065 668.874 464.311 669.995 465.308C671.137 466.305 672.797 466.803 674.977 466.803C677.136 466.803 679.056 466.336 680.737 465.401C682.419 464.446 683.654 463.148 684.443 461.508C685.045 460.241 685.346 458.373 685.346 455.902V453.846Z" fill="#DDDDDD"/>
<path d="M631.415 437.369H654.457V465.838H658.038V479.823H653.43V470.447H627.398V479.823H622.79V465.838H625.748C629.692 460.48 631.581 450.991 631.415 437.369ZM636.086 442.01C635.671 452.745 634.01 460.688 631.104 465.838H648.883V442.01H636.086Z" fill="#DDDDDD"/>
<path d="M596.977 483.187L596.354 477.923C597.579 478.255 598.648 478.421 599.561 478.421C600.807 478.421 601.803 478.213 602.55 477.798C603.298 477.383 603.91 476.801 604.388 476.054C604.74 475.493 605.311 474.102 606.1 471.88C606.204 471.569 606.37 471.112 606.598 470.51L594.05 437.369H600.091L606.972 456.525C607.865 458.954 608.664 461.508 609.37 464.187C610.013 461.612 610.781 459.099 611.674 456.649L618.742 437.369H624.347L611.767 471.008C610.418 474.642 609.37 477.144 608.622 478.514C607.626 480.363 606.484 481.712 605.197 482.564C603.91 483.436 602.374 483.872 600.589 483.872C599.509 483.872 598.305 483.643 596.977 483.187Z" fill="#DDDDDD"/>
<path d="M586.919 458.331L592.431 459.047C591.829 462.847 590.282 465.827 587.791 467.987C585.321 470.125 582.28 471.195 578.668 471.195C574.142 471.195 570.499 469.721 567.738 466.772C564.998 463.803 563.628 459.556 563.628 454.033C563.628 450.461 564.22 447.336 565.403 444.657C566.586 441.979 568.382 439.975 570.79 438.646C573.219 437.296 575.855 436.621 578.699 436.621C582.29 436.621 585.228 437.535 587.511 439.362C589.794 441.169 591.258 443.744 591.901 447.087L586.452 447.928C585.933 445.706 585.01 444.034 583.681 442.913C582.373 441.792 580.785 441.231 578.917 441.231C576.094 441.231 573.8 442.249 572.035 444.284C570.271 446.298 569.389 449.496 569.389 453.877C569.389 458.321 570.24 461.55 571.942 463.564C573.644 465.578 575.865 466.585 578.606 466.585C580.806 466.585 582.643 465.91 584.117 464.561C585.591 463.211 586.525 461.134 586.919 458.331Z" fill="#DDDDDD"/>
<path d="M527.758 453.908C527.758 447.783 529.46 443.245 532.864 440.297C535.708 437.847 539.175 436.621 543.264 436.621C547.81 436.621 551.526 438.117 554.411 441.107C557.297 444.076 558.74 448.187 558.74 453.441C558.74 457.698 558.096 461.051 556.809 463.501C555.543 465.931 553.685 467.821 551.235 469.17C548.807 470.52 546.15 471.195 543.264 471.195C538.635 471.195 534.888 469.71 532.023 466.741C529.18 463.771 527.758 459.494 527.758 453.908ZM533.518 453.908C533.518 458.144 534.442 461.321 536.289 463.439C538.137 465.536 540.462 466.585 543.264 466.585C546.046 466.585 548.36 465.526 550.208 463.408C552.055 461.29 552.979 458.061 552.979 453.721C552.979 449.631 552.045 446.537 550.177 444.439C548.329 442.321 546.025 441.262 543.264 441.262C540.462 441.262 538.137 442.311 536.289 444.408C534.442 446.506 533.518 449.672 533.518 453.908Z" fill="#DDDDDD"/>
<path d="M500.387 424.786H529.906V430.174H506.428V470.447H500.387V424.786Z" fill="#DDDDDD"/>
<path d="M980.618 509.132H986.222V534.361L1001.76 509.132H1007.8V542.211H1002.2V517.137L986.658 542.211H980.618V509.132Z" fill="#DDDDDD"/>
<path d="M957.358 509.132H976.383V513.773H962.963V542.211H957.358V509.132Z" fill="#DDDDDD"/>
<path d="M925.193 554.95L924.57 549.686C925.795 550.018 926.864 550.184 927.777 550.184C929.023 550.184 930.019 549.977 930.766 549.561C931.514 549.146 932.126 548.565 932.603 547.817C932.956 547.256 933.527 545.865 934.316 543.643C934.42 543.332 934.586 542.875 934.814 542.273L922.266 509.132H928.306L935.188 528.288C936.08 530.717 936.88 533.271 937.585 535.95C938.229 533.375 938.997 530.863 939.89 528.412L946.958 509.132H952.563L939.983 542.771C938.634 546.405 937.585 548.907 936.838 550.278C935.842 552.126 934.7 553.475 933.413 554.327C932.126 555.199 930.59 555.635 928.805 555.635C927.725 555.635 926.521 555.407 925.193 554.95Z" fill="#DDDDDD"/>
<path d="M890.941 509.132H916.972V542.211H911.399V513.773H896.546V530.25C896.546 534.091 896.421 536.625 896.172 537.85C895.923 539.075 895.238 540.144 894.117 541.058C892.996 541.972 891.377 542.429 889.26 542.429C887.952 542.429 886.447 542.345 884.745 542.179V537.507H887.205C888.367 537.507 889.197 537.393 889.696 537.165C890.194 536.915 890.526 536.531 890.692 536.012C890.858 535.493 890.941 533.801 890.941 530.935V509.132Z" fill="#DDDDDD"/>
<path d="M877.894 530.094L883.406 530.811C882.804 534.611 881.257 537.59 878.766 539.75C876.296 541.889 873.255 542.958 869.643 542.958C865.117 542.958 861.474 541.484 858.713 538.535C855.973 535.566 854.603 531.319 854.603 525.796C854.603 522.224 855.195 519.099 856.378 516.421C857.561 513.742 859.357 511.738 861.765 510.409C864.194 509.059 866.83 508.385 869.674 508.385C873.265 508.385 876.202 509.298 878.486 511.126C880.769 512.932 882.233 515.507 882.876 518.85L877.427 519.691C876.908 517.469 875.985 515.798 874.656 514.676C873.348 513.555 871.76 512.994 869.892 512.994C867.069 512.994 864.775 514.012 863.01 516.047C861.246 518.061 860.364 521.259 860.364 525.64C860.364 530.084 861.215 533.313 862.917 535.327C864.619 537.341 866.84 538.348 869.581 538.348C871.781 538.348 873.618 537.673 875.092 536.324C876.566 534.974 877.5 532.897 877.894 530.094Z" fill="#DDDDDD"/>
<path d="M824.929 554.95L824.306 549.686C825.531 550.018 826.6 550.184 827.513 550.184C828.759 550.184 829.755 549.977 830.503 549.561C831.25 549.146 831.862 548.565 832.34 547.817C832.693 547.256 833.263 545.865 834.052 543.643C834.156 543.332 834.322 542.875 834.55 542.273L822.002 509.132H828.043L834.924 528.288C835.817 530.717 836.616 533.271 837.322 535.95C837.965 533.375 838.733 530.863 839.626 528.412L846.694 509.132H852.299L839.719 542.771C838.37 546.405 837.322 548.907 836.574 550.278C835.578 552.126 834.436 553.475 833.149 554.327C831.862 555.199 830.326 555.635 828.541 555.635C827.461 555.635 826.257 555.407 824.929 554.95Z" fill="#DDDDDD"/>
<path d="M794.57 531.558L800.361 532.275C799.448 535.659 797.756 538.286 795.286 540.155C792.816 542.024 789.66 542.958 785.82 542.958C780.983 542.958 777.143 541.473 774.299 538.504C771.476 535.514 770.064 531.33 770.064 525.952C770.064 520.387 771.497 516.068 774.361 512.994C777.226 509.921 780.942 508.385 785.509 508.385C789.93 508.385 793.542 509.89 796.344 512.901C799.147 515.912 800.548 520.148 800.548 525.609C800.548 525.941 800.538 526.44 800.517 527.104H775.856C776.063 530.738 777.091 533.52 778.938 535.452C780.786 537.383 783.09 538.348 785.851 538.348C787.906 538.348 789.66 537.808 791.113 536.729C792.566 535.649 793.719 533.925 794.57 531.558ZM776.167 522.494H794.632C794.383 519.712 793.677 517.625 792.515 516.234C790.729 514.074 788.415 512.994 785.571 512.994C782.997 512.994 780.827 513.856 779.063 515.58C777.319 517.303 776.354 519.608 776.167 522.494Z" fill="#DDDDDD"/>
<path d="M757.578 509.132H763.183V542.211H757.578V509.132ZM726.222 509.132H731.827V522.058H738.926C743.556 522.058 747.116 522.962 749.607 524.768C752.119 526.554 753.374 529.025 753.374 532.181C753.374 534.943 752.326 537.31 750.229 539.283C748.154 541.235 744.822 542.211 740.234 542.211H726.222V509.132ZM731.827 537.601H737.712C741.262 537.601 743.794 537.165 745.31 536.293C746.825 535.42 747.583 534.06 747.583 532.212C747.583 530.779 747.022 529.502 745.901 528.381C744.78 527.26 742.3 526.699 738.459 526.699H731.827V537.601Z" fill="#DDDDDD"/>
<path d="M690.881 509.132H696.486V522.899H712.024V509.132H717.628V542.211H712.024V527.54H696.486V542.211H690.881V509.132Z" fill="#DDDDDD"/>
<path d="M657.501 509.132H663.106V522.058H670.205C674.835 522.058 678.395 522.962 680.886 524.768C683.397 526.554 684.653 529.025 684.653 532.181C684.653 534.943 683.605 537.31 681.508 539.283C679.433 541.235 676.101 542.211 671.513 542.211H657.501V509.132ZM663.106 537.601H668.991C672.541 537.601 675.073 537.165 676.589 536.293C678.104 535.42 678.862 534.06 678.862 532.212C678.862 530.779 678.301 529.502 677.18 528.381C676.059 527.26 673.579 526.699 669.738 526.699H663.106V537.601Z" fill="#DDDDDD"/>
<path d="M623.094 509.132H649.125V542.211H643.552V513.773H628.699V530.25C628.699 534.091 628.574 536.625 628.325 537.85C628.076 539.075 627.391 540.144 626.27 541.058C625.149 541.972 623.53 542.429 621.413 542.429C620.105 542.429 618.6 542.345 616.898 542.179V537.507H619.358C620.52 537.507 621.35 537.393 621.849 537.165C622.347 536.915 622.679 536.531 622.845 536.012C623.011 535.493 623.094 533.801 623.094 530.935V509.132Z" fill="#DDDDDD"/>
<path d="M606.435 538.13C604.36 539.895 602.356 541.141 600.426 541.868C598.516 542.595 596.461 542.958 594.261 542.958C590.628 542.958 587.836 542.076 585.884 540.31C583.933 538.525 582.958 536.251 582.958 533.489C582.958 531.87 583.321 530.395 584.047 529.066C584.795 527.717 585.76 526.637 586.943 525.827C588.147 525.017 589.496 524.405 590.991 523.989C592.091 523.699 593.752 523.418 595.973 523.148C600.498 522.609 603.83 521.965 605.968 521.217C605.989 520.449 605.999 519.961 605.999 519.753C605.999 517.469 605.47 515.86 604.411 514.926C602.979 513.659 600.851 513.026 598.028 513.026C595.392 513.026 593.441 513.493 592.174 514.427C590.929 515.341 590.005 516.971 589.403 519.317L583.923 518.57C584.421 516.223 585.241 514.334 586.383 512.901C587.524 511.447 589.175 510.337 591.334 509.568C593.492 508.779 595.994 508.385 598.838 508.385C601.661 508.385 603.955 508.717 605.719 509.381C607.484 510.046 608.781 510.887 609.611 511.904C610.442 512.901 611.023 514.168 611.355 515.704C611.542 516.659 611.635 518.383 611.635 520.875V528.35C611.635 533.562 611.75 536.864 611.978 538.255C612.227 539.625 612.704 540.944 613.41 542.21H607.556C606.975 541.048 606.601 539.688 606.435 538.13ZM605.968 525.609C603.934 526.44 600.882 527.146 596.814 527.727C594.51 528.059 592.88 528.433 591.925 528.848C590.97 529.264 590.233 529.876 589.714 530.686C589.195 531.475 588.936 532.358 588.936 533.334C588.936 534.829 589.496 536.074 590.617 537.071C591.759 538.068 593.42 538.566 595.599 538.566C597.758 538.566 599.678 538.099 601.36 537.165C603.041 536.209 604.276 534.912 605.065 533.271C605.667 532.005 605.968 530.136 605.968 527.665V525.609Z" fill="#DDDDDD"/>
<path d="M550.325 509.132H576.419V542.211H570.814V513.773H555.93V542.211H550.325V509.132Z" fill="#DDDDDD"/>
<path d="M514.672 509.132H520.277V534.361L535.815 509.132H541.856V542.211H536.251V517.137L520.713 542.211H514.672V509.132Z" fill="#DDDDDD"/>
<path d="M478.21 509.132H483.815V537.601H499.321V509.132H504.926V537.601H508.538V551.586H503.93V542.211H478.21V509.132Z" fill="#DDDDDD"/>
<path d="M442.495 509.132H448.1V534.361L463.638 509.132H469.678V542.211H464.074V517.137L448.536 542.211H442.495V509.132Z" fill="#DDDDDD"/>
<path d="M407.278 509.132H412.883V522.899H428.421V509.132H434.026V542.211H428.421V527.54H412.883V542.211H407.278V509.132Z" fill="#DDDDDD"/>
<path d="M375.113 554.95L374.49 549.686C375.715 550.018 376.784 550.184 377.697 550.184C378.943 550.184 379.939 549.977 380.687 549.561C381.434 549.146 382.046 548.565 382.524 547.817C382.877 547.256 383.448 545.865 384.236 543.643C384.34 543.332 384.506 542.875 384.735 542.273L372.186 509.132H378.227L385.108 528.288C386.001 530.717 386.8 533.271 387.506 535.95C388.149 533.375 388.917 530.863 389.81 528.412L396.878 509.132H402.483L389.903 542.771C388.554 546.405 387.506 548.907 386.759 550.278C385.762 552.126 384.62 553.475 383.333 554.327C382.046 555.199 380.51 555.635 378.725 555.635C377.646 555.635 376.442 555.407 375.113 554.95Z" fill="#DDDDDD"/>
<path d="M330.928 509.132H339.647L348.334 535.607L357.987 509.132H366.052V542.211H360.447V515.58L350.67 542.211H345.657L336.409 514.303V542.211H330.928V509.132Z" fill="#DDDDDD"/>
<path d="M277.403 509.132H283.008V534.361L298.545 509.132H304.586V542.211H298.981V517.137L283.443 542.211H277.403V509.132Z" fill="#DDDDDD"/>
</g>
</g>
<defs>
<clipPath id="clip0_1_6">
<rect width="1387" height="606" fill="white"/>
</clipPath>
</defs>
</svg>
