<svg width="1505" height="378" viewBox="0 0 1505 378" fill="none" xmlns="http://www.w3.org/2000/svg">
<g clip-path="url(#clip0_224_2319)">
<path d="M218.47 215.604C203.773 231.88 178.678 233.161 162.4 218.476C146.117 203.79 144.813 178.681 159.481 162.402C174.171 146.124 199.285 144.857 215.562 159.539C231.839 174.225 233.138 199.326 218.47 215.604Z" fill="white"/>
<path d="M75.3131 38.0023C49.339 57.5934 28.582 83.7338 15.4963 113.969C31.1995 117.84 78.2154 133.141 99.786 191.38C106.274 189.266 120.26 181.115 129.963 149.646C142.975 107.515 167.659 66.9912 199.67 53.3841C167.749 21.8029 125.691 14.3666 75.3131 38.0023Z" fill="#D9D9D9"/>
<path d="M334.512 68.4666C334.515 68.4631 334.518 68.4594 334.521 68.4558C299.863 26.6374 247.531 0 188.977 0C146.308 0 106.942 14.1456 75.3123 38.0029C145.249 5.1898 199.15 32.2587 232.157 100.679C284.734 110.109 320.441 83.9479 334.512 68.4666Z" fill="white"/>
<path d="M115.086 362.884C145.038 375.584 178.053 380.492 210.778 376.708C206.278 361.172 196.02 312.801 235.668 264.999C230.593 260.437 216.542 252.4 184.439 259.73C141.449 269.526 94.0158 268.409 66.2272 247.488C54.8399 290.926 69.4293 331.07 115.086 362.884Z" fill="#D9D9D9"/>
<path d="M11.8666 123.161C11.862 123.16 11.8575 123.16 11.8529 123.159C-7.03128 174.085 -3.93188 232.729 25.3451 283.442C46.6798 320.398 78.6121 347.419 115.086 362.885C51.7032 318.719 48.1935 258.502 90.9387 195.704C72.8161 145.453 32.3082 127.608 11.8666 123.161Z" fill="white"/>
<path d="M376.533 165.996C372.555 133.705 360.297 102.657 340.657 76.2061C329.454 87.8711 292.696 120.941 231.478 110.503C230.064 117.179 230.13 133.368 252.529 157.506C282.507 189.842 305.256 231.482 301.034 266.01C344.343 254.154 371.811 221.446 376.533 165.996Z" fill="white"/>
<path d="M220.552 375.255C220.554 375.259 220.556 375.263 220.557 375.268C274.099 366.16 323.332 334.154 352.609 283.441C373.944 246.485 381.377 205.318 376.533 165.995C369.979 242.974 319.588 276.122 243.835 270.5C209.381 311.321 214.182 355.327 220.552 375.255Z" fill="white"/>
<path d="M442.349 22.6768H432.65V355.276H442.349V22.6768Z" fill="white"/>
<path d="M527.36 259.006H497.045V117.542H545.748C554.641 117.542 562.655 118.487 569.798 120.372C576.939 122.259 583.034 125.121 588.087 128.961C593.139 132.8 597.011 137.72 599.706 143.715C602.401 149.709 603.751 156.75 603.751 164.832C603.751 172.783 602.367 179.854 599.606 186.053C596.845 192.251 592.838 197.469 587.582 201.714C582.326 205.956 575.928 209.189 568.383 211.415C560.837 213.637 552.35 214.749 542.921 214.749H527.36V259.006ZM526.752 188.072H543.325C552.484 188.072 559.625 186.288 564.746 182.716C569.864 179.15 572.425 173.591 572.425 166.044C572.425 158.096 569.93 152.473 564.946 149.171C559.963 145.871 552.822 144.219 543.525 144.219H526.752V188.072Z" fill="white"/>
<path d="M695.496 261.432C685.257 261.432 675.925 259.846 667.507 256.683C659.087 253.519 651.846 248.835 645.783 242.637C639.719 236.442 635.036 228.795 631.737 219.698C628.434 210.604 626.787 200.13 626.787 188.276C626.787 176.421 628.503 165.944 631.94 156.85C635.374 147.757 640.123 140.112 646.186 133.914C652.25 127.716 659.425 123.033 667.711 119.868C675.994 116.703 684.988 115.119 694.689 115.119C705.601 115.119 715.333 116.803 723.892 120.171C732.444 123.54 739.653 128.355 745.514 134.618C751.377 140.885 755.853 148.564 758.956 157.658C762.052 166.752 763.601 176.957 763.601 188.276C763.601 200.803 761.886 211.684 758.448 220.913C755.014 230.141 750.228 237.754 744.101 243.749C737.969 249.743 730.763 254.192 722.477 257.087C714.191 259.983 705.197 261.432 695.496 261.432ZM696.508 234.755C701.626 234.755 706.34 233.813 710.654 231.926C714.964 230.041 718.668 227.177 721.769 223.336C724.865 219.497 727.257 214.683 728.944 208.889C730.626 203.098 731.47 196.227 731.47 188.276C731.47 172.242 728.1 160.488 721.366 153.009C714.626 145.534 705.736 141.793 694.689 141.793C689.702 141.793 685.019 142.738 680.643 144.623C676.263 146.511 672.459 149.372 669.226 153.213C665.992 157.051 663.466 161.902 661.647 167.762C659.828 173.622 658.918 180.462 658.918 188.276C658.918 196.227 659.895 203.098 661.848 208.889C663.801 214.683 666.462 219.497 669.83 223.336C673.198 227.177 677.174 230.041 681.754 231.926C686.334 233.813 691.255 234.755 696.508 234.755Z" fill="white"/>
<path d="M899.406 253.404C897.516 254.343 895.465 255.28 893.243 256.213C891.02 257.153 888.391 258.021 885.361 258.823C882.331 259.625 878.824 260.261 874.855 260.73C870.879 261.194 866.331 261.432 861.21 261.432C850.429 261.432 840.628 259.879 831.806 256.784C822.984 253.685 815.44 249.139 809.173 243.142C802.906 237.15 798.06 229.703 794.623 220.813C791.186 211.92 789.468 201.683 789.468 190.095C789.468 177.968 791.186 167.227 794.623 157.861C798.06 148.498 803.009 140.651 809.477 134.318C815.944 127.985 823.792 123.202 833.02 119.968C842.249 116.735 852.657 115.119 864.246 115.119C871.922 115.119 878.825 115.795 884.96 117.139C891.089 118.487 896.038 120.037 899.813 121.787L893.14 147.25C888.826 145.769 884.45 144.692 880.005 144.016C875.559 143.345 871.722 143.007 868.485 143.007C861.479 143.007 855.115 143.884 849.392 145.64C843.664 147.396 838.743 150.131 834.636 153.843C830.523 157.558 827.326 162.283 825.035 168.02C822.744 173.763 821.604 180.545 821.604 188.376C821.604 203.364 825.808 214.64 834.235 222.202C842.65 229.763 854.004 233.544 868.284 233.544C871.521 233.544 875.422 233.109 880.005 232.229C884.587 231.355 889.032 229.975 893.346 228.087L899.406 253.404Z" fill="white"/>
<path d="M1014.59 228.087H960.23L950.126 259.006H920.218L968.519 117.542H1007.93L1055.62 259.006H1024.7L1014.59 228.087ZM968.519 201.411H1006.31L987.515 141.996L968.519 201.411Z" fill="white"/>
<path d="M1124.54 259.006H1094.22V145.43H1054V117.542H1164.55V145.43H1124.54V259.006Z" fill="white"/>
<path d="M1247.41 261.432C1237.17 261.432 1227.84 259.846 1219.42 256.683C1211 253.519 1203.76 248.835 1197.7 242.637C1191.63 236.442 1186.95 228.795 1183.65 219.698C1180.34 210.604 1178.69 200.13 1178.69 188.276C1178.69 176.421 1180.41 165.944 1183.85 156.85C1187.29 147.757 1192.04 140.112 1198.1 133.914C1204.16 127.716 1211.33 123.033 1219.62 119.868C1227.91 116.703 1236.9 115.119 1246.6 115.119C1257.51 115.119 1267.24 116.803 1275.8 120.171C1284.35 123.54 1291.57 128.355 1297.43 134.618C1303.29 140.885 1307.76 148.564 1310.86 157.658C1313.96 166.752 1315.51 176.957 1315.51 188.276C1315.51 200.803 1313.79 211.684 1310.36 220.913C1306.92 230.141 1302.14 237.754 1296.01 243.749C1289.88 249.743 1282.67 254.192 1274.39 257.087C1266.1 259.983 1257.11 261.432 1247.41 261.432ZM1248.42 234.755C1253.54 234.755 1258.25 233.813 1262.56 231.926C1266.88 230.041 1270.58 227.177 1273.68 223.336C1276.78 219.497 1279.16 214.683 1280.85 208.889C1282.54 203.098 1283.38 196.227 1283.38 188.276C1283.38 172.242 1280.01 160.488 1273.28 153.009C1266.54 145.534 1257.64 141.793 1246.6 141.793C1241.61 141.793 1236.93 142.738 1232.55 144.623C1228.18 146.511 1224.37 149.372 1221.14 153.213C1217.9 157.051 1215.37 161.902 1213.56 167.762C1211.74 173.622 1210.83 180.462 1210.83 188.276C1210.83 196.227 1211.8 203.098 1213.76 208.889C1215.71 214.683 1218.37 219.497 1221.74 223.336C1225.11 227.177 1229.08 230.041 1233.66 231.926C1238.24 233.813 1243.16 234.755 1248.42 234.755Z" fill="white"/>
<path d="M1504.67 259.006H1474.16L1466.48 165.033L1437.38 259.006H1408.48L1379.78 165.439L1372.1 259.006H1341.59L1355.73 117.542H1391.9L1423.83 224.246L1455.36 117.542H1490.32L1504.67 259.006Z" fill="white"/>
</g>
<defs>
<clipPath id="clip0_224_2319">
<rect width="1504.67" height="377.953" fill="white"/>
</clipPath>
</defs>
</svg>
