<?xml version="1.0" encoding="UTF-8"?>
<!DOCTYPE svg PUBLIC "-//W3C//DTD SVG 1.1//EN" "http://www.w3.org/Graphics/SVG/1.1/DTD/svg11.dtd">
<!-- Creator: CorelDRAW -->
<svg xmlns="http://www.w3.org/2000/svg" xml:space="preserve" width="107.992mm" height="107.154mm" version="1.1" style="shape-rendering:geometricPrecision; text-rendering:geometricPrecision; image-rendering:optimizeQuality; fill-rule:evenodd; clip-rule:evenodd"
viewBox="0 0 651.33 646.27"
 xmlns:xlink="http://www.w3.org/1999/xlink"
 xmlns:xodm="http://www.corel.com/coreldraw/odm/2003">
 <defs>
  <style type="text/css">
   <![CDATA[
    .fil0 {fill:#7A7776}
   ]]>
  </style>
 </defs>
 <g id="Слой_x0020_1">
  <metadata id="CorelCorpID_0Corel-Layer"/>
  <path class="fil0" d="M-0 230.23c0.52,-1.36 1.09,-2.7 1.55,-4.07 4.65,-13.95 16.84,-23.49 30.56,-23.88 14.47,-0.42 25.98,7.47 31.81,21.79 0.46,1.14 0.97,2.28 1.43,3.35l110.26 0c-0.5,-15.05 -0.86,-29.89 11.13,-41.5 11.96,-11.56 26.86,-10.74 42.24,-10.25l0 -21.57c0,-16.32 0,-32.64 0,-48.97 0,-10.54 2.44,-14.66 8.74,-14.77 6.38,-0.11 9.07,4.16 9.07,14.45 0,21 0,41.98 0,62.97l0 7.34 54.35 0 0 -109.84c-0.98,-0.42 -2.28,-1 -3.59,-1.54 -14.67,-6.21 -22.64,-21 -19.77,-36.64 2.9,-15.78 15.03,-26.44 30.8,-27.07 15.8,-0.63 29.88,9.94 33.81,25.38 3.75,14.68 -3.35,30.18 -17.65,37.02 -4.34,2.07 -5.6,4.35 -5.57,9.01 0.22,32.42 0.12,64.86 0.12,97.3l0 6.49 53.42 0 0 -6.69c0,-22.47 -0.03,-44.95 0.03,-67.42 0.02,-7.05 3.82,-11.18 9.56,-10.73 5.25,0.41 8.19,4.16 8.21,10.84 0.04,22.25 0.01,44.52 0.01,66.77l0 7.2 54.21 0 0 -109.62c-16.87,-6 -27.49,-20.63 -22.39,-41.75 3.61,-14.96 17.14,-24.36 33.38,-23.78 15.86,0.58 27.95,11.07 30.97,26.86 3.2,16.78 -5.14,30.65 -23.33,38.41l0 110.28c15.16,-0.33 30.25,-1.08 42.52,10.32 12.31,11.41 12.49,26.08 11.71,41.79l7.38 0c34.98,0 69.96,0 104.93,0.01 2.13,0 4.31,-0.22 6.34,0.21 4.76,0.97 7.43,4.06 7.31,8.97 -0.11,4.6 -2.77,7.49 -7.23,8.4 -2.04,0.41 -4.23,0.22 -6.34,0.22 -37.09,0 -74.17,0 -111.76,0l0 53.01 67.86 0c5.22,-15.19 15.88,-23.53 32.22,-23.68 16.24,-0.15 30.54,12.75 32.78,29.03 2.13,15.54 -8.66,31.42 -24.31,35.79 -16.01,4.47 -32.33,-3.15 -38.93,-18.25 -1.11,-2.5 -1.55,-4.82 -5.43,-4.77 -20.77,0.26 -41.54,0.14 -62.32,0.16 -0.59,0 -1.17,0.27 -2.04,0.49l0 54.17 6.68 0c35.19,0 70.38,-0.01 105.57,0 2.11,0 4.32,-0.22 6.33,0.27 4.4,1.07 6.96,4.02 6.94,8.66 -0.03,4.62 -2.59,7.57 -7.01,8.6 -2.02,0.46 -4.21,0.26 -6.33,0.26 -34.98,0.01 -69.96,0.01 -104.93,0.01l-7.21 0 0 52.92 67.67 0c10.06,-19.49 22.96,-26.88 39.84,-22.67 15.3,3.8 26.03,17.59 25.66,32.94 -0.36,14.98 -11.48,28.1 -26.73,31.51 -16.41,3.67 -29.69,-4.27 -38.78,-23.25l-68.14 0c0.97,15.2 -0.03,29.69 -11.92,41.13 -12,11.52 -26.71,11.44 -42.66,10.55l0 7.14c0,35.19 0,70.38 -0.02,105.57 0,2.11 0.22,4.31 -0.26,6.34 -1.01,4.41 -3.95,7 -8.56,7.04 -4.63,0.04 -7.58,-2.55 -8.68,-6.93 -0.51,-2 -0.27,-4.21 -0.27,-6.32 -0.01,-34.97 -0.01,-69.96 -0.01,-104.93l0 -7.27 -54.39 0 0 67.85c1.83,0.83 3.93,1.72 5.98,2.71 14.03,6.79 21.61,21.71 18.43,36.21 -3.37,15.39 -16.32,25.94 -32.37,26.35 -15.53,0.4 -29.33,-10.1 -33.24,-25.29 -3.71,-14.37 3.11,-30.06 17.01,-36.76 5.14,-2.48 6.28,-5.3 6.2,-10.54 -0.3,-20.08 -0.12,-40.16 -0.12,-60.59l-53.42 0 0 6.57c0,35.19 0,70.38 -0.01,105.57 0,2.11 0.2,4.31 -0.26,6.34 -1.04,4.41 -3.98,6.98 -8.6,7.01 -4.64,0.03 -7.57,-2.58 -8.66,-6.96 -0.49,-2 -0.27,-4.21 -0.27,-6.32 -0.02,-34.97 -0.02,-69.96 -0.02,-104.93l0 -7.25 -54.69 0 0 6.45c0,18.01 0.23,36.04 -0.15,54.05 -0.12,5.37 1.28,7.99 6.38,10.27 15.51,6.95 22.69,23.95 17.57,39.77 -4.92,15.22 -21.84,25.17 -37.82,22.23 -16.4,-3 -28.65,-17.5 -27.85,-33.73 0.64,-13.46 7.74,-22.89 19.58,-29.08 1.76,-0.93 4.27,-2.85 4.28,-4.34 0.27,-21.77 0.19,-43.56 0.19,-66.04 -15.31,0.3 -30.26,1.24 -41.99,-10.71 -11.37,-11.58 -12.17,-25.9 -11.32,-41.41l-8.04 0c-22.05,0 -44.09,0.03 -66.14,-0.01 -7.01,-0.02 -10.92,-3.13 -11.1,-8.6 -0.19,-5.73 3.88,-9.16 11.15,-9.18 24.37,-0.04 48.73,-0.02 73.56,-0.02l0 -53.04 -110.21 0c-3,8.39 -8.29,15.35 -16.48,19.8 -17.04,9.26 -38.29,1.38 -45.92,-17 -0.79,-1.92 -1.63,-3.81 -2.47,-5.72l0 -12.72c0.83,-2.14 1.63,-4.29 2.48,-6.43 7.32,-18.58 28.14,-26.76 45.57,-17.97 9.08,4.58 14.15,12.36 17.16,21.4l110.02 0 0 -54.23 -6.48 0c-21.41,0 -42.81,0 -64.22,0 -1.48,0 -2.97,0.04 -4.46,-0.03 -5.91,-0.27 -9.6,-3.6 -9.71,-8.7 -0.11,-5.4 3.67,-9.03 9.99,-9.04 22.67,-0.1 45.35,-0.04 68.02,-0.04l6.68 0 0 -53.27 -109.85 0c-0.97,1.96 -1.86,3.89 -2.82,5.74 -11.21,21.42 -39.65,24.6 -54.62,5.86 -3.34,-4.17 -5.22,-9.5 -7.77,-14.3l0 -12.72zm48.29 6.06c-0.04,-8.92 -7.05,-16.35 -15.3,-16.19 -7.96,0.17 -15.35,8.26 -15.12,16.61 0.19,7.68 7.58,15 15.23,15.09 8.17,0.1 15.23,-7.12 15.19,-15.51zm297.29 258.52c43.67,0 87.34,0.03 131.01,-0.02 15.65,-0.01 23.3,-7.76 23.3,-23.52 0.01,-85 0.01,-170.01 0,-255.02 0,-14.53 -8.26,-22.9 -22.76,-22.9 -87.34,-0.03 -174.68,-0.03 -262.02,0 -13.81,0 -21.76,7.88 -21.76,21.6 -0.02,85.85 -0.03,171.71 0.01,257.56 0,14.45 7.98,22.28 22.48,22.29 43.25,0.01 86.5,0 129.73,0zm0.45 -44.51c-22.68,0 -45.33,0.05 -68.01,-0.02 -23.23,-0.07 -40.11,-16.89 -40.14,-40.08 -0.05,-44.5 -0.05,-88.99 0,-133.5 0.03,-22.1 16.31,-38.71 38.41,-38.79 46.41,-0.15 92.81,-0.15 139.22,0 22.18,0.07 38.54,16.56 38.57,38.61 0.08,44.71 0.08,89.41 0,134.13 -0.04,23.73 -15.77,39.53 -39.4,39.61 -22.88,0.09 -45.76,0.03 -68.65,0.03zm0.22 -17.81c22.45,0 44.91,0.03 67.38,-0.01 14.79,-0.03 22.65,-7.95 22.66,-22.85 0.03,-44.08 0.03,-88.16 0,-132.22 -0.02,-13.54 -8.12,-21.68 -21.77,-21.7 -45.55,-0.05 -91.12,-0.05 -136.67,0 -13.65,0.01 -22.15,8.61 -22.17,22.21 -0.01,43.86 -0.01,87.72 0,131.58 0.02,15.19 7.84,22.96 23.18,22.99 22.47,0.04 44.92,0.01 67.4,0.01zm271.65 -109.44c8.37,0.07 15.5,-6.93 15.51,-15.22 0,-8.27 -7.12,-15.29 -15.5,-15.23 -8.41,0.06 -14.78,6.41 -14.93,14.9 -0.16,8.77 6.27,15.47 14.92,15.54zm-379.54 305.28c8.93,-0.15 16.26,-7.25 15.98,-15.49 -0.27,-7.76 -7.96,-14.88 -16.14,-14.95 -7.91,-0.07 -15.56,7.53 -15.54,15.42 0.03,8.17 7.32,15.15 15.71,15.01zm71.59 -610.47c-8.65,0.12 -15.04,6.89 -14.81,15.65 0.22,8.47 6.65,14.79 15.05,14.78 8.38,0 15.45,-7.06 15.38,-15.34 -0.07,-8.27 -7.25,-15.23 -15.63,-15.09zm307.96 448.92c8.39,0.05 15.5,-6.94 15.5,-15.23 0,-8.27 -7.13,-15.27 -15.51,-15.2 -8.41,0.05 -14.77,6.41 -14.92,14.9 -0.16,8.77 6.3,15.47 14.93,15.53zm-148.59 -433.79c-0.04,-8.78 -6.52,-15.19 -15.3,-15.15 -8.77,0.04 -15.19,6.54 -15.15,15.31 0.05,8.74 6.57,15.19 15.31,15.13 8.77,-0.04 15.18,-6.53 15.13,-15.3zm-421.04 347.24c0.08,-8.92 -6.84,-16.41 -15.09,-16.37 -7.98,0.03 -15.42,8 -15.32,16.4 0.08,7.66 7.36,15.08 15.02,15.28 8.15,0.22 15.32,-6.91 15.39,-15.31zm333.59 248.1c8.93,-0.03 16.35,-7.02 16.21,-15.27 -0.15,-7.97 -8.21,-15.35 -16.57,-15.16 -7.68,0.18 -15.02,7.56 -15.12,15.2 -0.12,8.15 7.1,15.26 15.47,15.23z"/>
 </g>
</svg>
