<?xml version="1.0" encoding="UTF-8"?>
<!DOCTYPE svg PUBLIC "-//W3C//DTD SVG 1.1//EN" "http://www.w3.org/Graphics/SVG/1.1/DTD/svg11.dtd">
<!-- Creator: CorelDRAW -->
<svg xmlns="http://www.w3.org/2000/svg" xml:space="preserve" width="136.665mm" height="103.033mm" version="1.1" style="shape-rendering:geometricPrecision; text-rendering:geometricPrecision; image-rendering:optimizeQuality; fill-rule:evenodd; clip-rule:evenodd"
viewBox="0 0 664.18 500.73"
 xmlns:xlink="http://www.w3.org/1999/xlink"
 xmlns:xodm="http://www.corel.com/coreldraw/odm/2003">
 <defs>
  <style type="text/css">
   <![CDATA[
    .fil0 {fill:#7A7776}
   ]]>
  </style>
 </defs>
 <g id="Слой_x0020_1">
  <metadata id="CorelCorpID_0Corel-Layer"/>
  <path class="fil0" d="M664.17 13.38c0.01,136 0.01,272 0,408 0,10.79 -2.58,13.37 -13.34,13.37 -41.5,0.01 -83.01,0 -124.51,0l-8.33 0c0,10.82 0,20.92 0,31.02 -0,8 0.48,16.04 -0.24,23.98 -0.31,3.37 -2.37,7.42 -4.96,9.55 -3.65,3.01 -7.72,0.73 -11.08,-2.08 -9.95,-8.31 -19.93,-16.58 -30.12,-25.04 -9.81,8.14 -19.47,16.12 -29.08,24.15 -3.61,3.01 -7.25,5.67 -12.25,3.24 -4.97,-2.4 -5.22,-6.92 -5.2,-11.61 0.03,-15.14 0.01,-30.27 0.01,-45.41l0 -7.81 -8.86 0c-134.25,0 -268.5,-0.02 -402.75,0.1 -5.94,0.01 -10.6,-1.16 -13.45,-6.68l0 -421.76c3.15,-5.21 7.86,-6.42 13.72,-6.42 212.29,0.11 424.58,0.09 636.87,0.1 10.77,0 13.58,2.74 13.58,13.28zm-18.53 402.91l0 -397.46 -626.9 0 0 397.42 405.84 0 0 -23.03 -8.88 0c-109.84,0 -219.67,0.01 -329.51,0 -11.19,0 -13.51,-2.37 -13.53,-13.73 -0.02,-13.93 -3.23,-17.13 -17.22,-17.18 -11.29,-0.04 -13.79,-2.49 -13.8,-13.58 -0.01,-87.36 -0,-174.74 0,-262.1 0,-11.57 2.46,-14.01 14.05,-14.03 13.62,-0.02 16.94,-3.29 16.97,-16.7 0.02,-11.97 2.34,-14.28 14.44,-14.28 163.24,0 326.48,0 489.72,0 12.61,0 14.81,2.16 14.83,14.56 0.02,13.01 3.45,16.4 16.59,16.42 12.08,0.02 14.42,2.33 14.42,14.32 0,85.42 0,170.83 0,256.26 0,18.23 0,18.23 -17.96,19.15 -8.69,0.45 -12.87,4.79 -13.05,13.57 -0.03,1.52 0,3.03 -0.01,4.54 -0.04,10.06 -2.67,12.79 -12.52,12.8 -17.94,0.02 -35.89,-0.01 -53.84,0.02 -2.28,0 -4.56,0.19 -6.88,0.29l0 22.76 127.24 0zm-173.82 -85.52c28.49,-0.02 51.76,-23.58 51.65,-52.27 -0.12,-28.77 -23.26,-51.68 -52.16,-51.62 -28.37,0.04 -51.52,23.06 -51.76,51.47 -0.24,28.74 23.39,52.44 52.27,52.43zm27.59 140.78l0 -128.34c-18.74,7.53 -37.07,7.55 -55.66,0.02l0 128.33c7.29,-6.02 13.71,-11.36 20.18,-16.63 6.09,-4.95 9.15,-4.96 15.39,0.08 6.47,5.23 12.86,10.58 20.09,16.55zm18.77 -138.81c-0.28,13.96 -0.16,27.95 -0.16,41.94l55.15 0c2.22,-18.94 8.76,-25.5 30.97,-31.3l0 -249.9c-8.09,-4.25 -16.31,-6.56 -21.52,-11.84 -5.34,-5.42 -7.75,-13.75 -11.82,-21.52l-479.62 0c-1.8,19.2 -12.47,29.34 -31.16,31.15l0 252.47c18.53,1.92 29.24,11.78 31.1,30.86l333.93 0c0,-12.82 0.3,-25.13 -0.19,-37.41 -0.14,-3.43 -1.81,-7.47 -4.11,-10.03 -15.96,-17.76 -22.36,-38.34 -18.01,-61.73 5.55,-29.86 29.85,-52.51 59.46,-56.38 29.45,-3.86 58.23,11.22 71.69,37.55 13.75,26.91 8.89,58.99 -12.2,81.05 -1.43,1.5 -3.48,3.36 -3.52,5.09zm28.03 -186.49c9.5,0 13.84,2.69 14.07,8.69 0.25,6.32 -4.42,9.47 -14.08,9.47 -142.72,0 -285.43,0 -428.15,0 -1.08,0 -2.16,0.03 -3.24,-0.01 -6.82,-0.28 -11.03,-3.98 -10.83,-9.47 0.2,-5.23 4.22,-8.64 10.83,-8.65 32.65,-0.07 65.31,-0.04 97.96,-0.04 39.79,0 79.58,0 119.37,0 71.36,0 142.72,0 214.08,0.01zm-428.07 -24.18c-9.76,0 -14.33,-2.99 -14.14,-9.23 0.18,-6.06 4.63,-8.93 13.94,-8.93 142.84,0 285.68,0 428.52,0.01 2.15,0 4.38,-0.13 6.44,0.35 4.81,1.13 7.61,4.42 7.26,9.33 -0.35,4.81 -3.25,7.92 -8.32,8.36 -2.15,0.2 -4.32,0.11 -6.48,0.11 -71.1,0 -142.19,0 -213.29,0 -71.31,0 -142.63,0 -213.94,0zm148.35 168.73c6.9,0.12 11.08,3.65 11.1,9.13 0.02,5.55 -4.17,9.74 -11.04,8.85 -22.65,-2.96 -42.43,3.53 -60.54,16.65 -1.91,1.39 -4.09,2.41 -6.19,3.52 -8.83,4.66 -15.45,0.49 -15.24,-9.62 0.06,-3.02 0.4,-6.03 0.5,-9.06 0.09,-2.76 0.02,-5.53 0.02,-9.58 -1.99,2.2 -3.41,3.59 -4.63,5.14 -8.4,10.71 -16.79,21.44 -25.13,32.19 -3.16,4.08 -6.79,6.85 -12.18,4.56 -5.33,-2.26 -6.03,-6.79 -5.37,-11.9 0.8,-6.19 1.49,-12.38 2.38,-19.83 -7.34,6.27 -13.8,11.85 -20.34,17.35 -4.17,3.5 -8.61,4.02 -12.85,0.2 -4.36,-3.94 -3.87,-9.54 1.17,-14.06 6.58,-5.92 13.71,-11.3 19.78,-17.71 6.03,-6.36 11.3,-13.51 16.4,-20.68 3.03,-4.25 6.43,-6.47 11.45,-4.8 4.78,1.6 6.46,5.47 5.98,10.27 -0.65,6.55 -1.48,13.1 -2.23,19.64l1.19 0.52c8.59,-10.99 17.08,-22.03 25.83,-32.88 1.81,-2.24 4.24,-4.57 6.86,-5.45 6.23,-2.1 11.27,2.71 11.3,10.23 0.03,10.33 0.01,20.65 0.01,31.61 3.17,-1.72 6.94,-3.26 10.11,-5.6 10.07,-7.42 21.21,-9.91 33.53,-8.8 6,0.54 12.1,0.01 18.14,0.12zm17.49 -102.53c6.41,0.3 10.44,3.8 10.47,9.11 0.03,5.35 -3.95,8.97 -10.4,9.01 -14.7,0.11 -29.39,0.04 -44.09,0.04 -13.62,0 -27.23,0 -40.85,0 -27.66,0 -55.33,0.04 -82.99,-0.07 -2.7,-0.01 -6.13,-0.16 -7.91,-1.74 -2.13,-1.88 -4.1,-5.49 -3.82,-8.12 0.28,-2.61 3.04,-5.44 5.43,-7.18 1.66,-1.22 4.53,-1.02 6.87,-1.02 55.11,-0.05 110.22,-0.04 165.34,-0.04 0.65,0 1.3,-0.01 1.94,0.01z"/>
 </g>
</svg>
