<?xml version="1.0" encoding="UTF-8"?>
<!DOCTYPE svg PUBLIC "-//W3C//DTD SVG 1.1//EN" "http://www.w3.org/Graphics/SVG/1.1/DTD/svg11.dtd">
<!-- Creator: CorelDRAW -->
<svg xmlns="http://www.w3.org/2000/svg" xml:space="preserve" width="125.599mm" height="118.068mm" version="1.1" style="shape-rendering:geometricPrecision; text-rendering:geometricPrecision; image-rendering:optimizeQuality; fill-rule:evenodd; clip-rule:evenodd"
viewBox="0 0 694.93 653.26"
 xmlns:xlink="http://www.w3.org/1999/xlink"
 xmlns:xodm="http://www.corel.com/coreldraw/odm/2003">
 <defs>
  <style type="text/css">
   <![CDATA[
    .fil0 {fill:#7A7776;fill-rule:nonzero}
   ]]>
  </style>
 </defs>
 <g id="Слой_x0020_1">
  <metadata id="CorelCorpID_0Corel-Layer"/>
  <path class="fil0" d="M373.81 363.76c1.25,0.97 1.73,1.51 2.32,1.78 45.45,19.94 90.89,39.92 136.46,59.61 2.39,1.04 6.15,0.4 8.71,-0.71 43.69,-18.94 87.28,-38.07 130.9,-57.17 2,-0.89 3.95,-1.89 6.63,-3.17 -3.14,-1.45 -5.38,-2.53 -7.64,-3.51 -41.33,-18.12 -82.74,-36.05 -123.92,-54.53 -7.83,-3.52 -14.16,-3.64 -22.1,-0.06 -43.41,19.51 -87.12,38.4 -131.36,57.77zm-52.13 0.59c-1.57,-0.9 -2.13,-1.29 -2.74,-1.55 -45.25,-19.85 -90.48,-39.76 -135.86,-59.34 -2.77,-1.2 -7.08,-0.62 -10.02,0.64 -43.48,18.84 -86.85,37.92 -130.24,56.96 -1.89,0.84 -3.71,1.84 -5.88,2.93 1.03,0.79 1.5,1.32 2.09,1.58 45.47,19.94 90.91,39.91 136.46,59.64 2.24,0.97 5.72,0.49 8.11,-0.54 23.03,-9.85 45.93,-19.99 68.87,-30.03 22.72,-9.94 45.43,-19.87 69.22,-30.28zm168.53 -280.97c-1.49,-0.88 -2.17,-1.39 -2.95,-1.73 -45.28,-19.85 -90.55,-39.76 -135.93,-59.35 -2.6,-1.12 -6.67,-0.49 -9.45,0.7 -24.29,10.41 -48.43,21.14 -72.62,31.74 -21.22,9.32 -42.48,18.61 -64.45,28.23 2.56,1.3 4.32,2.3 6.14,3.1 43.64,19.12 87.3,38.17 130.88,57.41 4.07,1.79 7.37,1.8 11.43,0 37.77,-16.73 75.65,-33.27 113.48,-49.86 7.62,-3.34 15.25,-6.65 23.46,-10.25zm-152.84 296.87c-2.88,1.04 -4.78,1.6 -6.57,2.38 -45.47,19.9 -90.91,39.86 -136.42,59.62 -4.21,1.83 -5.44,4.13 -5.43,8.6 0.15,56.93 0.1,113.88 0.11,170.82 0,1.91 0.2,3.82 0.34,6.33 2.78,-1.1 4.84,-1.87 6.87,-2.74 44.75,-19.26 89.47,-38.6 134.31,-57.68 5.08,-2.16 6.96,-4.75 6.93,-10.39 -0.23,-56.26 -0.14,-112.52 -0.14,-168.78l0 -8.17zm189.08 247.69c1.88,-0.64 2.91,-0.93 3.92,-1.35 46.64,-20.06 93.26,-40.2 139.97,-60.1 4.14,-1.76 4.27,-4.39 4.27,-7.93 -0.05,-57.65 -0.04,-115.3 -0.06,-172.93 0,-1.66 -0.26,-3.32 -0.45,-5.36 -1.7,0.61 -2.76,0.94 -3.78,1.38 -46.3,20.26 -92.58,40.61 -138.99,60.69 -4.56,1.97 -4.93,4.84 -4.93,8.93 0.07,56.51 0.05,113.02 0.05,169.54l0 7.15zm-505.57 -247.66c-0.17,1.61 -0.31,2.28 -0.31,2.95 -0.01,58.78 0.04,117.55 -0.14,176.32 -0.01,4.3 1.9,5.79 5.3,7.24 45.63,19.57 91.22,39.24 136.82,58.87 1.79,0.77 3.67,1.35 5.78,2.12 0.14,-1.71 0.31,-2.82 0.31,-3.94 0.01,-58.1 -0.05,-116.19 0.14,-174.29 0.01,-4.33 -1.92,-5.84 -5.31,-7.31 -45.72,-19.94 -91.4,-39.98 -137.1,-59.96 -1.6,-0.7 -3.3,-1.21 -5.49,-2zm485.18 -281.05c-2.64,0.93 -4.34,1.4 -5.94,2.1 -45.68,19.98 -91.32,40.05 -137.09,59.85 -4.74,2.05 -5.35,5 -5.35,9.43 0.1,56.27 0.06,112.54 0.09,168.81 0,2.33 0.23,4.66 0.39,7.57 3.16,-1.27 5.46,-2.12 7.72,-3.08 44.34,-19.1 88.63,-38.32 133.06,-57.2 5.35,-2.28 7.31,-4.88 7.29,-10.84 -0.27,-49.48 -0.16,-98.98 -0.16,-148.47l0 -28.18zm188.89 475.66c-3.56,2.58 -6.79,5.91 -10.73,7.62 -53.42,23.2 -106.9,46.27 -160.52,69.01 -3.93,1.66 -9.58,2.1 -13.43,0.58 -18.05,-7.12 -35.73,-15.16 -53.6,-22.79 -5.01,-2.15 -8.44,-5.4 -8,-11.2 0.54,-6.99 7.4,-10.88 14.63,-7.96 12.13,4.91 24.1,10.24 36.15,15.37 1.83,0.77 3.69,1.44 6.25,2.44 0.15,-2.46 0.35,-4.37 0.35,-6.28 0.02,-56.98 -0.02,-113.97 0.1,-170.97 0.01,-4.05 -0.8,-6.46 -4.91,-8.24 -46.18,-20.04 -92.28,-40.28 -138.41,-60.45 -1.19,-0.52 -2.45,-0.9 -4.61,-1.69 -0.18,2.97 -0.44,5.3 -0.44,7.64 -0.02,56.54 0.07,113.07 -0.15,169.61 -0.02,5.45 1.71,7.99 6.69,9.88 9.49,3.6 18.72,7.88 28.04,11.91 9.06,3.92 12.14,8.84 9.58,15.09 -2.6,6.34 -8.34,7.61 -17.32,3.78 -10.38,-4.43 -20.84,-8.7 -31.07,-13.45 -4.32,-2 -7.88,-1.73 -12.15,0.12 -51.17,22.17 -102.45,44.07 -153.57,66.34 -6.4,2.79 -11.76,2.57 -18.04,-0.15 -52.81,-22.93 -105.66,-45.72 -158.66,-68.23 -8.03,-3.41 -11.14,-8.15 -11.1,-16.95 0.29,-65.8 0.25,-131.61 0.02,-197.41 -0.02,-7.92 2.74,-12.33 10.05,-15.5 50.76,-21.99 101.33,-44.38 152.06,-66.42 4.79,-2.07 6.8,-4.34 6.67,-9.85 -0.43,-17.62 -0.2,-35.27 -0.13,-52.91 0.01,-2.69 0.16,-5.47 0.88,-8.03 1.38,-5.03 5.17,-7.49 10.19,-7.05 4.98,0.42 8.55,3.38 8.98,8.59 0.46,5.62 0.29,11.3 0.3,16.94 0.04,14.71 -0.15,29.41 0.19,44.1 0.05,2.28 1.9,5.74 3.81,6.58 47.39,20.66 94.9,41.04 142.39,61.46 0.19,0.07 0.44,-0.04 1.54,-0.15 0.12,-2.15 0.38,-4.46 0.38,-6.76 0.02,-56.31 -0.01,-112.62 0.09,-168.93 0.01,-4.44 -0.65,-7.37 -5.38,-9.42 -45.79,-19.81 -91.47,-39.9 -137.19,-59.87 -1.59,-0.7 -3.29,-1.15 -5.82,-2 0,13.97 0.01,27.23 0,40.49 -0.01,2.71 0.1,5.44 -0.2,8.13 -0.61,5.43 -3.77,8.68 -9.23,9.06 -5.49,0.36 -9.01,-2.44 -10.33,-7.78 -0.39,-1.51 -0.6,-3.12 -0.6,-4.68 -0.04,-19.9 0,-39.8 -0.04,-59.7 -0.01,-5.6 2.44,-9.42 7.58,-11.67 55.02,-24.07 109.98,-48.24 165.12,-72.03 3.65,-1.56 9.18,-1.45 12.86,0.15 54.71,23.64 109.23,47.73 163.86,71.54 6.75,2.94 8.45,7.79 8.43,14.53 -0.1,63.1 0.01,126.19 -0.19,189.28 -0.02,5.34 1.55,7.82 6.49,9.96 50.34,21.8 100.57,43.85 150.75,66.04 4.14,1.83 7.59,5.22 11.37,7.88l0 214.4z"/>
 </g>
</svg>
