<?xml version="1.0" encoding="UTF-8"?>
<!DOCTYPE svg PUBLIC "-//W3C//DTD SVG 1.1//EN" "http://www.w3.org/Graphics/SVG/1.1/DTD/svg11.dtd">
<!-- Creator: CorelDRAW -->
<svg xmlns="http://www.w3.org/2000/svg" xml:space="preserve" width="129.076mm" height="118.5mm" version="1.1" style="shape-rendering:geometricPrecision; text-rendering:geometricPrecision; image-rendering:optimizeQuality; fill-rule:evenodd; clip-rule:evenodd"
viewBox="0 0 597.05 548.13"
 xmlns:xlink="http://www.w3.org/1999/xlink"
 xmlns:xodm="http://www.corel.com/coreldraw/odm/2003">
 <defs>
  <style type="text/css">
   <![CDATA[
    .fil0 {fill:#7A7776}
   ]]>
  </style>
 </defs>
 <g id="Слой_x0020_1">
  <metadata id="CorelCorpID_0Corel-Layer"/>
  <path class="fil0" d="M421.64 185.32c1.31,9.83 2.69,19.65 3.92,29.49 0.9,7.15 -0.91,10.02 -7.77,12.02 -16.32,4.76 -32.72,9.27 -49,14.18 -1.79,0.54 -3.44,2.76 -4.37,4.59 -1.07,2.11 -0.85,4.87 -1.93,6.97 -4.31,8.41 -1.19,14.04 5.34,19.96 10.23,9.27 19.56,19.56 29.24,29.46 5.64,5.77 5.86,9.17 0.94,15.64 -11.78,15.49 -23.58,30.95 -35.43,46.39 -5.12,6.67 -8.27,7.24 -15.8,3.02 -14.36,-8.04 -28.73,-16.04 -43.02,-24.21 -2.58,-1.47 -4.63,-1.89 -6.99,0.25 -1.22,1.11 -2.72,2.17 -4.27,2.62 -11.33,3.35 -12.8,11.52 -12.24,21.94 0.71,13.23 0.03,26.53 -0.17,39.8 -0.09,6.41 -2.52,9.2 -8.9,10.08 -20.2,2.78 -40.41,5.48 -60.63,8.11 -6.52,0.85 -9.81,-1.36 -11.63,-7.73 -4.5,-15.82 -9.07,-31.63 -13.21,-47.54 -1.07,-4.11 -2.88,-6.13 -6.97,-6.49 -1.65,-0.15 -3.44,-0.43 -4.88,-1.19 -8.78,-4.71 -14.72,-1.32 -20.89,5.54 -9.11,10.13 -19.27,19.34 -29.04,28.87 -5.82,5.67 -9.23,5.87 -15.66,0.97 -15.48,-11.79 -30.94,-23.59 -46.38,-35.43 -6.57,-5.04 -7.19,-8.41 -3.03,-15.85 7.94,-14.2 15.82,-28.44 23.93,-42.54 1.73,-3 1.86,-5.28 -0.23,-8.07 -2,-2.69 -4.06,-5.53 -5.14,-8.65 -2.07,-5.99 -6.06,-7.2 -11.91,-7.1 -15.51,0.22 -31.03,-0.1 -46.54,-0.31 -7,-0.09 -9.93,-2.61 -10.86,-9.43 -2.72,-19.84 -5.37,-39.68 -7.96,-59.53 -0.92,-7.03 1.49,-10.45 8.36,-12.36 16.01,-4.48 32.01,-9.03 48.07,-13.34 3.13,-0.84 4.9,-2.14 5.19,-5.51 0.2,-2.21 0.59,-4.58 1.6,-6.5 4.45,-8.44 1.22,-14.09 -5.31,-20.05 -10.35,-9.43 -19.84,-19.81 -29.63,-29.85 -5.11,-5.24 -5.34,-8.93 -0.88,-14.79 12,-15.79 24.04,-31.54 36.12,-47.27 4.59,-5.97 8.12,-6.64 14.97,-2.83 14.38,7.99 28.77,15.99 43.04,24.17 2.99,1.71 5.31,1.97 8.07,-0.24 2.03,-1.61 4.27,-3.23 6.7,-4.02 7.69,-2.5 9.35,-7.77 9.09,-15.32 -0.48,-14.37 -0.01,-28.78 0.05,-43.17 0.04,-8.13 2.51,-10.97 10.76,-12.09 19.1,-2.57 38.19,-5.12 57.29,-7.66 8.28,-1.1 11.07,0.63 13.46,8.84 4.59,15.79 9.08,31.61 13.4,47.48 0.84,3.09 2.11,4.79 5.43,5.18 2.76,0.31 5.65,0.86 8.11,2.06 7.24,3.54 12.06,1 17.23,-4.59 9.78,-10.55 20.35,-20.36 30.64,-30.44 5.72,-5.61 9.29,-5.84 15.68,-0.97 15.48,11.79 30.94,23.6 46.37,35.45 6.6,5.06 7.22,8.37 3.04,15.84 -8.03,14.37 -16.04,28.75 -24.23,43.02 -1.51,2.63 -1.76,4.59 0.22,7.01 1.52,1.86 3.04,3.96 3.75,6.21 2.89,9.22 9.45,10.49 18.07,10.13 13.98,-0.59 28.02,-0.06 42.03,0.14 6.91,0.1 9.73,2.69 10.72,9.63 1.42,9.99 2.7,20.02 4.04,30.04zm-375.86 -69.81c11.81,12.01 23.45,24.15 35.46,35.93 4.67,4.58 5.42,9.03 3.28,15.11 -2.6,7.36 -4.69,15 -6.03,22.68 -1.21,6.91 -4.7,10.22 -11.35,11.93 -16.06,4.16 -31.96,8.92 -48,13.46l6.35 47.49c2.21,0.09 4.07,0.23 5.93,0.25 15.51,0.16 31.02,0.41 46.52,0.38 5.17,-0.01 8.23,2.2 10.53,6.72 3.55,6.97 6.97,14.18 11.67,20.37 5.14,6.76 4.88,12.29 0.63,19.31 -8.3,13.72 -15.8,27.91 -23.41,41.49 12.99,9.97 25.53,19.59 38.33,29.4 12.02,-11.83 24.34,-23.81 36.48,-35.98 3.93,-3.95 8.02,-4.79 13.2,-2.93 5.61,2.01 11.34,3.87 17.16,5.12 17.33,3.76 15.19,0.68 20.76,20.6 3.71,13.26 7.51,26.5 11.3,39.9l47.45 -6.35c0.11,-2.16 0.28,-4.17 0.31,-6.19 0.17,-15.32 0.42,-30.65 0.38,-45.98 -0.01,-5.14 2.1,-8.26 6.55,-10.65 8.04,-4.33 15.95,-8.94 23.71,-13.75 4.26,-2.65 8.14,-3.11 12.56,-0.57 10.21,5.88 20.52,11.59 30.8,17.34 5,2.79 10.02,5.53 13.68,7.55 10.1,-13.18 19.72,-25.71 29.47,-38.44 -11.53,-11.71 -23.55,-24.02 -35.7,-36.21 -3.57,-3.59 -4.37,-7.37 -2.93,-12.22 2.66,-8.93 5.04,-17.96 7.2,-27.03 1.06,-4.45 3.22,-7.32 7.75,-8.53 10.29,-2.77 20.53,-5.69 30.77,-8.61 6.74,-1.91 13.45,-3.93 20.01,-5.85l-6.38 -47.66c-16.92,-0.14 -33.52,-0.52 -50.11,-0.3 -6.73,0.08 -10.67,-2.33 -13.5,-8.46 -3.11,-6.76 -6.78,-13.39 -11.18,-19.36 -4.56,-6.18 -4.65,-11.37 -0.74,-17.9 8.42,-14.09 16.17,-28.58 23.62,-41.87 -13.05,-10.01 -25.6,-19.65 -38.44,-29.5 -11.68,11.5 -23.88,23.36 -35.88,35.41 -4.03,4.05 -8.05,5.02 -13.63,3.18 -8.48,-2.8 -17.22,-4.89 -25.94,-6.89 -4.71,-1.09 -7.66,-3.37 -8.82,-8.15 -1.24,-5.08 -2.79,-10.09 -4.22,-15.13 -3.36,-11.84 -6.74,-23.68 -10.1,-35.49l-47.69 6.38c-0.14,17.18 -0.44,33.99 -0.32,50.81 0.04,6.21 -2.23,10.08 -7.93,12.72 -6.25,2.9 -12.7,5.89 -17.99,10.16 -7.43,6 -14.14,6.78 -21.61,0.83 -0.72,-0.57 -1.6,-0.96 -2.42,-1.42 -12.86,-7.21 -25.73,-14.4 -38.37,-21.48 -9.81,12.89 -19.3,25.38 -29.2,38.38zm152.13 -13.65c59.29,-8.06 113.22,30.29 125.22,90.33 11.12,55.66 -22.09,112.31 -79.88,128.88 -64.26,18.44 -132.57,-25.86 -141.14,-91.42 -0.78,-5.97 1.16,-9.91 5.63,-11.39 5.9,-1.96 11.01,1.6 12.1,8.79 2.55,16.87 9.24,31.87 19.9,45.11 25.28,31.42 68.48,43.31 105.82,29.21 38.67,-14.61 63.46,-51.2 61.31,-92 -2.06,-38.83 -21.1,-67.3 -56.68,-82.66 -35.81,-15.45 -69.45,-9.16 -99.57,15.6 -0.87,0.71 -1.63,1.54 -2.5,2.25 -4.45,3.67 -9.66,3.69 -13.08,0.09 -3.59,-3.8 -3.14,-9.17 1.14,-13.42 15.34,-15.26 38.35,-26.19 61.74,-29.37zm-76.53 50.68c7.71,-0.97 13,5.15 10.63,11.35 -2.06,5.37 -4.67,10.6 -7.64,15.54 -2.27,3.76 -6.3,4.65 -10.37,3.05 -4.38,-1.72 -6.84,-5.55 -5.32,-9.84 2.16,-6.09 5.4,-11.84 8.62,-17.49 0.86,-1.51 3.3,-2.13 4.08,-2.6zm411.68 328.35c7.66,-10.05 14.89,-19.55 22.41,-29.43 -8.95,-9.12 -18.09,-18.73 -27.58,-27.97 -4.48,-4.36 -5.47,-8.69 -3.34,-14.6 2.27,-6.28 3.79,-12.89 5.13,-19.46 1.01,-4.95 3.33,-7.96 8.34,-9.3 12.1,-3.23 24.15,-6.66 36.12,-10.32 1.52,-0.46 3.66,-2.85 3.52,-4.15 -1.14,-10.95 -2.74,-21.85 -4.28,-33.3 -9.8,-0.12 -19.29,-0.22 -28.79,-0.33 -4.67,-0.05 -9.49,0.59 -13.96,-0.38 -3.22,-0.69 -6.9,-2.88 -8.77,-5.53 -4.49,-6.38 -7.9,-13.51 -12.02,-20.17 -2.58,-4.16 -2.36,-7.94 -0,-12.07 6.76,-11.84 13.36,-23.75 19.75,-35.15 -9.95,-7.62 -19.53,-14.96 -29.43,-22.54 -9.2,9.03 -18.9,18.35 -28.33,27.93 -4.08,4.14 -8.26,4.86 -13.69,3.06 -6.53,-2.18 -13.28,-3.73 -20,-5.32 -6.52,-1.53 -9.85,-5.29 -9,-10.7 0.82,-5.23 5.57,-8.22 11.99,-7.05 5.5,1 10.99,2.25 16.33,3.9 2.92,0.9 4.71,0.47 6.84,-1.67 9.21,-9.31 18.6,-18.44 27.95,-27.59 5.48,-5.35 9.03,-5.58 15.21,-0.88 12.67,9.61 25.3,19.27 37.9,28.97 6.11,4.71 6.82,8.18 3.07,14.94 -6.07,10.96 -12.09,21.96 -18.43,32.76 -2.03,3.45 -1.68,5.85 -0.12,9.56 3.63,8.63 9.43,10.87 18.3,10.26 10.6,-0.72 21.3,-0.09 31.94,0.16 6.38,0.16 9.27,2.71 10.15,8.93 2.31,16.49 4.52,33 6.62,49.51 0.77,6.13 -1.4,9.46 -7.53,11.29 -11.64,3.45 -23.31,6.84 -35.08,9.81 -5.17,1.31 -7.7,3.45 -9.46,9.02 -2.33,7.37 -0.92,11.84 4.61,16.82 8.19,7.36 15.61,15.59 23.3,23.5 5.34,5.5 5.55,9.06 0.87,15.24 -9.61,12.66 -19.25,25.31 -28.95,37.91 -4.7,6.11 -8.22,6.78 -14.94,3.04 -10.94,-6.1 -21.96,-12.08 -32.74,-18.45 -3.5,-2.07 -5.89,-1.73 -9.56,-0.03 -7.92,3.68 -11.12,8.7 -10.24,17.7 0.95,9.62 0.07,19.42 0.06,29.14 -0,10.08 -2.08,12.56 -11.95,13.89 -15.02,2.02 -30.03,4.04 -45.06,6.02 -8.01,1.06 -11.03,-0.73 -13.28,-8.4 -3.42,-11.66 -6.72,-23.35 -9.78,-35.11 -1.19,-4.59 -3.5,-6.45 -8.17,-8.24 -8.16,-3.13 -12.9,-0.54 -18.16,5.3 -7.24,8.05 -15.29,15.37 -23.1,22.9 -5.03,4.86 -8.74,5.05 -14.38,0.78 -12.97,-9.83 -25.91,-19.71 -38.79,-29.65 -5.55,-4.29 -6.27,-7.93 -2.87,-14.09 6.15,-11.13 12.26,-22.29 18.7,-33.25 2.03,-3.46 2.37,-5.96 -0.03,-9.5 -3.11,-4.61 -5.55,-9.73 -7.83,-14.84 -2.25,-5.06 -0.49,-9.85 3.8,-12.02 4.59,-2.32 9.41,-0.55 12.28,4.42 4,6.95 7.93,13.95 12.08,20.81 2.41,3.98 2.19,7.65 -0.04,11.58 -6.74,11.86 -13.36,23.79 -19.73,35.16 9.84,7.48 19.44,14.77 29.58,22.47 8.64,-8.48 18.26,-17.58 27.45,-27.09 4.54,-4.7 9.04,-5.53 15.1,-3.32 6.11,2.23 12.54,3.65 18.93,4.97 4.91,1.01 8.04,3.28 9.39,8.28 3.21,11.91 6.82,23.72 9.93,35.65 0.95,3.64 2.3,4.82 6.13,4.21 10.33,-1.63 20.73,-2.86 31.7,-4.32 0.11,-9.71 0.21,-19.19 0.32,-28.67 0.05,-4.67 0.21,-9.35 0.17,-14.02 -0.04,-4.46 2.14,-7.18 5.99,-9.25 6.57,-3.53 13.05,-7.24 19.34,-11.25 4.27,-2.71 8.15,-3 12.55,-0.48 11.83,6.78 23.76,13.37 35.54,19.97zm-19.49 -122.21c5.79,43.75 -20.26,86.65 -61.55,101.13 -42.45,14.88 -88.69,-1.42 -111.84,-39.45 -3.46,-5.68 -2.84,-10.69 1.7,-13.74 4.66,-3.14 9.66,-1.56 13.54,4.38 16.03,24.49 38.62,36.65 67.92,36.23 39.24,-0.55 73.44,-35.84 72.83,-75.12 -0.71,-45.93 -36.09,-78.9 -82,-76.44 -1.12,0.06 -2.24,0.18 -3.36,0.22 -6.22,0.25 -10.39,-2.88 -10.77,-8.06 -0.38,-5.15 3.27,-8.97 9.37,-9.82 45.13,-6.22 91.33,25.46 101.68,69.74 0.85,3.64 1.65,7.29 2.48,10.93zm-167.43 28.93c2.08,9.18 0.17,14.15 -5.91,15.45 -5.92,1.27 -9.68,-2.52 -11.65,-11.84 -0.58,-2.72 -1.27,-5.48 -1.37,-8.24 -0.18,-4.89 3.3,-8.98 7.84,-9.25 4.84,-0.28 8.25,1.9 9.54,6.78 0.61,2.33 1.04,4.73 1.56,7.09z"/>
 </g>
</svg>
