<svg width="34" height="34" viewBox="0 0 34 34" fill="none" xmlns="http://www.w3.org/2000/svg">
<g clip-path="url(#clip0_33_1059)">
<g clip-path="url(#clip1_33_1059)">
<path fill-rule="evenodd" clip-rule="evenodd" d="M28.5238 19.079C28.9075 19.4763 28.8964 20.1093 28.4991 20.493L17.0184 31.5797C16.6212 31.9634 15.9881 31.9523 15.6044 31.5551L4.16572 19.7099C3.7821 19.3127 3.79315 18.6796 4.1904 18.2959C4.58766 17.9123 5.22076 17.9234 5.60439 18.3206L15.3661 28.4291L15.7929 3.97697C15.8025 3.42477 16.258 2.98493 16.8102 2.99457C17.3624 3.00421 17.8022 3.45968 17.7926 4.01187L17.3658 28.464L27.1098 19.0543C27.5071 18.6706 28.1402 18.6817 28.5238 19.079Z" fill="#323B4B"/>
</g>
</g>
<defs>
<clipPath id="clip0_33_1059">
<rect width="32" height="32" fill="white" transform="translate(33.2773 1.28125) rotate(91)"/>
</clipPath>
<clipPath id="clip1_33_1059">
<rect width="32" height="32" fill="white" transform="translate(33.2773 1.28125) rotate(91)"/>
</clipPath>
</defs>
</svg>
